<svg width="120" height="120" viewBox="0 0 120 120" fill="none" xmlns="http://www.w3.org/2000/svg">
<g clip-path="url(#clip0_674_764)">
<circle cx="60" cy="60" r="59.5" fill="black" fill-opacity="0.01" stroke="black"/>
<path d="M36.941 64.4004H34.957L34.173 62.1444H29.405L28.621 64.4004H26.621L30.685 53.2004H32.893L36.941 64.4004ZM31.789 55.3604L30.013 60.4164H33.565L31.789 55.3604ZM39.7614 64.4004H38.0334V52.7204H39.7614V64.4004ZM49.4958 61.1364H43.1278C43.2558 61.7337 43.5438 62.1977 43.9918 62.5284C44.4504 62.8591 45.0158 63.0244 45.6878 63.0244C46.5944 63.0244 47.2824 62.6937 47.7518 62.0324L49.1758 62.8644C48.3971 64.0271 47.2291 64.6084 45.6718 64.6084C44.3811 64.6084 43.3304 64.2137 42.5198 63.4244C41.7198 62.6244 41.3198 61.6164 41.3198 60.4004C41.3198 59.2164 41.7144 58.2191 42.5038 57.4084C43.2824 56.5977 44.2958 56.1924 45.5438 56.1924C46.7064 56.1924 47.6664 56.6031 48.4238 57.4244C49.1811 58.2457 49.5598 59.2431 49.5598 60.4164C49.5598 60.6297 49.5384 60.8697 49.4958 61.1364ZM43.1118 59.7284H47.8158C47.6984 59.0991 47.4318 58.6137 47.0158 58.2724C46.6104 57.9311 46.1144 57.7604 45.5278 57.7604C44.8878 57.7604 44.3544 57.9364 43.9278 58.2884C43.5011 58.6404 43.2291 59.1204 43.1118 59.7284ZM52.8083 56.4004V57.7444C53.2456 56.7524 54.0669 56.2564 55.2723 56.2564V58.1284C54.6216 58.0857 54.0456 58.2457 53.5443 58.6084C53.0536 58.9604 52.8083 59.5471 52.8083 60.3684V64.4004H51.0803V56.4004H52.8083ZM61.2161 56.4004V58.0644H59.2321V61.9044C59.2321 62.2351 59.3068 62.4751 59.4561 62.6244C59.6055 62.7631 59.8241 62.8431 60.1121 62.8644C60.4108 62.8751 60.7788 62.8697 61.2161 62.8484V64.4004C59.8935 64.5604 58.9441 64.4484 58.3681 64.0644C57.7921 63.6697 57.5041 62.9497 57.5041 61.9044V58.0644H56.0321V56.4004H57.5041V54.6724L59.2321 54.1604V56.4004H61.2161ZM67.0695 56.1924C67.9975 56.1924 68.7388 56.4911 69.2935 57.0884C69.8588 57.6751 70.1415 58.4751 70.1415 59.4884V64.4004H68.4135V59.6644C68.4135 59.0671 68.2535 58.6084 67.9335 58.2884C67.6135 57.9684 67.1762 57.8084 66.6215 57.8084C65.9922 57.8084 65.4962 58.0057 65.1335 58.4004C64.7708 58.7844 64.5895 59.3551 64.5895 60.1124V64.4004H62.8615V56.4004H64.5895V57.4244C65.1228 56.6031 65.9495 56.1924 67.0695 56.1924ZM79.7301 61.1364H73.3621C73.4901 61.7337 73.7781 62.1977 74.2261 62.5284C74.6848 62.8591 75.2501 63.0244 75.9221 63.0244C76.8288 63.0244 77.5168 62.6937 77.9861 62.0324L79.4101 62.8644C78.6315 64.0271 77.4635 64.6084 75.9061 64.6084C74.6155 64.6084 73.5648 64.2137 72.7541 63.4244C71.9541 62.6244 71.5541 61.6164 71.5541 60.4004C71.5541 59.2164 71.9488 58.2191 72.7381 57.4084C73.5168 56.5977 74.5301 56.1924 75.7781 56.1924C76.9408 56.1924 77.9008 56.6031 78.6581 57.4244C79.4155 58.2457 79.7941 59.2431 79.7941 60.4164C79.7941 60.6297 79.7728 60.8697 79.7301 61.1364ZM73.3461 59.7284H78.0501C77.9328 59.0991 77.6661 58.6137 77.2501 58.2724C76.8448 57.9311 76.3488 57.7604 75.7621 57.7604C75.1221 57.7604 74.5888 57.9364 74.1621 58.2884C73.7355 58.6404 73.4635 59.1204 73.3461 59.7284ZM82.5541 58.6084C82.5541 58.8537 82.6821 59.0564 82.9381 59.2164C83.1941 59.3657 83.5675 59.5097 84.0581 59.6484C84.4315 59.7337 84.7568 59.8244 85.0341 59.9204C85.3115 60.0164 85.6048 60.1604 85.9141 60.3524C86.2235 60.5337 86.4581 60.7791 86.6181 61.0884C86.7888 61.3871 86.8688 61.7391 86.8581 62.1444C86.8581 62.9124 86.5595 63.5151 85.9621 63.9524C85.3648 64.3897 84.6235 64.6084 83.7381 64.6084C82.9488 64.6084 82.2715 64.4431 81.7061 64.1124C81.1408 63.7817 80.7301 63.3231 80.4741 62.7364L81.9621 61.8724C82.2288 62.6404 82.8208 63.0244 83.7381 63.0244C84.6448 63.0244 85.0981 62.7257 85.0981 62.1284C85.0981 61.6911 84.5915 61.3497 83.5781 61.1044C83.1941 61.0084 82.8688 60.9124 82.6021 60.8164C82.3461 60.7204 82.0581 60.5817 81.7381 60.4004C81.4288 60.2191 81.1888 59.9791 81.0181 59.6804C80.8581 59.3817 80.7835 59.0351 80.7941 58.6404C80.7941 57.9044 81.0715 57.3124 81.6261 56.8644C82.1915 56.4164 82.8901 56.1924 83.7221 56.1924C84.3835 56.1924 84.9701 56.3417 85.4821 56.6404C86.0048 56.9284 86.4048 57.3337 86.6821 57.8564L85.2261 58.6724C84.9595 58.0644 84.4581 57.7604 83.7221 57.7604C83.3808 57.7604 83.0981 57.8351 82.8741 57.9844C82.6608 58.1337 82.5541 58.3417 82.5541 58.6084ZM89.4448 58.6084C89.4448 58.8537 89.5728 59.0564 89.8288 59.2164C90.0848 59.3657 90.4581 59.5097 90.9488 59.6484C91.3221 59.7337 91.6474 59.8244 91.9248 59.9204C92.2021 60.0164 92.4954 60.1604 92.8048 60.3524C93.1141 60.5337 93.3488 60.7791 93.5088 61.0884C93.6794 61.3871 93.7594 61.7391 93.7488 62.1444C93.7488 62.9124 93.4501 63.5151 92.8528 63.9524C92.2554 64.3897 91.5141 64.6084 90.6288 64.6084C89.8394 64.6084 89.1621 64.4431 88.5968 64.1124C88.0314 63.7817 87.6208 63.3231 87.3648 62.7364L88.8528 61.8724C89.1194 62.6404 89.7114 63.0244 90.6288 63.0244C91.5354 63.0244 91.9888 62.7257 91.9888 62.1284C91.9888 61.6911 91.4821 61.3497 90.4688 61.1044C90.0848 61.0084 89.7594 60.9124 89.4928 60.8164C89.2368 60.7204 88.9488 60.5817 88.6288 60.4004C88.3194 60.2191 88.0794 59.9791 87.9088 59.6804C87.7488 59.3817 87.6741 59.0351 87.6848 58.6404C87.6848 57.9044 87.9621 57.3124 88.5168 56.8644C89.0821 56.4164 89.7808 56.1924 90.6128 56.1924C91.2741 56.1924 91.8608 56.3417 92.3728 56.6404C92.8954 56.9284 93.2954 57.3337 93.5728 57.8564L92.1168 58.6724C91.8501 58.0644 91.3488 57.7604 90.6128 57.7604C90.2714 57.7604 89.9888 57.8351 89.7648 57.9844C89.5514 58.1337 89.4448 58.3417 89.4448 58.6084Z" fill="black"/>
</g>
<defs>
<clipPath id="clip0_674_764">
<rect width="120" height="120" fill="white"/>
</clipPath>
</defs>
</svg>
