<svg width="130" height="130" viewBox="0 0 130 130" fill="none" xmlns="http://www.w3.org/2000/svg">
<g clip-path="url(#clip0_674_765)">
<circle cx="65" cy="65" r="64.5" fill="black" fill-opacity="0.01" stroke="black"/>
<path d="M34.6697 62.4409V57.4663H36.663V69.5996H34.6697V64.3476H29.4697V69.5996H27.4764V57.4663H29.4697V62.4409H34.6697ZM42.5897 67.2249L44.8083 60.9329H46.8017L43.4737 69.8769C42.6417 72.1187 41.2319 73.1818 39.2443 73.0663V71.3156C39.8221 71.3503 40.2901 71.2289 40.6483 70.9516C41.0066 70.6743 41.307 70.2294 41.5497 69.6169L41.6363 69.4436L37.9617 60.9329H40.007L42.5897 67.2249ZM54.4977 62.1636V57.4663H56.3697V69.5996H54.4977V68.3516C53.7928 69.3338 52.7817 69.8249 51.4643 69.8249C50.2741 69.8249 49.2572 69.3858 48.4137 68.5076C47.5701 67.6294 47.1483 66.5489 47.1483 65.2663C47.1483 63.9836 47.5701 62.9032 48.4137 62.0249C49.2572 61.1467 50.2741 60.7076 51.4643 60.7076C52.7817 60.7076 53.7928 61.1929 54.4977 62.1636ZM49.8003 67.2596C50.3203 67.7796 50.9732 68.0396 51.759 68.0396C52.5448 68.0396 53.1977 67.7796 53.7177 67.2596C54.2377 66.7281 54.4977 66.0636 54.4977 65.2663C54.4977 64.4689 54.2377 63.8103 53.7177 63.2903C53.1977 62.7587 52.5448 62.4929 51.759 62.4929C50.9732 62.4929 50.3203 62.7587 49.8003 63.2903C49.2803 63.8103 49.0203 64.4689 49.0203 65.2663C49.0203 66.0521 49.2803 66.7165 49.8003 67.2596ZM60.4236 60.9329V62.3889C60.8974 61.3143 61.7872 60.7769 63.093 60.7769V62.8049C62.3881 62.7587 61.7641 62.9321 61.221 63.3249C60.6894 63.7063 60.4236 64.3418 60.4236 65.2316V69.5996H58.5516V60.9329H60.4236ZM70.9339 62.1636V60.9329H72.8059V69.5996H70.9339V68.3516C70.229 69.3338 69.2179 69.8249 67.9005 69.8249C66.7103 69.8249 65.6934 69.3858 64.8499 68.5076C64.0063 67.6294 63.5845 66.5489 63.5845 65.2663C63.5845 63.9836 64.0063 62.9032 64.8499 62.0249C65.6934 61.1467 66.7103 60.7076 67.9005 60.7076C69.2179 60.7076 70.229 61.1929 70.9339 62.1636ZM66.2365 67.2596C66.7565 67.7796 67.4094 68.0396 68.1952 68.0396C68.981 68.0396 69.6339 67.7796 70.1539 67.2596C70.6739 66.7281 70.9339 66.0636 70.9339 65.2663C70.9339 64.4689 70.6739 63.8103 70.1539 63.2903C69.6339 62.7587 68.981 62.4929 68.1952 62.4929C67.4094 62.4929 66.7565 62.7587 66.2365 63.2903C65.7165 63.8103 65.4565 64.4689 65.4565 65.2663C65.4565 66.0521 65.7165 66.7165 66.2365 67.2596ZM79.8238 60.9329V62.7356H77.6745V66.8956C77.6745 67.2538 77.7554 67.5138 77.9172 67.6756C78.0789 67.8258 78.3158 67.9125 78.6278 67.9356C78.9514 67.9472 79.3501 67.9414 79.8238 67.9183V69.5996C78.3909 69.7729 77.3625 69.6516 76.7385 69.2356C76.1145 68.8081 75.8025 68.0281 75.8025 66.8956V62.7356H74.2078V60.9329H75.8025V59.0609L77.6745 58.5063V60.9329H79.8238ZM83.2897 59.2863C83.0586 59.5174 82.7812 59.6329 82.4577 59.6329C82.1341 59.6329 81.851 59.5174 81.6084 59.2863C81.3772 59.0436 81.2617 58.7605 81.2617 58.4369C81.2617 58.1134 81.3772 57.8361 81.6084 57.6049C81.8395 57.3623 82.1226 57.2409 82.4577 57.2409C82.7928 57.2409 83.0759 57.3623 83.307 57.6049C83.5381 57.8361 83.6537 58.1134 83.6537 58.4369C83.6537 58.7605 83.5324 59.0436 83.2897 59.2863ZM83.3937 69.5996H81.5217V60.9329H83.3937V69.5996ZM92.8993 68.5076C92.021 69.3858 90.9406 69.8249 89.6579 69.8249C88.3753 69.8249 87.2948 69.3858 86.4166 68.5076C85.5268 67.6178 85.0819 66.5374 85.0819 65.2663C85.0819 63.9952 85.5268 62.9147 86.4166 62.0249C87.2948 61.1467 88.3753 60.7076 89.6579 60.7076C90.9406 60.7076 92.021 61.1467 92.8993 62.0249C93.789 62.9147 94.2339 63.9952 94.2339 65.2663C94.2339 66.5374 93.789 67.6178 92.8993 68.5076ZM86.9539 65.2663C86.9539 66.0521 87.2139 66.7049 87.7339 67.2249C88.2539 67.7449 88.8953 68.0049 89.6579 68.0049C90.4206 68.0049 91.0619 67.7449 91.5819 67.2249C92.1019 66.7049 92.3619 66.0521 92.3619 65.2663C92.3619 64.4805 92.1019 63.8276 91.5819 63.3076C91.0619 62.7876 90.4206 62.5276 89.6579 62.5276C88.8953 62.5276 88.2539 62.7876 87.7339 63.3076C87.2139 63.8276 86.9539 64.4805 86.9539 65.2663ZM100.485 60.7076C101.491 60.7076 102.294 61.0312 102.895 61.6783C103.507 62.3138 103.813 63.1805 103.813 64.2783V69.5996H101.941V64.4689C101.941 63.8218 101.768 63.3249 101.421 62.9783C101.075 62.6316 100.601 62.4583 100 62.4583C99.3182 62.4583 98.7809 62.6721 98.388 63.0996C97.9951 63.5156 97.7986 64.1338 97.7986 64.9543V69.5996H95.9266V60.9329H97.7986V62.0423C98.3764 61.1525 99.272 60.7076 100.485 60.7076Z" fill="black"/>
</g>
<defs>
<clipPath id="clip0_674_765">
<rect width="130" height="130" fill="white"/>
</clipPath>
</defs>
</svg>
