<svg width="195" height="65" viewBox="0 0 195 65" fill="none" xmlns="http://www.w3.org/2000/svg">
<g clip-path="url(#clip0_674_767)">
<rect x="0.5" y="0.5" width="194" height="64" fill="black" fill-opacity="0.01" stroke="black"/>
<path d="M77.1254 30.0387V25.375H78.9941V36.75H77.1254V31.8262H72.2504V36.75H70.3816V25.375H72.2504V30.0387H77.1254ZM89.0029 33.435H82.5354C82.6654 34.0417 82.9579 34.5129 83.4129 34.8487C83.8787 35.1846 84.4529 35.3525 85.1354 35.3525C86.0562 35.3525 86.755 35.0167 87.2316 34.345L88.6779 35.19C87.887 36.3708 86.7008 36.9613 85.1191 36.9613C83.8083 36.9613 82.7412 36.5604 81.9179 35.7587C81.1054 34.9462 80.6991 33.9225 80.6991 32.6875C80.6991 31.485 81.1 30.4721 81.9016 29.6487C82.6925 28.8254 83.7216 28.4137 84.9891 28.4137C86.17 28.4137 87.145 28.8308 87.9141 29.665C88.6833 30.4992 89.0679 31.5121 89.0679 32.7037C89.0679 32.9204 89.0462 33.1642 89.0029 33.435ZM82.5191 32.005H87.2966C87.1775 31.3658 86.9066 30.8729 86.4841 30.5262C86.0725 30.1796 85.5687 30.0062 84.9729 30.0062C84.3229 30.0062 83.7812 30.185 83.3479 30.5425C82.9145 30.9 82.6383 31.3875 82.5191 32.005ZM96.9995 29.7787V28.625H98.7545V36.75H96.9995V35.58C96.3387 36.5008 95.3908 36.9613 94.1558 36.9613C93.0399 36.9613 92.0866 36.5496 91.2958 35.7262C90.5049 34.9029 90.1095 33.89 90.1095 32.6875C90.1095 31.485 90.5049 30.4721 91.2958 29.6487C92.0866 28.8254 93.0399 28.4137 94.1558 28.4137C95.3908 28.4137 96.3387 28.8687 96.9995 29.7787ZM92.5958 34.5562C93.0833 35.0437 93.6954 35.2875 94.432 35.2875C95.1687 35.2875 95.7808 35.0437 96.2683 34.5562C96.7558 34.0579 96.9995 33.435 96.9995 32.6875C96.9995 31.94 96.7558 31.3225 96.2683 30.835C95.7808 30.3367 95.1687 30.0875 94.432 30.0875C93.6954 30.0875 93.0833 30.3367 92.5958 30.835C92.1083 31.3225 91.8645 31.94 91.8645 32.6875C91.8645 33.4242 92.1083 34.0471 92.5958 34.5562ZM102.555 36.75H100.8V24.8875H102.555V36.75ZM106.25 27.0812C106.034 27.2979 105.774 27.4062 105.47 27.4062C105.167 27.4062 104.902 27.2979 104.674 27.0812C104.457 26.8537 104.349 26.5883 104.349 26.285C104.349 25.9817 104.457 25.7217 104.674 25.505C104.891 25.2775 105.156 25.1637 105.47 25.1637C105.785 25.1637 106.05 25.2775 106.267 25.505C106.483 25.7217 106.592 25.9817 106.592 26.285C106.592 26.5883 106.478 26.8537 106.25 27.0812ZM106.348 36.75H104.593V28.625H106.348V36.75ZM112.659 28.4137C113.602 28.4137 114.355 28.7171 114.918 29.3237C115.492 29.9196 115.779 30.7321 115.779 31.7612V36.75H114.024V31.94C114.024 31.3333 113.862 30.8675 113.537 30.5425C113.212 30.2175 112.768 30.055 112.204 30.055C111.565 30.055 111.061 30.2554 110.693 30.6562C110.325 31.0462 110.141 31.6258 110.141 32.395V36.75H108.386V28.625H110.141V29.665C110.682 28.8308 111.522 28.4137 112.659 28.4137ZM124.137 29.8275V28.625H125.859V36.3762C125.859 37.6113 125.453 38.5592 124.64 39.22C123.839 39.8808 122.853 40.2113 121.683 40.2113C119.809 40.2113 118.525 39.5558 117.832 38.245L119.343 37.3675C119.765 38.2017 120.556 38.6188 121.715 38.6188C122.474 38.6188 123.064 38.4183 123.487 38.0175C123.92 37.6275 124.137 37.0804 124.137 36.3762V35.385C123.476 36.3275 122.533 36.7988 121.309 36.7988C120.172 36.7988 119.202 36.3925 118.4 35.58C117.609 34.7567 117.214 33.7654 117.214 32.6062C117.214 31.4362 117.609 30.4504 118.4 29.6487C119.191 28.8254 120.161 28.4137 121.309 28.4137C122.533 28.4137 123.476 28.885 124.137 29.8275ZM119.7 34.4262C120.199 34.9137 120.816 35.1575 121.553 35.1575C122.289 35.1575 122.902 34.9137 123.389 34.4262C123.887 33.9387 124.137 33.3321 124.137 32.6062C124.137 31.8804 123.887 31.2737 123.389 30.7862C122.902 30.2987 122.289 30.055 121.553 30.055C120.816 30.055 120.199 30.2987 119.7 30.7862C119.213 31.2737 118.969 31.8804 118.969 32.6062C118.969 33.3321 119.213 33.9387 119.7 34.4262Z" fill="black"/>
</g>
<defs>
<clipPath id="clip0_674_767">
<rect width="195" height="65" fill="white"/>
</clipPath>
</defs>
</svg>
