<svg width="130" height="130" viewBox="0 0 130 130" fill="none" xmlns="http://www.w3.org/2000/svg">
<g clip-path="url(#clip0_674_766)">
<circle cx="65" cy="65" r="64.5667" fill="black" fill-opacity="0.01" stroke="black" stroke-width="0.866667"/>
<path d="M47.9629 47.0669H50.0949V59.2002H48.1016V50.5509L44.4096 56.6522H44.1669L40.4749 50.5335V59.2002H38.4816V47.0669H40.6309L44.2882 53.1335L47.9629 47.0669ZM58.2341 55.1789V50.5335H60.1061V59.2002H58.2341V58.0909C57.6563 58.9806 56.7608 59.4255 55.5474 59.4255C54.5421 59.4255 53.7332 59.1078 53.1208 58.4722C52.5199 57.8251 52.2194 56.9526 52.2194 55.8549V50.5335H54.0914V55.6642C54.0914 56.3113 54.2648 56.8082 54.6114 57.1549C54.9581 57.5015 55.4319 57.6749 56.0328 57.6749C56.7146 57.6749 57.2519 57.4669 57.6448 57.0509C58.0377 56.6233 58.2341 55.9993 58.2341 55.1789ZM63.9257 52.9255C63.9257 53.1913 64.0643 53.4109 64.3417 53.5842C64.619 53.746 65.0235 53.902 65.555 54.0522C65.9595 54.1446 66.3119 54.2429 66.6123 54.3469C66.9128 54.4509 67.2306 54.6069 67.5657 54.8149C67.9008 55.0113 68.155 55.2771 68.3283 55.6122C68.5132 55.9358 68.5999 56.3171 68.5883 56.7562C68.5883 57.5882 68.2648 58.2411 67.6177 58.7149C66.9706 59.1886 66.1675 59.4255 65.2083 59.4255C64.3532 59.4255 63.6195 59.2464 63.007 58.8882C62.3946 58.53 61.9497 58.0331 61.6723 57.3975L63.2843 56.4615C63.5732 57.2935 64.2146 57.7095 65.2083 57.7095C66.1906 57.7095 66.6817 57.386 66.6817 56.7389C66.6817 56.2651 66.1328 55.8953 65.035 55.6295C64.619 55.5255 64.2666 55.4215 63.9777 55.3175C63.7003 55.2135 63.3883 55.0633 63.0417 54.8669C62.7066 54.6704 62.4466 54.4104 62.2617 54.0869C62.0883 53.7633 62.0075 53.3878 62.019 52.9602C62.019 52.1629 62.3195 51.5215 62.9203 51.0362C63.5328 50.5509 64.2897 50.3082 65.191 50.3082C65.9075 50.3082 66.543 50.47 67.0977 50.7935C67.6639 51.1055 68.0972 51.5446 68.3977 52.1109L66.8203 52.9949C66.5315 52.3362 65.9883 52.0069 65.191 52.0069C64.8212 52.0069 64.515 52.0878 64.2723 52.2495C64.0412 52.4113 63.9257 52.6366 63.9257 52.9255ZM74.1045 59.4255C72.7988 59.4255 71.7068 58.9864 70.8285 58.1082C69.9619 57.2184 69.5285 56.138 69.5285 54.8669C69.5285 53.5726 69.9619 52.4922 70.8285 51.6255C71.7068 50.7473 72.7988 50.3082 74.1045 50.3082C74.9481 50.3082 75.7165 50.5104 76.4099 50.9149C77.1032 51.3193 77.6232 51.8624 77.9699 52.5442L76.3579 53.4802C76.1614 53.0642 75.861 52.7406 75.4565 52.5095C75.0637 52.2669 74.6072 52.1455 74.0872 52.1455C73.3245 52.1455 72.6832 52.4055 72.1632 52.9255C71.6548 53.4571 71.4005 54.1042 71.4005 54.8669C71.4005 55.6295 71.6548 56.2766 72.1632 56.8082C72.6832 57.3282 73.3245 57.5882 74.0872 57.5882C74.5957 57.5882 75.0521 57.4726 75.4565 57.2415C75.8725 56.9989 76.1845 56.6695 76.3925 56.2535L78.0045 57.1722C77.6348 57.8655 77.0974 58.4144 76.3925 58.8189C75.6992 59.2233 74.9365 59.4255 74.1045 59.4255ZM81.2296 59.2002H79.3576V46.5469H81.2296V59.2002ZM91.7752 55.6642H84.8765C85.0152 56.3113 85.3272 56.814 85.8125 57.1722C86.3094 57.5304 86.9219 57.7095 87.6499 57.7095C88.6321 57.7095 89.3774 57.3513 89.8859 56.6349L91.4285 57.5362C90.585 58.7958 89.3196 59.4255 87.6325 59.4255C86.2343 59.4255 85.0961 58.998 84.2179 58.1429C83.3512 57.2762 82.9179 56.1842 82.9179 54.8669C82.9179 53.5842 83.3454 52.5038 84.2005 51.6255C85.0441 50.7473 86.1419 50.3082 87.4939 50.3082C88.7534 50.3082 89.7934 50.7531 90.6139 51.6429C91.4343 52.5326 91.8445 53.6131 91.8445 54.8842C91.8445 55.1153 91.8214 55.3753 91.7752 55.6642ZM84.8592 54.1389H89.9552C89.8281 53.4571 89.5392 52.9313 89.0885 52.5615C88.6494 52.1918 88.1121 52.0069 87.4765 52.0069C86.7832 52.0069 86.2054 52.1975 85.7432 52.5789C85.281 52.9602 84.9863 53.4802 84.8592 54.1389ZM38.6735 68.0669V69.9735H33.5602V73.3709H38.5002V75.2775H33.5602V80.2002H31.5668V68.0669H38.6735ZM46.2582 76.1789V71.5335H48.1302V80.2002H46.2582V79.0909C45.6804 79.9806 44.7849 80.4255 43.5715 80.4255C42.5662 80.4255 41.7573 80.1078 41.1449 79.4722C40.544 78.8251 40.2435 77.9526 40.2435 76.8549V71.5335H42.1155V76.6642C42.1155 77.3113 42.2889 77.8082 42.6355 78.1549C42.9822 78.5015 43.456 78.6749 44.0569 78.6749C44.7386 78.6749 45.276 78.4669 45.6689 78.0509C46.0618 77.6233 46.2582 76.9993 46.2582 76.1789ZM54.8779 71.3082C55.8832 71.3082 56.6863 71.6318 57.2872 72.2789C57.8997 72.9144 58.2059 73.7811 58.2059 74.8789V80.2002H56.3339V75.0695C56.3339 74.4224 56.1605 73.9255 55.8139 73.5789C55.4672 73.2322 54.9934 73.0589 54.3925 73.0589C53.7108 73.0589 53.1734 73.2726 52.7805 73.7002C52.3877 74.1162 52.1912 74.7344 52.1912 75.5549V80.2002H50.3192V71.5335H52.1912V72.6429C52.769 71.7531 53.6645 71.3082 54.8779 71.3082ZM64.3122 80.4255C63.0064 80.4255 61.9144 79.9864 61.0362 79.1082C60.1696 78.2184 59.7362 77.138 59.7362 75.8669C59.7362 74.5726 60.1696 73.4922 61.0362 72.6255C61.9144 71.7473 63.0064 71.3082 64.3122 71.3082C65.1558 71.3082 65.9242 71.5104 66.6176 71.9149C67.3109 72.3193 67.8309 72.8624 68.1776 73.5442L66.5656 74.4802C66.3691 74.0642 66.0687 73.7406 65.6642 73.5095C65.2713 73.2669 64.8149 73.1455 64.2949 73.1455C63.5322 73.1455 62.8909 73.4055 62.3709 73.9255C61.8624 74.4571 61.6082 75.1042 61.6082 75.8669C61.6082 76.6295 61.8624 77.2766 62.3709 77.8082C62.8909 78.3282 63.5322 78.5882 64.2949 78.5882C64.8033 78.5882 65.2598 78.4726 65.6642 78.2415C66.0802 77.9989 66.3922 77.6695 66.6002 77.2535L68.2122 78.1722C67.8424 78.8655 67.3051 79.4144 66.6002 79.8189C65.9069 80.2233 65.1442 80.4255 64.3122 80.4255ZM74.4013 71.5335V73.3362H72.252V77.4962C72.252 77.8544 72.3329 78.1144 72.4946 78.2762C72.6564 78.4264 72.8933 78.5131 73.2053 78.5362C73.5289 78.5478 73.9275 78.542 74.4013 78.5189V80.2002C72.9684 80.3735 71.94 80.2522 71.316 79.8362C70.692 79.4086 70.38 78.6286 70.38 77.4962V73.3362H68.7853V71.5335H70.38V69.6615L72.252 69.1069V71.5335H74.4013ZM77.8672 69.8869C77.6361 70.118 77.3587 70.2335 77.0352 70.2335C76.7116 70.2335 76.4285 70.118 76.1858 69.8869C75.9547 69.6442 75.8392 69.3611 75.8392 69.0375C75.8392 68.714 75.9547 68.4366 76.1858 68.2055C76.4169 67.9629 76.7001 67.8415 77.0352 67.8415C77.3703 67.8415 77.6534 67.9629 77.8845 68.2055C78.1156 68.4366 78.2312 68.714 78.2312 69.0375C78.2312 69.3611 78.1098 69.6442 77.8672 69.8869ZM77.9712 80.2002H76.0992V71.5335H77.9712V80.2002ZM87.4767 79.1082C86.5985 79.9864 85.5181 80.4255 84.2354 80.4255C82.9527 80.4255 81.8723 79.9864 80.9941 79.1082C80.1043 78.2184 79.6594 77.138 79.6594 75.8669C79.6594 74.5958 80.1043 73.5153 80.9941 72.6255C81.8723 71.7473 82.9527 71.3082 84.2354 71.3082C85.5181 71.3082 86.5985 71.7473 87.4767 72.6255C88.3665 73.5153 88.8114 74.5958 88.8114 75.8669C88.8114 77.138 88.3665 78.2184 87.4767 79.1082ZM81.5314 75.8669C81.5314 76.6526 81.7914 77.3055 82.3114 77.8255C82.8314 78.3455 83.4727 78.6055 84.2354 78.6055C84.9981 78.6055 85.6394 78.3455 86.1594 77.8255C86.6794 77.3055 86.9394 76.6526 86.9394 75.8669C86.9394 75.0811 86.6794 74.4282 86.1594 73.9082C85.6394 73.3882 84.9981 73.1282 84.2354 73.1282C83.4727 73.1282 82.8314 73.3882 82.3114 73.9082C81.7914 74.4282 81.5314 75.0811 81.5314 75.8669ZM95.0628 71.3082C96.0681 71.3082 96.8712 71.6318 97.4721 72.2789C98.0846 72.9144 98.3908 73.7811 98.3908 74.8789V80.2002H96.5188V75.0695C96.5188 74.4224 96.3454 73.9255 95.9988 73.5789C95.6521 73.2322 95.1783 73.0589 94.5774 73.0589C93.8957 73.0589 93.3583 73.2726 92.9654 73.7002C92.5726 74.1162 92.3761 74.7344 92.3761 75.5549V80.2002H90.5041V71.5335H92.3761V72.6429C92.9539 71.7531 93.8494 71.3082 95.0628 71.3082Z" fill="black"/>
</g>
<defs>
<clipPath id="clip0_674_766">
<rect width="130" height="130" fill="white"/>
</clipPath>
</defs>
</svg>
