<svg width="195" height="65" viewBox="0 0 195 65" fill="none" xmlns="http://www.w3.org/2000/svg">
<g clip-path="url(#clip0_674_777)">
<rect width="195" height="65" fill="#74A030"/>
<path d="M31.2938 25.375H39.5813V27.1625H36.38V36.75H34.5113V27.1625H31.2938V25.375ZM45.1232 28.4137C46.0657 28.4137 46.8186 28.7171 47.3819 29.3237C47.9561 29.9196 48.2432 30.7321 48.2432 31.7612V36.75H46.4882V31.94C46.4882 31.3333 46.3257 30.8675 46.0007 30.5425C45.6757 30.2175 45.2315 30.055 44.6682 30.055C44.029 30.055 43.5253 30.2554 43.1569 30.6562C42.7886 31.0462 42.6044 31.6258 42.6044 32.395V36.75H40.8494V25.375H42.6044V29.665C43.1461 28.8308 43.9857 28.4137 45.1232 28.4137ZM57.9816 33.435H51.5141C51.6441 34.0417 51.9366 34.5129 52.3916 34.8487C52.8575 35.1846 53.4316 35.3525 54.1141 35.3525C55.035 35.3525 55.7337 35.0167 56.2104 34.345L57.6566 35.19C56.8658 36.3708 55.6795 36.9613 54.0979 36.9613C52.787 36.9613 51.72 36.5604 50.8966 35.7587C50.0841 34.9462 49.6779 33.9225 49.6779 32.6875C49.6779 31.485 50.0787 30.4721 50.8804 29.6487C51.6712 28.8254 52.7004 28.4137 53.9679 28.4137C55.1487 28.4137 56.1237 28.8308 56.8929 29.665C57.662 30.4992 58.0466 31.5121 58.0466 32.7037C58.0466 32.9204 58.025 33.1642 57.9816 33.435ZM51.4979 32.005H56.2754C56.1562 31.3658 55.8854 30.8729 55.4629 30.5262C55.0512 30.1796 54.5475 30.0062 53.9516 30.0062C53.3016 30.0062 52.76 30.185 52.3266 30.5425C51.8933 30.9 51.617 31.3875 51.4979 32.005ZM61.3459 28.625V29.99C61.7901 28.9825 62.6242 28.4787 63.8484 28.4787V30.38C63.1876 30.3367 62.6026 30.4992 62.0934 30.8675C61.5951 31.225 61.3459 31.8208 61.3459 32.655V36.75H59.5909V28.625H61.3459ZM74.0176 28.4137C74.9384 28.4137 75.6805 28.7117 76.2438 29.3075C76.8072 29.9033 77.0888 30.705 77.0888 31.7125V36.75H75.3338V31.8262C75.3338 31.2737 75.193 30.8404 74.9113 30.5262C74.6297 30.2121 74.2451 30.055 73.7576 30.055C73.2051 30.055 72.7718 30.2392 72.4576 30.6075C72.1434 30.965 71.9863 31.4958 71.9863 32.2V36.75H70.2313V31.8262C70.2313 31.2629 70.0959 30.8296 69.8251 30.5262C69.5651 30.2121 69.1913 30.055 68.7038 30.055C68.1622 30.055 67.7234 30.2392 67.3876 30.6075C67.0626 30.9758 66.9001 31.5067 66.9001 32.2V36.75H65.1451V28.625H66.9001V29.6C67.4201 28.8092 68.1947 28.4137 69.2238 28.4137C70.2638 28.4137 71.033 28.8417 71.5313 29.6975C72.0622 28.8417 72.8909 28.4137 74.0176 28.4137ZM85.8409 35.7262C85.0175 36.5496 84.0046 36.9613 82.8021 36.9613C81.5996 36.9613 80.5867 36.5496 79.7634 35.7262C78.9292 34.8921 78.5121 33.8792 78.5121 32.6875C78.5121 31.4958 78.9292 30.4829 79.7634 29.6487C80.5867 28.8254 81.5996 28.4137 82.8021 28.4137C84.0046 28.4137 85.0175 28.8254 85.8409 29.6487C86.675 30.4829 87.0921 31.4958 87.0921 32.6875C87.0921 33.8792 86.675 34.8921 85.8409 35.7262ZM80.2671 32.6875C80.2671 33.4242 80.5109 34.0362 80.9984 34.5237C81.4859 35.0112 82.0871 35.255 82.8021 35.255C83.5171 35.255 84.1184 35.0112 84.6059 34.5237C85.0934 34.0362 85.3371 33.4242 85.3371 32.6875C85.3371 31.9508 85.0934 31.3387 84.6059 30.8512C84.1184 30.3637 83.5171 30.12 82.8021 30.12C82.0871 30.12 81.4859 30.3637 80.9984 30.8512C80.5109 31.3387 80.2671 31.9508 80.2671 32.6875ZM90.434 28.625V29.99C90.8782 28.9825 91.7124 28.4787 92.9365 28.4787V30.38C92.2757 30.3367 91.6907 30.4992 91.1815 30.8675C90.6832 31.225 90.434 31.8208 90.434 32.655V36.75H88.679V28.625H90.434ZM101.701 33.435H95.2336C95.3636 34.0417 95.6561 34.5129 96.1111 34.8487C96.5769 35.1846 97.1511 35.3525 97.8336 35.3525C98.7544 35.3525 99.4532 35.0167 99.9299 34.345L101.376 35.19C100.585 36.3708 99.399 36.9613 97.8174 36.9613C96.5065 36.9613 95.4394 36.5604 94.6161 35.7587C93.8036 34.9462 93.3974 33.9225 93.3974 32.6875C93.3974 31.485 93.7982 30.4721 94.5999 29.6487C95.3907 28.8254 96.4199 28.4137 97.6874 28.4137C98.8682 28.4137 99.8432 28.8308 100.612 29.665C101.382 30.4992 101.766 31.5121 101.766 32.7037C101.766 32.9204 101.744 33.1642 101.701 33.435ZM95.2174 32.005H99.9949C99.8757 31.3658 99.6049 30.8729 99.1824 30.5262C98.7707 30.1796 98.2669 30.0062 97.6711 30.0062C97.0211 30.0062 96.4794 30.185 96.0461 30.5425C95.6128 30.9 95.3365 31.3875 95.2174 32.005ZM109.73 29.8275V28.625H111.453V36.3762C111.453 37.6113 111.047 38.5592 110.234 39.22C109.432 39.8808 108.447 40.2113 107.277 40.2113C105.402 40.2113 104.119 39.5558 103.425 38.245L104.937 37.3675C105.359 38.2017 106.15 38.6188 107.309 38.6188C108.067 38.6188 108.658 38.4183 109.08 38.0175C109.514 37.6275 109.73 37.0804 109.73 36.3762V35.385C109.069 36.3275 108.127 36.7988 106.903 36.7988C105.765 36.7988 104.796 36.3925 103.994 35.58C103.203 34.7567 102.808 33.7654 102.808 32.6062C102.808 31.4362 103.203 30.4504 103.994 29.6487C104.785 28.8254 105.754 28.4137 106.903 28.4137C108.127 28.4137 109.069 28.885 109.73 29.8275ZM105.294 34.4262C105.792 34.9137 106.41 35.1575 107.147 35.1575C107.883 35.1575 108.495 34.9137 108.983 34.4262C109.481 33.9387 109.73 33.3321 109.73 32.6062C109.73 31.8804 109.481 31.2737 108.983 30.7862C108.495 30.2987 107.883 30.055 107.147 30.055C106.41 30.055 105.792 30.2987 105.294 30.7862C104.807 31.2737 104.563 31.8804 104.563 32.6062C104.563 33.3321 104.807 33.9387 105.294 34.4262ZM118.975 32.98V28.625H120.73V36.75H118.975V35.71C118.433 36.5442 117.593 36.9613 116.456 36.9613C115.513 36.9613 114.755 36.6633 114.181 36.0675C113.618 35.4608 113.336 34.6429 113.336 33.6137V28.625H115.091V33.435C115.091 34.0417 115.253 34.5075 115.578 34.8325C115.903 35.1575 116.348 35.32 116.911 35.32C117.55 35.32 118.054 35.125 118.422 34.735C118.79 34.3342 118.975 33.7492 118.975 32.98ZM124.537 36.75H122.782V24.8875L124.537 24.8875V36.75ZM133.01 29.7787V28.625H134.765V36.75H133.01V35.58C132.349 36.5008 131.401 36.9613 130.166 36.9613C129.05 36.9613 128.097 36.5496 127.306 35.7262C126.515 34.9029 126.12 33.89 126.12 32.6875C126.12 31.485 126.515 30.4721 127.306 29.6487C128.097 28.8254 129.05 28.4137 130.166 28.4137C131.401 28.4137 132.349 28.8687 133.01 29.7787ZM128.606 34.5562C129.093 35.0437 129.705 35.2875 130.442 35.2875C131.179 35.2875 131.791 35.0437 132.278 34.5562C132.766 34.0579 133.01 33.435 133.01 32.6875C133.01 31.94 132.766 31.3225 132.278 30.835C131.791 30.3367 131.179 30.0875 130.442 30.0875C129.705 30.0875 129.093 30.3367 128.606 30.835C128.118 31.3225 127.875 31.94 127.875 32.6875C127.875 33.4242 128.118 34.0471 128.606 34.5562ZM141.344 28.625V30.315H139.329V34.215C139.329 34.5508 139.405 34.7946 139.556 34.9462C139.708 35.0871 139.93 35.1683 140.223 35.19C140.526 35.2008 140.9 35.1954 141.344 35.1737V36.75C140.001 36.9125 139.036 36.7987 138.451 36.4087C137.866 36.0079 137.574 35.2767 137.574 34.215V30.315H136.079V28.625H137.574V26.87L139.329 26.35V28.625H141.344ZM144.593 27.0812C144.376 27.2979 144.116 27.4062 143.813 27.4062C143.51 27.4062 143.244 27.2979 143.017 27.0812C142.8 26.8537 142.692 26.5883 142.692 26.285C142.692 25.9817 142.8 25.7217 143.017 25.505C143.234 25.2775 143.499 25.1637 143.813 25.1637C144.127 25.1637 144.393 25.2775 144.609 25.505C144.826 25.7217 144.934 25.9817 144.934 26.285C144.934 26.5883 144.821 26.8537 144.593 27.0812ZM144.691 36.75H142.936V28.625H144.691V36.75ZM153.602 35.7262C152.779 36.5496 151.766 36.9613 150.563 36.9613C149.361 36.9613 148.348 36.5496 147.525 35.7262C146.69 34.8921 146.273 33.8792 146.273 32.6875C146.273 31.4958 146.69 30.4829 147.525 29.6487C148.348 28.8254 149.361 28.4137 150.563 28.4137C151.766 28.4137 152.779 28.8254 153.602 29.6487C154.436 30.4829 154.853 31.4958 154.853 32.6875C154.853 33.8792 154.436 34.8921 153.602 35.7262ZM148.028 32.6875C148.028 33.4242 148.272 34.0362 148.76 34.5237C149.247 35.0112 149.848 35.255 150.563 35.255C151.278 35.255 151.88 35.0112 152.367 34.5237C152.855 34.0362 153.098 33.4242 153.098 32.6875C153.098 31.9508 152.855 31.3387 152.367 30.8512C151.88 30.3637 151.278 30.12 150.563 30.12C149.848 30.12 149.247 30.3637 148.76 30.8512C148.272 31.3387 148.028 31.9508 148.028 32.6875ZM160.714 28.4137C161.657 28.4137 162.409 28.7171 162.973 29.3237C163.547 29.9196 163.834 30.7321 163.834 31.7612V36.75H162.079V31.94C162.079 31.3333 161.917 30.8675 161.592 30.5425C161.267 30.2175 160.822 30.055 160.259 30.055C159.62 30.055 159.116 30.2554 158.748 30.6562C158.379 31.0462 158.195 31.6258 158.195 32.395V36.75H156.44V28.625H158.195V29.665C158.737 28.8308 159.577 28.4137 160.714 28.4137Z" fill="white"/>
</g>
<defs>
<clipPath id="clip0_674_777">
<rect width="195" height="65" fill="white"/>
</clipPath>
</defs>
</svg>
