<svg width="195" height="65" viewBox="0 0 195 65" fill="none" xmlns="http://www.w3.org/2000/svg">
<g clip-path="url(#clip0_674_779)">
<rect width="195" height="65" fill="#74A030"/>
<path d="M71.8738 36.9613C70.7797 36.9613 69.848 36.7175 69.0788 36.23C68.3205 35.7317 67.7897 35.0437 67.4863 34.1662L69.0951 33.2237C69.5501 34.5021 70.4926 35.1412 71.9226 35.1412C72.6159 35.1412 73.1413 35.0058 73.4988 34.735C73.8563 34.4642 74.0351 34.1012 74.0351 33.6462C74.0351 33.1912 73.8455 32.8392 73.4663 32.59C73.0872 32.3408 72.4155 32.07 71.4513 31.7775C70.4655 31.485 69.6692 31.1383 69.0626 30.7375C68.3259 30.2175 67.9576 29.4537 67.9576 28.4462C67.9576 27.4387 68.3151 26.6425 69.0301 26.0575C69.7342 25.4617 70.5955 25.1637 71.6138 25.1637C72.513 25.1637 73.3038 25.3858 73.9863 25.83C74.6797 26.2633 75.2105 26.8754 75.5788 27.6662L74.0026 28.5762C73.5259 27.5146 72.7297 26.9837 71.6138 26.9837C71.0722 26.9837 70.6388 27.1137 70.3138 27.3737C69.9888 27.6229 69.8263 27.9642 69.8263 28.3975C69.8263 28.82 69.9888 29.1558 70.3138 29.405C70.6388 29.6433 71.2401 29.8979 72.1176 30.1687C72.6592 30.3529 72.9734 30.4612 73.0601 30.4937C73.2009 30.5371 73.4826 30.6454 73.9051 30.8187C74.2517 30.9596 74.528 31.1112 74.7338 31.2737C75.5788 31.9346 75.9688 32.7146 75.9038 33.6137C75.9038 34.6429 75.5301 35.4608 74.7826 36.0675C74.0567 36.6633 73.0872 36.9613 71.8738 36.9613ZM81.6958 28.625V30.315H79.6808V34.215C79.6808 34.5508 79.7566 34.7946 79.9083 34.9462C80.06 35.0871 80.2821 35.1683 80.5746 35.19C80.8779 35.2008 81.2516 35.1954 81.6958 35.1737V36.75C80.3525 36.9125 79.3883 36.7987 78.8033 36.4087C78.2183 36.0079 77.9258 35.2767 77.9258 34.215V30.315H76.4308V28.625H77.9258V26.87L79.6808 26.35V28.625H81.6958ZM89.3893 29.7787V28.625H91.1443V36.75H89.3893V35.58C88.7285 36.5008 87.7805 36.9613 86.5455 36.9613C85.4297 36.9613 84.4764 36.5496 83.6855 35.7262C82.8947 34.9029 82.4993 33.89 82.4993 32.6875C82.4993 31.485 82.8947 30.4721 83.6855 29.6487C84.4764 28.8254 85.4297 28.4137 86.5455 28.4137C87.7805 28.4137 88.7285 28.8687 89.3893 29.7787ZM84.9855 34.5562C85.473 35.0437 86.0851 35.2875 86.8218 35.2875C87.5585 35.2875 88.1705 35.0437 88.658 34.5562C89.1455 34.0579 89.3893 33.435 89.3893 32.6875C89.3893 31.94 89.1455 31.3225 88.658 30.835C88.1705 30.3367 87.5585 30.0875 86.8218 30.0875C86.0851 30.0875 85.473 30.3367 84.9855 30.835C84.498 31.3225 84.2543 31.94 84.2543 32.6875C84.2543 33.4242 84.498 34.0471 84.9855 34.5562ZM102.062 28.4137C102.983 28.4137 103.725 28.7117 104.289 29.3075C104.852 29.9033 105.134 30.705 105.134 31.7125V36.75H103.379V31.8262C103.379 31.2737 103.238 30.8404 102.956 30.5262C102.674 30.2121 102.29 30.055 101.802 30.055C101.25 30.055 100.817 30.2392 100.502 30.6075C100.188 30.965 100.031 31.4958 100.031 32.2V36.75H98.2761V31.8262C98.2761 31.2629 98.1407 30.8296 97.8699 30.5262C97.6099 30.2121 97.2361 30.055 96.7486 30.055C96.207 30.055 95.7682 30.2392 95.4324 30.6075C95.1074 30.9758 94.9449 31.5067 94.9449 32.2V36.75H93.1899V28.625H94.9449V29.6C95.4649 28.8092 96.2395 28.4137 97.2686 28.4137C98.3086 28.4137 99.0778 28.8417 99.5761 29.6975C100.107 28.8417 100.936 28.4137 102.062 28.4137ZM108.669 27.0812C108.453 27.2979 108.193 27.4062 107.889 27.4062C107.586 27.4062 107.321 27.2979 107.093 27.0812C106.876 26.8537 106.768 26.5883 106.768 26.285C106.768 25.9817 106.876 25.7217 107.093 25.505C107.31 25.2775 107.575 25.1637 107.889 25.1637C108.204 25.1637 108.469 25.2775 108.686 25.505C108.902 25.7217 109.011 25.9817 109.011 26.285C109.011 26.5883 108.897 26.8537 108.669 27.0812ZM108.767 36.75H107.012V28.625H108.767V36.75ZM115.078 28.4137C116.021 28.4137 116.774 28.7171 117.337 29.3237C117.911 29.9196 118.198 30.7321 118.198 31.7612V36.75H116.443V31.94C116.443 31.3333 116.281 30.8675 115.956 30.5425C115.631 30.2175 115.187 30.055 114.623 30.055C113.984 30.055 113.48 30.2554 113.112 30.6562C112.744 31.0462 112.56 31.6258 112.56 32.395V36.75H110.805V28.625H112.56V29.665C113.101 28.8308 113.941 28.4137 115.078 28.4137ZM126.523 29.7787V28.625H128.278V36.75H126.523V35.58C125.862 36.5008 124.914 36.9613 123.679 36.9613C122.563 36.9613 121.61 36.5496 120.819 35.7262C120.028 34.9029 119.633 33.89 119.633 32.6875C119.633 31.485 120.028 30.4721 120.819 29.6487C121.61 28.8254 122.563 28.4137 123.679 28.4137C124.914 28.4137 125.862 28.8687 126.523 29.7787ZM122.119 34.5562C122.607 35.0437 123.219 35.2875 123.956 35.2875C124.692 35.2875 125.304 35.0437 125.792 34.5562C126.279 34.0579 126.523 33.435 126.523 32.6875C126.523 31.94 126.279 31.3225 125.792 30.835C125.304 30.3367 124.692 30.0875 123.956 30.0875C123.219 30.0875 122.607 30.3367 122.119 30.835C121.632 31.3225 121.388 31.94 121.388 32.6875C121.388 33.4242 121.632 34.0471 122.119 34.5562Z" fill="white"/>
</g>
<defs>
<clipPath id="clip0_674_779">
<rect width="195" height="65" fill="white"/>
</clipPath>
</defs>
</svg>
