<svg width="130" height="130" viewBox="0 0 130 130" fill="none" xmlns="http://www.w3.org/2000/svg">
<g clip-path="url(#clip0_674_772)">
<circle cx="65" cy="65" r="65" fill="#74A030"/>
<path d="M49.3354 59.4255C47.4519 59.4255 46.1519 58.686 45.4354 57.2069L47.1514 56.2015C47.5559 57.0566 48.2897 57.4842 49.3528 57.4842C50.0461 57.4842 50.5777 57.3166 50.9474 56.9815C51.3288 56.6349 51.5194 56.1495 51.5194 55.5255V47.0669H53.5128V55.5255C53.5128 56.7735 53.1199 57.7384 52.3341 58.4202C51.5599 59.0904 50.5603 59.4255 49.3354 59.4255ZM62.9351 58.1082C62.0568 58.9864 60.9764 59.4255 59.6937 59.4255C58.4111 59.4255 57.3306 58.9864 56.4524 58.1082C55.5626 57.2184 55.1177 56.138 55.1177 54.8669C55.1177 53.5958 55.5626 52.5153 56.4524 51.6255C57.3306 50.7473 58.4111 50.3082 59.6937 50.3082C60.9764 50.3082 62.0568 50.7473 62.9351 51.6255C63.8248 52.5153 64.2697 53.5958 64.2697 54.8669C64.2697 56.138 63.8248 57.2184 62.9351 58.1082ZM56.9897 54.8669C56.9897 55.6526 57.2497 56.3055 57.7697 56.8255C58.2897 57.3455 58.9311 57.6055 59.6937 57.6055C60.4564 57.6055 61.0977 57.3455 61.6177 56.8255C62.1377 56.3055 62.3977 55.6526 62.3977 54.8669C62.3977 54.0811 62.1377 53.4282 61.6177 52.9082C61.0977 52.3882 60.4564 52.1282 59.6937 52.1282C58.9311 52.1282 58.2897 52.3882 57.7697 52.9082C57.2497 53.4282 56.9897 54.0811 56.9897 54.8669ZM67.7304 48.8869C67.4993 49.118 67.222 49.2335 66.8984 49.2335C66.5749 49.2335 66.2918 49.118 66.0491 48.8869C65.818 48.6442 65.7024 48.3611 65.7024 48.0375C65.7024 47.714 65.818 47.4366 66.0491 47.2055C66.2802 46.9629 66.5633 46.8415 66.8984 46.8415C67.2336 46.8415 67.5167 46.9629 67.7478 47.2055C67.9789 47.4366 68.0944 47.714 68.0944 48.0375C68.0944 48.3611 67.9731 48.6442 67.7304 48.8869ZM67.8344 59.2002H65.9624V50.5335H67.8344V59.2002ZM74.5667 50.3082C75.572 50.3082 76.3751 50.6318 76.976 51.2789C77.5885 51.9144 77.8947 52.7811 77.8947 53.8789V59.2002H76.0227V54.0695C76.0227 53.4224 75.8493 52.9255 75.5027 52.5789C75.156 52.2322 74.6822 52.0589 74.0813 52.0589C73.3996 52.0589 72.8622 52.2726 72.4693 52.7002C72.0765 53.1162 71.88 53.7344 71.88 54.5549V59.2002H70.008V50.5335H71.88V51.6429C72.4578 50.7531 73.3533 50.3082 74.5667 50.3082ZM84.7464 50.5335V52.3362H82.597V56.4962C82.597 56.8544 82.6779 57.1144 82.8397 57.2762C83.0015 57.4264 83.2384 57.5131 83.5504 57.5362C83.8739 57.5478 84.2726 57.542 84.7464 57.5189V59.2002C83.3135 59.3735 82.285 59.2522 81.661 58.8362C81.037 58.4086 80.725 57.6286 80.725 56.4962V52.3362H79.1304V50.5335H80.725V48.6615L82.597 48.1069V50.5335H84.7464ZM47.0147 73.0415V68.0669H49.0081V80.2002H47.0147V74.9482H41.8147V80.2002H39.8214V68.0669H41.8147V73.0415H47.0147ZM59.6841 76.6642H52.7854C52.9241 77.3113 53.2361 77.814 53.7214 78.1722C54.2183 78.5304 54.8307 78.7095 55.5587 78.7095C56.5409 78.7095 57.2863 78.3513 57.7947 77.6349L59.3374 78.5362C58.4938 79.7958 57.2285 80.4255 55.5414 80.4255C54.1432 80.4255 53.0049 79.998 52.1267 79.1429C51.2601 78.2762 50.8267 77.1842 50.8267 75.8669C50.8267 74.5842 51.2543 73.5038 52.1094 72.6255C52.9529 71.7473 54.0507 71.3082 55.4027 71.3082C56.6623 71.3082 57.7023 71.7531 58.5227 72.6429C59.3432 73.5326 59.7534 74.6131 59.7534 75.8842C59.7534 76.1153 59.7303 76.3753 59.6841 76.6642ZM52.7681 75.1389H57.8641C57.7369 74.4571 57.4481 73.9313 56.9974 73.5615C56.5583 73.1918 56.0209 73.0069 55.3854 73.0069C54.6921 73.0069 54.1143 73.1975 53.6521 73.5789C53.1898 73.9602 52.8952 74.4802 52.7681 75.1389ZM68.2138 72.7642V71.5335H70.0858V80.2002H68.2138V78.9522C67.5089 79.9344 66.4978 80.4255 65.1805 80.4255C63.9903 80.4255 62.9734 79.9864 62.1298 79.1082C61.2863 78.23 60.8645 77.1495 60.8645 75.8669C60.8645 74.5842 61.2863 73.5038 62.1298 72.6255C62.9734 71.7473 63.9903 71.3082 65.1805 71.3082C66.4978 71.3082 67.5089 71.7935 68.2138 72.7642ZM63.5165 77.8602C64.0365 78.3802 64.6894 78.6402 65.4751 78.6402C66.2609 78.6402 66.9138 78.3802 67.4338 77.8602C67.9538 77.3286 68.2138 76.6642 68.2138 75.8669C68.2138 75.0695 67.9538 74.4109 67.4338 73.8909C66.9138 73.3593 66.2609 73.0935 65.4751 73.0935C64.6894 73.0935 64.0365 73.3593 63.5165 73.8909C62.9965 74.4109 62.7365 75.0695 62.7365 75.8669C62.7365 76.6526 62.9965 77.3171 63.5165 77.8602ZM74.1398 80.2002H72.2678V67.5469H74.1398V80.2002ZM81.1494 71.5335V73.3362H79V77.4962C79 77.8544 79.0809 78.1144 79.2427 78.2762C79.4045 78.4264 79.6414 78.5131 79.9534 78.5362C80.2769 78.5478 80.6756 78.542 81.1494 78.5189V80.2002C79.7165 80.3735 78.688 80.2522 78.064 79.8362C77.44 79.4086 77.128 78.6286 77.128 77.4962V73.3362H75.5334V71.5335H77.128V69.6615L79 69.1069V71.5335H81.1494ZM87.4059 71.3082C88.4112 71.3082 89.2143 71.6318 89.8152 72.2789C90.4277 72.9144 90.7339 73.7811 90.7339 74.8789V80.2002H88.8619V75.0695C88.8619 74.4224 88.6885 73.9255 88.3419 73.5789C87.9952 73.2322 87.5214 73.0589 86.9205 73.0589C86.2388 73.0589 85.7014 73.2726 85.3085 73.7002C84.9157 74.1162 84.7192 74.7344 84.7192 75.5549V80.2002H82.8472V68.0669H84.7192V72.6429C85.297 71.7531 86.1925 71.3082 87.4059 71.3082Z" fill="white"/>
</g>
<defs>
<clipPath id="clip0_674_772">
<rect width="130" height="130" fill="white"/>
</clipPath>
</defs>
</svg>
