<svg width="195" height="65" viewBox="0 0 195 65" fill="none" xmlns="http://www.w3.org/2000/svg">
<g clip-path="url(#clip0_674_776)">
<rect width="195" height="65" fill="#74A030"/>
<path d="M61.0924 31.8912V34.9625H66.1299V36.75H59.2237V25.375H66.0487V27.1625H61.0924V30.12H65.6424V31.8912H61.0924ZM72.0006 28.4137C72.9431 28.4137 73.696 28.7171 74.2594 29.3237C74.8335 29.9196 75.1206 30.7321 75.1206 31.7612V36.75H73.3656V31.94C73.3656 31.3333 73.2031 30.8675 72.8781 30.5425C72.5531 30.2175 72.109 30.055 71.5456 30.055C70.9065 30.055 70.4027 30.2554 70.0344 30.6562C69.666 31.0462 69.4819 31.6258 69.4819 32.395V36.75H67.7269V28.625H69.4819V29.665C70.0235 28.8308 70.8631 28.4137 72.0006 28.4137ZM83.4453 29.7787V25.375H85.2003V36.75H83.4453V35.58C82.7845 36.5008 81.8366 36.9613 80.6016 36.9613C79.4857 36.9613 78.5324 36.5496 77.7416 35.7262C76.9507 34.9029 76.5553 33.89 76.5553 32.6875C76.5553 31.485 76.9507 30.4721 77.7416 29.6487C78.5324 28.8254 79.4857 28.4137 80.6016 28.4137C81.8366 28.4137 82.7845 28.8687 83.4453 29.7787ZM79.0416 34.5562C79.5291 35.0437 80.1412 35.2875 80.8778 35.2875C81.6145 35.2875 82.2266 35.0437 82.7141 34.5562C83.2016 34.0579 83.4453 33.435 83.4453 32.6875C83.4453 31.94 83.2016 31.3225 82.7141 30.835C82.2266 30.3367 81.6145 30.0875 80.8778 30.0875C80.1412 30.0875 79.5291 30.3367 79.0416 30.835C78.5541 31.3225 78.3103 31.94 78.3103 32.6875C78.3103 33.4242 78.5541 34.0471 79.0416 34.5562ZM92.7222 32.98V28.625H94.4772V36.75H92.7222V35.71C92.1805 36.5442 91.3409 36.9613 90.2034 36.9613C89.2609 36.9613 88.5026 36.6633 87.9284 36.0675C87.3651 35.4608 87.0834 34.6429 87.0834 33.6137V28.625H88.8384V33.435C88.8384 34.0417 89.0009 34.5075 89.3259 34.8325C89.6509 35.1575 90.0951 35.32 90.6584 35.32C91.2976 35.32 91.8013 35.125 92.1697 34.735C92.538 34.3342 92.7222 33.7492 92.7222 32.98ZM98.2844 28.625V29.99C98.7285 28.9825 99.5627 28.4787 100.787 28.4787V30.38C100.126 30.3367 99.541 30.4992 99.0319 30.8675C98.5335 31.225 98.2844 31.8208 98.2844 32.655V36.75H96.5294V28.625L98.2844 28.625ZM108.138 29.7787V28.625H109.893V36.75H108.138V35.58C107.477 36.5008 106.529 36.9613 105.294 36.9613C104.178 36.9613 103.225 36.5496 102.434 35.7262C101.643 34.9029 101.248 33.89 101.248 32.6875C101.248 31.485 101.643 30.4721 102.434 29.6487C103.225 28.8254 104.178 28.4137 105.294 28.4137C106.529 28.4137 107.477 28.8687 108.138 29.7787ZM103.734 34.5562C104.221 35.0437 104.834 35.2875 105.57 35.2875C106.307 35.2875 106.919 35.0437 107.406 34.5562C107.894 34.0579 108.138 33.435 108.138 32.6875C108.138 31.94 107.894 31.3225 107.406 30.835C106.919 30.3367 106.307 30.0875 105.57 30.0875C104.834 30.0875 104.221 30.3367 103.734 30.835C103.246 31.3225 103.003 31.94 103.003 32.6875C103.003 33.4242 103.246 34.0471 103.734 34.5562ZM116.212 28.4137C117.155 28.4137 117.907 28.7171 118.471 29.3237C119.045 29.9196 119.332 30.7321 119.332 31.7612V36.75H117.577V31.94C117.577 31.3333 117.415 30.8675 117.09 30.5425C116.765 30.2175 116.32 30.055 115.757 30.055C115.118 30.055 114.614 30.2554 114.246 30.6562C113.877 31.0462 113.693 31.6258 113.693 32.395V36.75H111.938V28.625H113.693V29.665C114.235 28.8308 115.075 28.4137 116.212 28.4137ZM125.057 36.9613C123.833 36.9613 122.809 36.5496 121.985 35.7262C121.173 34.8921 120.767 33.8792 120.767 32.6875C120.767 31.4742 121.173 30.4612 121.985 29.6487C122.809 28.8254 123.833 28.4137 125.057 28.4137C125.848 28.4137 126.568 28.6033 127.218 28.9825C127.868 29.3617 128.355 29.8708 128.68 30.51L127.169 31.3875C126.985 30.9975 126.703 30.6942 126.324 30.4775C125.956 30.25 125.528 30.1362 125.04 30.1362C124.325 30.1362 123.724 30.38 123.237 30.8675C122.76 31.3658 122.522 31.9725 122.522 32.6875C122.522 33.4025 122.76 34.0092 123.237 34.5075C123.724 34.995 124.325 35.2387 125.04 35.2387C125.517 35.2387 125.945 35.1304 126.324 34.9137C126.714 34.6862 127.007 34.3775 127.202 33.9875L128.713 34.8487C128.366 35.4987 127.863 36.0133 127.202 36.3925C126.552 36.7717 125.837 36.9613 125.057 36.9613ZM137.703 33.435L131.236 33.435C131.366 34.0417 131.658 34.5129 132.113 34.8487C132.579 35.1846 133.153 35.3525 133.836 35.3525C134.757 35.3525 135.455 35.0167 135.932 34.345L137.378 35.19C136.587 36.3708 135.401 36.9613 133.82 36.9613C132.509 36.9613 131.442 36.5604 130.618 35.7587C129.806 34.9462 129.4 33.9225 129.4 32.6875C129.4 31.485 129.8 30.4721 130.602 29.6487C131.393 28.8254 132.422 28.4137 133.69 28.4137C134.87 28.4137 135.845 28.8308 136.615 29.665C137.384 30.4992 137.768 31.5121 137.768 32.7037C137.768 32.9204 137.747 33.1642 137.703 33.435ZM131.22 32.005H135.997C135.878 31.3658 135.607 30.8729 135.185 30.5262C134.773 30.1796 134.269 30.0062 133.673 30.0062C133.023 30.0062 132.482 30.185 132.048 30.5425C131.615 30.9 131.339 31.3875 131.22 32.005Z" fill="white"/>
</g>
<defs>
<clipPath id="clip0_674_776">
<rect width="195" height="65" fill="white"/>
</clipPath>
</defs>
</svg>
