<svg width="195" height="65" viewBox="0 0 195 65" fill="none" xmlns="http://www.w3.org/2000/svg">
<g clip-path="url(#clip0_674_775)">
<rect width="195" height="65" fill="#74A030"/>
<path d="M74.9014 31.8912V34.9625H79.9389V36.75H73.0326V25.375H79.8576V27.1625H74.9014V30.12H79.4514V31.8912H74.9014ZM85.8096 28.4137C86.7521 28.4137 87.505 28.7171 88.0683 29.3237C88.6425 29.9196 88.9296 30.7321 88.9296 31.7612V36.75H87.1746V31.94C87.1746 31.3333 87.0121 30.8675 86.6871 30.5425C86.3621 30.2175 85.9179 30.055 85.3546 30.055C84.7154 30.055 84.2117 30.2554 83.8433 30.6562C83.475 31.0462 83.2908 31.6258 83.2908 32.395V36.75H81.5358V28.625H83.2908V29.665C83.8325 28.8308 84.6721 28.4137 85.8096 28.4137ZM98.668 33.435H92.2005C92.3305 34.0417 92.623 34.5129 93.078 34.8487C93.5439 35.1846 94.118 35.3525 94.8005 35.3525C95.7214 35.3525 96.4201 35.0167 96.8968 34.345L98.343 35.19C97.5522 36.3708 96.3659 36.9613 94.7843 36.9613C93.4734 36.9613 92.4064 36.5604 91.583 35.7587C90.7705 34.9462 90.3643 33.9225 90.3643 32.6875C90.3643 31.485 90.7651 30.4721 91.5668 29.6487C92.3576 28.8254 93.3868 28.4137 94.6543 28.4137C95.8351 28.4137 96.8101 28.8308 97.5793 29.665C98.3484 30.4992 98.733 31.5121 98.733 32.7037C98.733 32.9204 98.7114 33.1642 98.668 33.435ZM92.1843 32.005H96.9618C96.8426 31.3658 96.5718 30.8729 96.1493 30.5262C95.7376 30.1796 95.2339 30.0062 94.638 30.0062C93.988 30.0062 93.4464 30.185 93.013 30.5425C92.5797 30.9 92.3034 31.3875 92.1843 32.005ZM102.032 28.625V29.99C102.476 28.9825 103.311 28.4787 104.535 28.4787V30.38C103.874 30.3367 103.289 30.4992 102.78 30.8675C102.281 31.225 102.032 31.8208 102.032 32.655V36.75H100.277V28.625H102.032ZM111.918 29.8275V28.625H113.641V36.3762C113.641 37.6113 113.234 38.5592 112.422 39.22C111.62 39.8808 110.634 40.2113 109.464 40.2113C107.59 40.2113 106.306 39.5558 105.613 38.245L107.124 37.3675C107.547 38.2017 108.338 38.6188 109.497 38.6188C110.255 38.6188 110.846 38.4183 111.268 38.0175C111.701 37.6275 111.918 37.0804 111.918 36.3762V35.385C111.257 36.3275 110.315 36.7988 109.091 36.7988C107.953 36.7988 106.984 36.3925 106.182 35.58C105.391 34.7567 104.996 33.7654 104.996 32.6062C104.996 31.4362 105.391 30.4504 106.182 29.6487C106.973 28.8254 107.942 28.4137 109.091 28.4137C110.315 28.4137 111.257 28.885 111.918 29.8275ZM107.482 34.4262C107.98 34.9137 108.598 35.1575 109.334 35.1575C110.071 35.1575 110.683 34.9137 111.171 34.4262C111.669 33.9387 111.918 33.3321 111.918 32.6062C111.918 31.8804 111.669 31.2737 111.171 30.7862C110.683 30.2987 110.071 30.055 109.334 30.055C108.598 30.055 107.98 30.2987 107.482 30.7862C106.994 31.2737 106.751 31.8804 106.751 32.6062C106.751 33.3321 106.994 33.9387 107.482 34.4262ZM119.082 34.5237L121.162 28.625H123.031L119.911 37.01C119.131 39.1117 117.81 40.1083 115.946 40V38.3588C116.488 38.3913 116.927 38.2775 117.262 38.0175C117.598 37.7575 117.88 37.3404 118.107 36.7663L118.189 36.6037L114.744 28.625H116.661L119.082 34.5237Z" fill="white"/>
</g>
<defs>
<clipPath id="clip0_674_775">
<rect width="195" height="65" fill="white"/>
</clipPath>
</defs>
</svg>
