<svg width="195" height="65" viewBox="0 0 195 65" fill="none" xmlns="http://www.w3.org/2000/svg">
<g clip-path="url(#clip0_674_774)">
<rect width="195" height="65" fill="#74A030"/>
<path d="M78.9703 25.375V27.1625H74.1765V30.3475H78.8078V32.135H74.1765V36.75H72.3078V25.375H78.9703ZM82.3597 36.75H80.6047V24.8875H82.3597V36.75ZM89.8737 32.98V28.625H91.6287V36.75H89.8737V35.71C89.332 36.5442 88.4924 36.9613 87.3549 36.9613C86.4124 36.9613 85.6541 36.6633 85.0799 36.0675C84.5166 35.4608 84.2349 34.6429 84.2349 33.6137V28.625H85.9899V33.435C85.9899 34.0417 86.1524 34.5075 86.4774 34.8325C86.8024 35.1575 87.2466 35.32 87.8099 35.32C88.4491 35.32 88.9528 35.125 89.3212 34.735C89.6895 34.3342 89.8737 33.7492 89.8737 32.98ZM95.3384 27.0812C95.1217 27.2979 94.8617 27.4062 94.5584 27.4062C94.255 27.4062 93.9896 27.2979 93.7621 27.0812C93.5454 26.8537 93.4371 26.5883 93.4371 26.285C93.4371 25.9817 93.5454 25.7217 93.7621 25.505C93.9788 25.2775 94.2442 25.1637 94.5584 25.1637C94.8725 25.1637 95.1379 25.2775 95.3546 25.505C95.5713 25.7217 95.6796 25.9817 95.6796 26.285C95.6796 26.5883 95.5659 26.8537 95.3384 27.0812ZM95.4359 36.75H93.6809V28.625H95.4359V36.75ZM103.909 29.7787V25.375H105.664V36.75H103.909V35.58C103.248 36.5008 102.3 36.9613 101.065 36.9613C99.949 36.9613 98.9957 36.5496 98.2048 35.7262C97.414 34.9029 97.0186 33.89 97.0186 32.6875C97.0186 31.485 97.414 30.4721 98.2048 29.6487C98.9957 28.8254 99.949 28.4137 101.065 28.4137C102.3 28.4137 103.248 28.8687 103.909 29.7787ZM99.5048 34.5562C99.9923 35.0437 100.604 35.2875 101.341 35.2875C102.078 35.2875 102.69 35.0437 103.177 34.5562C103.665 34.0579 103.909 33.435 103.909 32.6875C103.909 31.94 103.665 31.3225 103.177 30.835C102.69 30.3367 102.078 30.0875 101.341 30.0875C100.604 30.0875 99.9923 30.3367 99.5048 30.835C99.0173 31.3225 98.7736 31.94 98.7736 32.6875C98.7736 33.4242 99.0173 34.0471 99.5048 34.5562ZM109.367 27.0812C109.15 27.2979 108.89 27.4062 108.587 27.4062C108.283 27.4062 108.018 27.2979 107.79 27.0812C107.574 26.8537 107.465 26.5883 107.465 26.285C107.465 25.9817 107.574 25.7217 107.79 25.505C108.007 25.2775 108.273 25.1637 108.587 25.1637C108.901 25.1637 109.166 25.2775 109.383 25.505C109.6 25.7217 109.708 25.9817 109.708 26.285C109.708 26.5883 109.594 26.8537 109.367 27.0812ZM109.464 36.75H107.709V28.625H109.464V36.75ZM116.036 28.625V30.315H114.021V34.215C114.021 34.5508 114.096 34.7946 114.248 34.9462C114.4 35.0871 114.622 35.1683 114.914 35.19C115.218 35.2008 115.591 35.1954 116.036 35.1737V36.75C114.692 36.9125 113.728 36.7987 113.143 36.4087C112.558 36.0079 112.266 35.2767 112.266 34.215V30.315H110.771V28.625H112.266V26.87L114.021 26.35V28.625H116.036ZM121.182 34.5237L123.262 28.625H125.131L122.011 37.01C121.231 39.1117 119.909 40.1083 118.046 40V38.3588C118.588 38.3913 119.026 38.2775 119.362 38.0175C119.698 37.7575 119.98 37.3404 120.207 36.7663L120.289 36.6037L116.844 28.625H118.761L121.182 34.5237Z" fill="white"/>
</g>
<defs>
<clipPath id="clip0_674_774">
<rect width="195" height="65" fill="white"/>
</clipPath>
</defs>
</svg>
