<svg width="195" height="65" viewBox="0 0 195 65" fill="none" xmlns="http://www.w3.org/2000/svg">
<g clip-path="url(#clip0_674_778)">
<rect width="195" height="65" fill="#74A030"/>
<path d="M50.8863 25.375H55.0788C56.1513 25.375 57.045 25.7325 57.76 26.4475C58.4859 27.1625 58.8488 28.0508 58.8488 29.1125C58.8488 30.1633 58.4859 31.0517 57.76 31.7775C57.045 32.4925 56.1513 32.85 55.0788 32.85H52.755V36.75H50.8863V25.375ZM52.755 31.095H55.0788C55.6313 31.095 56.0863 30.9108 56.4438 30.5425C56.8013 30.1633 56.98 29.6867 56.98 29.1125C56.98 28.5383 56.8013 28.0671 56.4438 27.6987C56.0863 27.3196 55.6313 27.13 55.0788 27.13H52.755V31.095ZM67.635 33.435H61.1675C61.2975 34.0417 61.59 34.5129 62.045 34.8487C62.5108 35.1846 63.085 35.3525 63.7675 35.3525C64.6883 35.3525 65.387 35.0167 65.8637 34.345L67.31 35.19C66.5191 36.3708 65.3329 36.9613 63.7512 36.9613C62.4404 36.9613 61.3733 36.5604 60.55 35.7587C59.7375 34.9462 59.3312 33.9225 59.3312 32.6875C59.3312 31.485 59.732 30.4721 60.5337 29.6487C61.3245 28.8254 62.3537 28.4137 63.6212 28.4137C64.802 28.4137 65.777 28.8308 66.5462 29.665C67.3154 30.4992 67.7 31.5121 67.7 32.7037C67.7 32.9204 67.6783 33.1642 67.635 33.435ZM61.1512 32.005H65.9287C65.8095 31.3658 65.5387 30.8729 65.1162 30.5262C64.7045 30.1796 64.2008 30.0062 63.605 30.0062C62.955 30.0062 62.4133 30.185 61.98 30.5425C61.5466 30.9 61.2704 31.3875 61.1512 32.005ZM70.9992 28.625V29.99C71.4434 28.9825 72.2775 28.4787 73.5017 28.4787V30.38C72.8409 30.3367 72.2559 30.4992 71.7467 30.8675C71.2484 31.225 70.9992 31.8208 70.9992 32.655V36.75H69.2442V28.625H70.9992ZM79.0559 25.1637V26.8537C77.7776 26.7454 77.1384 27.2817 77.1384 28.4625V28.625H79.0559V30.315H77.1384V36.75H75.3834V30.315H74.1484V28.625H75.3834V28.4625C75.3834 27.3358 75.6976 26.4854 76.3259 25.9112C76.9542 25.3371 77.8642 25.0879 79.0559 25.1637ZM86.5757 35.7262C85.7524 36.5496 84.7395 36.9613 83.537 36.9613C82.3345 36.9613 81.3216 36.5496 80.4982 35.7262C79.6641 34.8921 79.247 33.8792 79.247 32.6875C79.247 31.4958 79.6641 30.4829 80.4982 29.6487C81.3216 28.8254 82.3345 28.4137 83.537 28.4137C84.7395 28.4137 85.7524 28.8254 86.5757 29.6487C87.4099 30.4829 87.827 31.4958 87.827 32.6875C87.827 33.8792 87.4099 34.8921 86.5757 35.7262ZM81.002 32.6875C81.002 33.4242 81.2457 34.0362 81.7332 34.5237C82.2207 35.0112 82.822 35.255 83.537 35.255C84.252 35.255 84.8532 35.0112 85.3407 34.5237C85.8282 34.0362 86.072 33.4242 86.072 32.6875C86.072 31.9508 85.8282 31.3387 85.3407 30.8512C84.8532 30.3637 84.252 30.12 83.537 30.12C82.822 30.12 82.2207 30.3637 81.7332 30.8512C81.2457 31.3387 81.002 31.9508 81.002 32.6875ZM91.1689 28.625V29.99C91.6131 28.9825 92.4472 28.4787 93.6714 28.4787V30.38C93.0106 30.3367 92.4256 30.4992 91.9164 30.8675C91.4181 31.225 91.1689 31.8208 91.1689 32.655V36.75H89.4139V28.625L91.1689 28.625ZM103.841 28.4137C104.761 28.4137 105.504 28.7117 106.067 29.3075C106.63 29.9033 106.912 30.705 106.912 31.7125V36.75H105.157V31.8262C105.157 31.2737 105.016 30.8404 104.734 30.5262C104.453 30.2121 104.068 30.055 103.581 30.055C103.028 30.055 102.595 30.2392 102.281 30.6075C101.966 30.965 101.809 31.4958 101.809 32.2V36.75H100.054V31.8262C100.054 31.2629 99.9189 30.8296 99.6481 30.5262C99.3881 30.2121 99.0143 30.055 98.5268 30.055C97.9852 30.055 97.5464 30.2392 97.2106 30.6075C96.8856 30.9758 96.7231 31.5067 96.7231 32.2V36.75H94.9681V28.625H96.7231V29.6C97.2431 28.8092 98.0177 28.4137 99.0468 28.4137C100.087 28.4137 100.856 28.8417 101.354 29.6975C101.885 28.8417 102.714 28.4137 103.841 28.4137ZM115.225 29.7787V28.625H116.98V36.75H115.225V35.58C114.564 36.5008 113.616 36.9613 112.381 36.9613C111.266 36.9613 110.312 36.5496 109.521 35.7262C108.731 34.9029 108.335 33.89 108.335 32.6875C108.335 31.485 108.731 30.4721 109.521 29.6487C110.312 28.8254 111.266 28.4137 112.381 28.4137C113.616 28.4137 114.564 28.8687 115.225 29.7787ZM110.821 34.5562C111.309 35.0437 111.921 35.2875 112.658 35.2875C113.394 35.2875 114.006 35.0437 114.494 34.5562C114.981 34.0579 115.225 33.435 115.225 32.6875C115.225 31.94 114.981 31.3225 114.494 30.835C114.006 30.3367 113.394 30.0875 112.658 30.0875C111.921 30.0875 111.309 30.3367 110.821 30.835C110.334 31.3225 110.09 31.94 110.09 32.6875C110.09 33.4242 110.334 34.0471 110.821 34.5562ZM123.299 28.4137C124.242 28.4137 124.995 28.7171 125.558 29.3237C126.132 29.9196 126.419 30.7321 126.419 31.7612V36.75H124.664V31.94C124.664 31.3333 124.502 30.8675 124.177 30.5425C123.852 30.2175 123.408 30.055 122.844 30.055C122.205 30.055 121.702 30.2554 121.333 30.6562C120.965 31.0462 120.781 31.6258 120.781 32.395V36.75H119.026V28.625H120.781V29.665C121.322 28.8308 122.162 28.4137 123.299 28.4137ZM132.144 36.9613C130.92 36.9613 129.896 36.5496 129.073 35.7262C128.26 34.8921 127.854 33.8792 127.854 32.6875C127.854 31.4742 128.26 30.4612 129.073 29.6487C129.896 28.8254 130.92 28.4137 132.144 28.4137C132.935 28.4137 133.655 28.6033 134.305 28.9825C134.955 29.3617 135.443 29.8708 135.768 30.51L134.257 31.3875C134.072 30.9975 133.791 30.6942 133.412 30.4775C133.043 30.25 132.615 30.1362 132.128 30.1362C131.413 30.1362 130.812 30.38 130.324 30.8675C129.847 31.3658 129.609 31.9725 129.609 32.6875C129.609 33.4025 129.847 34.0092 130.324 34.5075C130.812 34.995 131.413 35.2387 132.128 35.2387C132.605 35.2387 133.032 35.1304 133.412 34.9137C133.802 34.6862 134.094 34.3775 134.289 33.9875L135.8 34.8487C135.454 35.4987 134.95 36.0133 134.289 36.3925C133.639 36.7717 132.924 36.9613 132.144 36.9613ZM144.791 33.435H138.323C138.453 34.0417 138.746 34.5129 139.201 34.8487C139.667 35.1846 140.241 35.3525 140.923 35.3525C141.844 35.3525 142.543 35.0167 143.019 34.345L144.466 35.19C143.675 36.3708 142.489 36.9613 140.907 36.9613C139.596 36.9613 138.529 36.5604 137.706 35.7587C136.893 34.9462 136.487 33.9225 136.487 32.6875C136.487 31.485 136.888 30.4721 137.689 29.6487C138.48 28.8254 139.509 28.4137 140.777 28.4137C141.958 28.4137 142.933 28.8308 143.702 29.665C144.471 30.4992 144.856 31.5121 144.856 32.7037C144.856 32.9204 144.834 33.1642 144.791 33.435ZM138.307 32.005H143.084C142.965 31.3658 142.694 30.8729 142.272 30.5262C141.86 30.1796 141.357 30.0062 140.761 30.0062C140.111 30.0062 139.569 30.185 139.136 30.5425C138.702 30.9 138.426 31.3875 138.307 32.005Z" fill="white"/>
</g>
<defs>
<clipPath id="clip0_674_778">
<rect width="195" height="65" fill="white"/>
</clipPath>
</defs>
</svg>
