<svg width="130" height="130" viewBox="0 0 130 130" fill="none" xmlns="http://www.w3.org/2000/svg">
<g clip-path="url(#clip0_674_773)">
<circle cx="65" cy="65" r="65" fill="#74A030"/>
<path d="M30.0812 69.5996V57.4663H32.0745V69.5996H30.0812ZM43.8418 60.7076C44.824 60.7076 45.6156 61.0254 46.2165 61.6609C46.8174 62.2965 47.1178 63.1516 47.1178 64.2263V69.5996H45.2458V64.3476C45.2458 63.7583 45.0956 63.2961 44.7951 62.9609C44.4947 62.6258 44.0845 62.4583 43.5645 62.4583C42.9751 62.4583 42.5129 62.6547 42.1778 63.0476C41.8427 63.4289 41.6751 63.9952 41.6751 64.7463V69.5996H39.8031V64.3476C39.8031 63.7467 39.6587 63.2845 39.3698 62.9609C39.0925 62.6258 38.6938 62.4583 38.1738 62.4583C37.596 62.4583 37.128 62.6547 36.7698 63.0476C36.4231 63.4405 36.2498 64.0067 36.2498 64.7463V69.5996H34.3778V60.9329H36.2498V61.9729C36.8045 61.1294 37.6307 60.7076 38.7285 60.7076C39.8378 60.7076 40.6582 61.1641 41.1898 62.0769C41.756 61.1641 42.64 60.7076 43.8418 60.7076ZM58.5853 60.7076C59.5675 60.7076 60.3591 61.0254 60.96 61.6609C61.5609 62.2965 61.8613 63.1516 61.8613 64.2263V69.5996H59.9893V64.3476C59.9893 63.7583 59.8391 63.2961 59.5386 62.9609C59.2382 62.6258 58.828 62.4583 58.308 62.4583C57.7186 62.4583 57.2564 62.6547 56.9213 63.0476C56.5862 63.4289 56.4186 63.9952 56.4186 64.7463V69.5996H54.5466V64.3476C54.5466 63.7467 54.4022 63.2845 54.1133 62.9609C53.836 62.6258 53.4373 62.4583 52.9173 62.4583C52.3395 62.4583 51.8715 62.6547 51.5133 63.0476C51.1666 63.4405 50.9933 64.0067 50.9933 64.7463V69.5996H49.1213V60.9329H50.9933V61.9729C51.548 61.1294 52.3742 60.7076 53.472 60.7076C54.5813 60.7076 55.4017 61.1641 55.9333 62.0769C56.4995 61.1641 57.3835 60.7076 58.5853 60.7076ZM69.7061 65.5783V60.9329H71.5781V69.5996H69.7061V68.4903C69.1283 69.3801 68.2328 69.8249 67.0195 69.8249C66.0141 69.8249 65.2052 69.5072 64.5928 68.8716C63.9919 68.2245 63.6915 67.3521 63.6915 66.2543V60.9329H65.5635V66.0636C65.5635 66.7107 65.7368 67.2076 66.0835 67.5543C66.4301 67.9009 66.9039 68.0743 67.5048 68.0743C68.1866 68.0743 68.7239 67.8663 69.1168 67.4503C69.5097 67.0227 69.7061 66.3987 69.7061 65.5783ZM78.3258 60.7076C79.3311 60.7076 80.1342 61.0312 80.7351 61.6783C81.3476 62.3138 81.6538 63.1805 81.6538 64.2783V69.5996H79.7818V64.4689C79.7818 63.8218 79.6085 63.3249 79.2618 62.9783C78.9151 62.6316 78.4414 62.4583 77.8405 62.4583C77.1587 62.4583 76.6214 62.6721 76.2285 63.0996C75.8356 63.5156 75.6391 64.1338 75.6391 64.9543V69.5996H73.7671V60.9329H75.6391V62.0423C76.2169 61.1525 77.1125 60.7076 78.3258 60.7076ZM85.4375 59.2863C85.2064 59.5174 84.929 59.6329 84.6055 59.6329C84.2819 59.6329 83.9988 59.5174 83.7561 59.2863C83.525 59.0436 83.4095 58.7605 83.4095 58.4369C83.4095 58.1134 83.525 57.8361 83.7561 57.6049C83.9873 57.3623 84.2704 57.2409 84.6055 57.2409C84.9406 57.2409 85.2237 57.3623 85.4548 57.6049C85.6859 57.8361 85.8015 58.1134 85.8015 58.4369C85.8015 58.7605 85.6801 59.0436 85.4375 59.2863ZM85.5415 69.5996H83.6695V60.9329H85.5415V69.5996ZM92.551 60.9329V62.7356H90.4017V66.8956C90.4017 67.2538 90.4826 67.5138 90.6444 67.6756C90.8062 67.8258 91.043 67.9125 91.355 67.9356C91.6786 67.9472 92.0773 67.9414 92.551 67.9183V69.5996C91.1182 69.7729 90.0897 69.6516 89.4657 69.2356C88.8417 68.8081 88.5297 68.0281 88.5297 66.8956V62.7356H86.935V60.9329H88.5297V59.0609L90.4017 58.5063V60.9329H92.551ZM98.0408 67.2249L100.26 60.9329H102.253L98.9248 69.8769C98.0928 72.1187 96.6831 73.1818 94.6955 73.0663V71.3156C95.2733 71.3503 95.7413 71.2289 96.0995 70.9516C96.4577 70.6743 96.7582 70.2294 97.0008 69.6169L97.0875 69.4436L93.4128 60.9329H95.4582L98.0408 67.2249Z" fill="white"/>
</g>
<defs>
<clipPath id="clip0_674_773">
<rect width="130" height="130" fill="white"/>
</clipPath>
</defs>
</svg>
