<svg width="130" height="130" viewBox="0 0 130 130" fill="none" xmlns="http://www.w3.org/2000/svg">
<g clip-path="url(#clip0_674_783)">
<circle cx="65" cy="65" r="65" fill="#FC4722"/>
<path d="M50.1364 57.4663V59.3729H45.0231V62.7703H49.9631V64.6769H45.0231V69.5996H43.0297V57.4663H50.1364ZM59.2118 68.5076C58.3335 69.3858 57.2531 69.8249 55.9704 69.8249C54.6878 69.8249 53.6073 69.3858 52.7291 68.5076C51.8393 67.6178 51.3944 66.5374 51.3944 65.2663C51.3944 63.9952 51.8393 62.9147 52.7291 62.0249C53.6073 61.1467 54.6878 60.7076 55.9704 60.7076C57.2531 60.7076 58.3335 61.1467 59.2118 62.0249C60.1015 62.9147 60.5464 63.9952 60.5464 65.2663C60.5464 66.5374 60.1015 67.6178 59.2118 68.5076ZM53.2664 65.2663C53.2664 66.0521 53.5264 66.7049 54.0464 67.2249C54.5664 67.7449 55.2078 68.0049 55.9704 68.0049C56.7331 68.0049 57.3744 67.7449 57.8944 67.2249C58.4144 66.7049 58.6744 66.0521 58.6744 65.2663C58.6744 64.4805 58.4144 63.8276 57.8944 63.3076C57.3744 62.7876 56.7331 62.5276 55.9704 62.5276C55.2078 62.5276 54.5664 62.7876 54.0464 63.3076C53.5264 63.8276 53.2664 64.4805 53.2664 65.2663ZM66.3298 69.8249C65.024 69.8249 63.932 69.3858 63.0538 68.5076C62.1871 67.6178 61.7538 66.5374 61.7538 65.2663C61.7538 63.9721 62.1871 62.8916 63.0538 62.0249C63.932 61.1467 65.024 60.7076 66.3298 60.7076C67.1734 60.7076 67.9418 60.9098 68.6351 61.3143C69.3285 61.7187 69.8485 62.2618 70.1951 62.9436L68.5831 63.8796C68.3867 63.4636 68.0862 63.1401 67.6818 62.9089C67.2889 62.6663 66.8325 62.5449 66.3125 62.5449C65.5498 62.5449 64.9085 62.8049 64.3885 63.3249C63.88 63.8565 63.6258 64.5036 63.6258 65.2663C63.6258 66.0289 63.88 66.6761 64.3885 67.2076C64.9085 67.7276 65.5498 67.9876 66.3125 67.9876C66.8209 67.9876 67.2774 67.8721 67.6818 67.6409C68.0978 67.3983 68.4098 67.0689 68.6178 66.6529L70.2298 67.5716C69.86 68.2649 69.3227 68.8138 68.6178 69.2183C67.9245 69.6227 67.1618 69.8249 66.3298 69.8249ZM77.475 65.5783V60.9329H79.347V69.5996H77.475V68.4903C76.8972 69.3801 76.0017 69.8249 74.7883 69.8249C73.783 69.8249 72.9741 69.5072 72.3617 68.8716C71.7608 68.2245 71.4603 67.3521 71.4603 66.2543V60.9329H73.3323V66.0636C73.3323 66.7107 73.5057 67.2076 73.8523 67.5543C74.199 67.9009 74.6728 68.0743 75.2737 68.0743C75.9554 68.0743 76.4928 67.8663 76.8857 67.4503C77.2786 67.0227 77.475 66.3987 77.475 65.5783ZM83.1666 63.3249C83.1666 63.5907 83.3052 63.8103 83.5826 63.9836C83.8599 64.1454 84.2643 64.3014 84.7959 64.4516C85.2003 64.5441 85.5528 64.6423 85.8532 64.7463C86.1537 64.8503 86.4715 65.0063 86.8066 65.2143C87.1417 65.4107 87.3959 65.6765 87.5692 66.0116C87.7541 66.3352 87.8408 66.7165 87.8292 67.1556C87.8292 67.9876 87.5057 68.6405 86.8586 69.1143C86.2115 69.5881 85.4083 69.8249 84.4492 69.8249C83.5941 69.8249 82.8603 69.6458 82.2479 69.2876C81.6355 68.9294 81.1906 68.4325 80.9132 67.7969L82.5252 66.8609C82.8141 67.6929 83.4555 68.1089 84.4492 68.1089C85.4315 68.1089 85.9226 67.7854 85.9226 67.1383C85.9226 66.6645 85.3737 66.2947 84.2759 66.0289C83.8599 65.9249 83.5075 65.8209 83.2186 65.7169C82.9412 65.6129 82.6292 65.4627 82.2826 65.2663C81.9475 65.0698 81.6875 64.8098 81.5026 64.4863C81.3292 64.1627 81.2483 63.7872 81.2599 63.3596C81.2599 62.5623 81.5603 61.9209 82.1612 61.4356C82.7737 60.9503 83.5306 60.7076 84.4319 60.7076C85.1483 60.7076 85.7839 60.8694 86.3386 61.1929C86.9048 61.5049 87.3381 61.9441 87.6386 62.5103L86.0612 63.3943C85.7723 62.7356 85.2292 62.4063 84.4319 62.4063C84.0621 62.4063 83.7559 62.4872 83.5132 62.6489C83.2821 62.8107 83.1666 63.0361 83.1666 63.3249Z" fill="white"/>
</g>
<defs>
<clipPath id="clip0_674_783">
<rect width="130" height="130" fill="white"/>
</clipPath>
</defs>
</svg>
