<svg width="195" height="65" viewBox="0 0 195 65" fill="none" xmlns="http://www.w3.org/2000/svg">
<g clip-path="url(#clip0_674_770)">
<rect width="195" height="65" fill="#FC4722"/>
<path d="M61.1453 37.9753C59.3195 37.9753 57.8058 37.3744 56.604 36.1727C55.4022 34.9478 54.8013 33.4513 54.8013 31.6833C54.8013 29.9038 55.4022 28.4131 56.604 27.2113C57.7942 25.998 59.308 25.3913 61.1453 25.3913C62.2431 25.3913 63.2542 25.6513 64.1787 26.1713C65.1147 26.6913 65.8427 27.3962 66.3627 28.286L64.6293 29.2913C64.3058 28.6904 63.832 28.2167 63.208 27.87C62.5955 27.5118 61.908 27.3327 61.1453 27.3327C59.8627 27.3327 58.8111 27.7429 57.9907 28.5633C57.1933 29.3722 56.7947 30.4122 56.7947 31.6833C56.7947 32.9544 57.1933 33.9944 57.9907 34.8033C58.8111 35.6238 59.8627 36.034 61.1453 36.034C61.908 36.034 62.6013 35.8607 63.2253 35.514C63.8493 35.1558 64.3173 34.6762 64.6293 34.0753L66.3627 35.0633C65.8658 35.9416 65.1436 36.6522 64.196 37.1953C63.2831 37.7153 62.2662 37.9753 61.1453 37.9753ZM69.75 27.4367C69.5189 27.6678 69.2415 27.7833 68.918 27.7833C68.5944 27.7833 68.3113 27.6678 68.0686 27.4367C67.8375 27.194 67.722 26.9109 67.722 26.5873C67.722 26.2638 67.8375 25.9864 68.0686 25.7553C68.2998 25.5127 68.5829 25.3913 68.918 25.3913C69.2531 25.3913 69.5362 25.5127 69.7673 25.7553C69.9984 25.9864 70.114 26.2638 70.114 26.5873C70.114 26.9109 69.9926 27.194 69.75 27.4367ZM69.854 37.75H67.982V29.0833H69.854V37.75ZM73.8995 29.0833V30.5393C74.3733 29.4647 75.2631 28.9273 76.5689 28.9273V30.9553C75.864 30.9091 75.24 31.0824 74.6969 31.4753C74.1653 31.8567 73.8995 32.4922 73.8995 33.382V37.75H72.0275V29.0833H73.8995ZM81.6364 37.9753C80.3307 37.9753 79.2387 37.5362 78.3604 36.658C77.4938 35.7682 77.0604 34.6878 77.0604 33.4167C77.0604 32.1224 77.4938 31.042 78.3604 30.1753C79.2387 29.2971 80.3307 28.858 81.6364 28.858C82.48 28.858 83.2484 29.0602 83.9418 29.4647C84.6351 29.8691 85.1551 30.4122 85.5018 31.094L83.8898 32.03C83.6933 31.614 83.3929 31.2904 82.9884 31.0593C82.5956 30.8167 82.1391 30.6953 81.6191 30.6953C80.8564 30.6953 80.2151 30.9553 79.6951 31.4753C79.1867 32.0069 78.9324 32.654 78.9324 33.4167C78.9324 34.1793 79.1867 34.8264 79.6951 35.358C80.2151 35.878 80.8564 36.138 81.6191 36.138C82.1276 36.138 82.584 36.0224 82.9884 35.7913C83.4044 35.5487 83.7164 35.2193 83.9244 34.8033L85.5364 35.722C85.1667 36.4153 84.6293 36.9642 83.9244 37.3687C83.2311 37.7731 82.4684 37.9753 81.6364 37.9753ZM92.7816 33.7287V29.0833L94.6536 29.0833V37.75H92.7816V36.6407C92.2039 37.5304 91.3083 37.9753 90.095 37.9753C89.0896 37.9753 88.2808 37.6576 87.6683 37.022C87.0674 36.3749 86.767 35.5024 86.767 34.4047V29.0833H88.639V34.214C88.639 34.8611 88.8123 35.358 89.159 35.7047C89.5056 36.0513 89.9794 36.2247 90.5803 36.2247C91.2621 36.2247 91.7994 36.0167 92.1923 35.6007C92.5852 35.1731 92.7816 34.5491 92.7816 33.7287ZM98.7147 37.75H96.8427V25.0967H98.7147V37.75ZM107.752 30.314V29.0833H109.624V37.75H107.752V36.502C107.047 37.4842 106.036 37.9753 104.719 37.9753C103.529 37.9753 102.512 37.5362 101.668 36.658C100.825 35.7798 100.403 34.6993 100.403 33.4167C100.403 32.134 100.825 31.0536 101.668 30.1753C102.512 29.2971 103.529 28.858 104.719 28.858C106.036 28.858 107.047 29.3433 107.752 30.314ZM103.055 35.41C103.575 35.93 104.228 36.19 105.014 36.19C105.799 36.19 106.452 35.93 106.972 35.41C107.492 34.8784 107.752 34.214 107.752 33.4167C107.752 32.6193 107.492 31.9607 106.972 31.4407C106.452 30.9091 105.799 30.6433 105.014 30.6433C104.228 30.6433 103.575 30.9091 103.055 31.4407C102.535 31.9607 102.275 32.6193 102.275 33.4167C102.275 34.2024 102.535 34.8669 103.055 35.41ZM116.642 29.0833V30.886H114.493V35.046C114.493 35.4042 114.574 35.6642 114.736 35.826C114.897 35.9762 115.134 36.0629 115.446 36.086C115.77 36.0976 116.168 36.0918 116.642 36.0687V37.75C115.209 37.9233 114.181 37.802 113.557 37.386C112.933 36.9584 112.621 36.1784 112.621 35.046V30.886H111.026V29.0833H112.621V27.2113L114.493 26.6567V29.0833H116.642ZM120.108 27.4367C119.877 27.6678 119.6 27.7833 119.276 27.7833C118.952 27.7833 118.669 27.6678 118.427 27.4367C118.196 27.194 118.08 26.9109 118.08 26.5873C118.08 26.2638 118.196 25.9864 118.427 25.7553C118.658 25.5127 118.941 25.3913 119.276 25.3913C119.611 25.3913 119.894 25.5127 120.125 25.7553C120.356 25.9864 120.472 26.2638 120.472 26.5873C120.472 26.9109 120.351 27.194 120.108 27.4367ZM120.212 37.75H118.34V29.0833H120.212V37.75ZM129.718 36.658C128.839 37.5362 127.759 37.9753 126.476 37.9753C125.194 37.9753 124.113 37.5362 123.235 36.658C122.345 35.7682 121.9 34.6878 121.9 33.4167C121.9 32.1456 122.345 31.0651 123.235 30.1753C124.113 29.2971 125.194 28.858 126.476 28.858C127.759 28.858 128.839 29.2971 129.718 30.1753C130.607 31.0651 131.052 32.1456 131.052 33.4167C131.052 34.6878 130.607 35.7682 129.718 36.658ZM123.772 33.4167C123.772 34.2024 124.032 34.8553 124.552 35.3753C125.072 35.8953 125.714 36.1553 126.476 36.1553C127.239 36.1553 127.88 35.8953 128.4 35.3753C128.92 34.8553 129.18 34.2024 129.18 33.4167C129.18 32.6309 128.92 31.978 128.4 31.458C127.88 30.938 127.239 30.678 126.476 30.678C125.714 30.678 125.072 30.938 124.552 31.458C124.032 31.978 123.772 32.6309 123.772 33.4167ZM137.304 28.858C138.309 28.858 139.112 29.1816 139.713 29.8287C140.325 30.4642 140.632 31.3309 140.632 32.4287V37.75H138.76V32.6193C138.76 31.9722 138.586 31.4753 138.24 31.1287C137.893 30.782 137.419 30.6087 136.818 30.6087C136.137 30.6087 135.599 30.8224 135.206 31.25C134.813 31.666 134.617 32.2842 134.617 33.1047V37.75L132.745 37.75V29.0833H134.617V30.1927C135.195 29.3029 136.09 28.858 137.304 28.858Z" fill="white"/>
</g>
<defs>
<clipPath id="clip0_674_770">
<rect width="195" height="65" fill="white"/>
</clipPath>
</defs>
</svg>
