<svg width="195" height="65" viewBox="0 0 195 65" fill="none" xmlns="http://www.w3.org/2000/svg">
<g clip-path="url(#clip0_674_771)">
<rect width="195" height="65" fill="#FC4722"/>
<path d="M66.0581 37.9753C64.2323 37.9753 62.7185 37.3744 61.5168 36.1727C60.315 34.9478 59.7141 33.4513 59.7141 31.6833C59.7141 29.9038 60.315 28.4131 61.5168 27.2113C62.707 25.998 64.2208 25.3913 66.0581 25.3913C67.1559 25.3913 68.167 25.6513 69.0914 26.1713C70.0274 26.6913 70.7554 27.3962 71.2754 28.286L69.5421 29.2913C69.2185 28.6904 68.7448 28.2167 68.1208 27.87C67.5083 27.5118 66.8208 27.3327 66.0581 27.3327C64.7754 27.3327 63.7239 27.7429 62.9034 28.5633C62.1061 29.3722 61.7074 30.4122 61.7074 31.6833C61.7074 32.9544 62.1061 33.9944 62.9034 34.8033C63.7239 35.6238 64.7754 36.034 66.0581 36.034C66.8208 36.034 67.5141 35.8607 68.1381 35.514C68.7621 35.1558 69.2301 34.6762 69.5421 34.0753L71.2754 35.0633C70.7785 35.9416 70.0563 36.6522 69.1088 37.1953C68.1959 37.7153 67.179 37.9753 66.0581 37.9753ZM80.1252 36.658C79.247 37.5362 78.1665 37.9753 76.8838 37.9753C75.6012 37.9753 74.5207 37.5362 73.6425 36.658C72.7527 35.7682 72.3078 34.6878 72.3078 33.4167C72.3078 32.1456 72.7527 31.0651 73.6425 30.1753C74.5207 29.2971 75.6012 28.858 76.8838 28.858C78.1665 28.858 79.247 29.2971 80.1252 30.1753C81.015 31.0651 81.4598 32.1456 81.4598 33.4167C81.4598 34.6878 81.015 35.7682 80.1252 36.658ZM74.1798 33.4167C74.1798 34.2024 74.4398 34.8553 74.9598 35.3753C75.4798 35.8953 76.1212 36.1553 76.8838 36.1553C77.6465 36.1553 78.2878 35.8953 78.8078 35.3753C79.3278 34.8553 79.5878 34.2024 79.5878 33.4167C79.5878 32.6309 79.3278 31.978 78.8078 31.458C78.2878 30.938 77.6465 30.678 76.8838 30.678C76.1212 30.678 75.4798 30.938 74.9598 31.458C74.4398 31.978 74.1798 32.6309 74.1798 33.4167ZM90.0512 30.366V29.0833H91.8885V37.3513C91.8885 38.6687 91.4552 39.6798 90.5885 40.3847C89.7334 41.0896 88.6819 41.442 87.4339 41.442C85.4348 41.442 84.0654 40.7429 83.3259 39.3447L84.9379 38.4087C85.3885 39.2984 86.2321 39.7433 87.4685 39.7433C88.2774 39.7433 88.9072 39.5296 89.3579 39.102C89.8201 38.686 90.0512 38.1024 90.0512 37.3513V36.294C89.3463 37.2993 88.341 37.802 87.0352 37.802C85.8219 37.802 84.7877 37.3687 83.9325 36.502C83.089 35.6238 82.6672 34.5664 82.6672 33.33C82.6672 32.082 83.089 31.0304 83.9325 30.1753C84.7761 29.2971 85.8103 28.858 87.0352 28.858C88.341 28.858 89.3463 29.3607 90.0512 30.366ZM85.3192 35.2713C85.8508 35.7913 86.5094 36.0513 87.2952 36.0513C88.081 36.0513 88.7339 35.7913 89.2539 35.2713C89.7854 34.7513 90.0512 34.1042 90.0512 33.33C90.0512 32.5558 89.7854 31.9087 89.2539 31.3887C88.7339 30.8687 88.081 30.6087 87.2952 30.6087C86.5094 30.6087 85.8508 30.8687 85.3192 31.3887C84.7992 31.9087 84.5392 32.5558 84.5392 33.33C84.5392 34.1042 84.7992 34.7513 85.3192 35.2713ZM98.6292 28.858C99.6345 28.858 100.438 29.1816 101.039 29.8287C101.651 30.4642 101.957 31.3309 101.957 32.4287V37.75H100.085V32.6193C100.085 31.9722 99.9118 31.4753 99.5652 31.1287C99.2185 30.782 98.7447 30.6087 98.1438 30.6087C97.4621 30.6087 96.9247 30.8224 96.5318 31.25C96.139 31.666 95.9425 32.2842 95.9425 33.1047V37.75H94.0705V29.0833H95.9425V30.1927C96.5203 29.3029 97.4158 28.858 98.6292 28.858ZM105.741 27.4367C105.51 27.6678 105.232 27.7833 104.909 27.7833C104.585 27.7833 104.302 27.6678 104.06 27.4367C103.828 27.194 103.713 26.9109 103.713 26.5873C103.713 26.2638 103.828 25.9864 104.06 25.7553C104.291 25.5127 104.574 25.3913 104.909 25.3913C105.244 25.3913 105.527 25.5127 105.758 25.7553C105.989 25.9864 106.105 26.2638 106.105 26.5873C106.105 26.9109 105.984 27.194 105.741 27.4367ZM105.845 37.75H103.973V29.0833H105.845V37.75ZM112.854 29.0833V30.886H110.705V35.046C110.705 35.4042 110.786 35.6642 110.948 35.826C111.11 35.9762 111.346 36.0629 111.658 36.086C111.982 36.0976 112.381 36.0918 112.854 36.0687V37.75C111.422 37.9233 110.393 37.802 109.769 37.386C109.145 36.9584 108.833 36.1784 108.833 35.046V30.886H107.238V29.0833H108.833V27.2113L110.705 26.6567V29.0833H112.854ZM116.32 27.4367C116.089 27.6678 115.812 27.7833 115.488 27.7833C115.165 27.7833 114.882 27.6678 114.639 27.4367C114.408 27.194 114.292 26.9109 114.292 26.5873C114.292 26.2638 114.408 25.9864 114.639 25.7553C114.87 25.5127 115.153 25.3913 115.488 25.3913C115.823 25.3913 116.107 25.5127 116.338 25.7553C116.569 25.9864 116.684 26.2638 116.684 26.5873C116.684 26.9109 116.563 27.194 116.32 27.4367ZM116.424 37.75H114.552V29.0833H116.424V37.75ZM125.93 36.658C125.052 37.5362 123.971 37.9753 122.689 37.9753C121.406 37.9753 120.325 37.5362 119.447 36.658C118.557 35.7682 118.113 34.6878 118.113 33.4167C118.113 32.1456 118.557 31.0651 119.447 30.1753C120.325 29.2971 121.406 28.858 122.689 28.858C123.971 28.858 125.052 29.2971 125.93 30.1753C126.82 31.0651 127.265 32.1456 127.265 33.4167C127.265 34.6878 126.82 35.7682 125.93 36.658ZM119.985 33.4167C119.985 34.2024 120.245 34.8553 120.765 35.3753C121.285 35.8953 121.926 36.1553 122.689 36.1553C123.451 36.1553 124.093 35.8953 124.613 35.3753C125.133 34.8553 125.393 34.2024 125.393 33.4167C125.393 32.6309 125.133 31.978 124.613 31.458C124.093 30.938 123.451 30.678 122.689 30.678C121.926 30.678 121.285 30.938 120.765 31.458C120.245 31.978 119.985 32.6309 119.985 33.4167ZM133.516 28.858C134.521 28.858 135.324 29.1816 135.925 29.8287C136.538 30.4642 136.844 31.3309 136.844 32.4287V37.75H134.972V32.6193C134.972 31.9722 134.799 31.4753 134.452 31.1287C134.105 30.782 133.631 30.6087 133.031 30.6087C132.349 30.6087 131.811 30.8224 131.419 31.25C131.026 31.666 130.829 32.2842 130.829 33.1047V37.75H128.957V29.0833H130.829V30.1927C131.407 29.3029 132.303 28.858 133.516 28.858Z" fill="white"/>
</g>
<defs>
<clipPath id="clip0_674_771">
<rect width="195" height="65" fill="white"/>
</clipPath>
</defs>
</svg>
