<svg width="130" height="130" viewBox="0 0 130 130" fill="none" xmlns="http://www.w3.org/2000/svg">
<g clip-path="url(#clip0_674_781)">
<circle cx="65" cy="65" r="65" fill="#FC4722"/>
<path d="M53.3268 57.4663H55.4588V69.5996H53.4655V60.9503L49.7735 67.0516H49.5308L45.8388 60.9329V69.5996H43.8455V57.4663H45.9948L49.6522 63.5329L53.3268 57.4663ZM65.0887 68.5076C64.2105 69.3858 63.13 69.8249 61.8474 69.8249C60.5647 69.8249 59.4843 69.3858 58.606 68.5076C57.7163 67.6178 57.2714 66.5374 57.2714 65.2663C57.2714 63.9952 57.7163 62.9147 58.606 62.0249C59.4843 61.1467 60.5647 60.7076 61.8474 60.7076C63.13 60.7076 64.2105 61.1467 65.0887 62.0249C65.9785 62.9147 66.4234 63.9952 66.4234 65.2663C66.4234 66.5374 65.9785 67.6178 65.0887 68.5076ZM59.1434 65.2663C59.1434 66.0521 59.4034 66.7049 59.9234 67.2249C60.4434 67.7449 61.0847 68.0049 61.8474 68.0049C62.61 68.0049 63.2514 67.7449 63.7714 67.2249C64.2914 66.7049 64.5514 66.0521 64.5514 65.2663C64.5514 64.4805 64.2914 63.8276 63.7714 63.3076C63.2514 62.7876 62.61 62.5276 61.8474 62.5276C61.0847 62.5276 60.4434 62.7876 59.9234 63.3076C59.4034 63.8276 59.1434 64.4805 59.1434 65.2663ZM75.4481 68.5076C74.5699 69.3858 73.4894 69.8249 72.2068 69.8249C70.9241 69.8249 69.8436 69.3858 68.9654 68.5076C68.0756 67.6178 67.6308 66.5374 67.6308 65.2663C67.6308 63.9952 68.0756 62.9147 68.9654 62.0249C69.8436 61.1467 70.9241 60.7076 72.2068 60.7076C73.4894 60.7076 74.5699 61.1467 75.4481 62.0249C76.3379 62.9147 76.7828 63.9952 76.7828 65.2663C76.7828 66.5374 76.3379 67.6178 75.4481 68.5076ZM69.5028 65.2663C69.5028 66.0521 69.7628 66.7049 70.2828 67.2249C70.8028 67.7449 71.4441 68.0049 72.2068 68.0049C72.9694 68.0049 73.6108 67.7449 74.1308 67.2249C74.6508 66.7049 74.9108 66.0521 74.9108 65.2663C74.9108 64.4805 74.6508 63.8276 74.1308 63.3076C73.6108 62.7876 72.9694 62.5276 72.2068 62.5276C71.4441 62.5276 70.8028 62.7876 70.2828 63.3076C69.7628 63.8276 69.5028 64.4805 69.5028 65.2663ZM85.3395 62.1636V57.4663H87.2115V69.5996H85.3395V68.3516C84.6346 69.3338 83.6235 69.8249 82.3061 69.8249C81.1159 69.8249 80.099 69.3858 79.2555 68.5076C78.4119 67.6294 77.9901 66.5489 77.9901 65.2663C77.9901 63.9836 78.4119 62.9032 79.2555 62.0249C80.099 61.1467 81.1159 60.7076 82.3061 60.7076C83.6235 60.7076 84.6346 61.1929 85.3395 62.1636ZM80.6421 67.2596C81.1621 67.7796 81.815 68.0396 82.6008 68.0396C83.3866 68.0396 84.0395 67.7796 84.5595 67.2596C85.0795 66.7281 85.3395 66.0636 85.3395 65.2663C85.3395 64.4689 85.0795 63.8103 84.5595 63.2903C84.0395 62.7587 83.3866 62.4929 82.6008 62.4929C81.815 62.4929 81.1621 62.7587 80.6421 63.2903C80.1221 63.8103 79.8621 64.4689 79.8621 65.2663C79.8621 66.0521 80.1221 66.7165 80.6421 67.2596Z" fill="white"/>
</g>
<defs>
<clipPath id="clip0_674_781">
<rect width="130" height="130" fill="white"/>
</clipPath>
</defs>
</svg>
