<svg width="195" height="65" viewBox="0 0 195 65" fill="none" xmlns="http://www.w3.org/2000/svg">
<g clip-path="url(#clip0_674_768)">
<rect width="195" height="65" fill="#FC4722"/>
<path d="M73.1073 31.458C73.6388 31.7353 74.0548 32.1224 74.3553 32.6193C74.6557 33.1047 74.8059 33.6593 74.8059 34.2833C74.8059 35.2771 74.4535 36.1033 73.7486 36.762C73.0437 37.4207 72.1828 37.75 71.1659 37.75H65.9659V25.6167H70.7846C71.7784 25.6167 72.6162 25.9402 73.2979 26.5873C73.9913 27.2344 74.3379 28.0318 74.3379 28.9793C74.3379 30.0193 73.9277 30.8456 73.1073 31.458ZM70.7846 27.4887H67.9593V30.678H70.7846C71.2237 30.678 71.5935 30.5278 71.8939 30.2273C72.1944 29.9153 72.3446 29.534 72.3446 29.0833C72.3446 28.6327 72.1944 28.2571 71.8939 27.9567C71.5935 27.6447 71.2237 27.4887 70.7846 27.4887ZM67.9593 35.878H71.1659C71.6282 35.878 72.0153 35.7162 72.3273 35.3927C72.6508 35.0576 72.8126 34.6531 72.8126 34.1793C72.8126 33.7056 72.6508 33.3069 72.3273 32.9833C72.0153 32.6482 71.6282 32.4807 71.1659 32.4807H67.9593V35.878ZM83.3727 30.314V29.0833H85.2447V37.75H83.3727V36.502C82.6678 37.4842 81.6567 37.9753 80.3393 37.9753C79.1491 37.9753 78.1322 37.5362 77.2887 36.658C76.4451 35.7798 76.0233 34.6993 76.0233 33.4167C76.0233 32.134 76.4451 31.0536 77.2887 30.1753C78.1322 29.2971 79.1491 28.858 80.3393 28.858C81.6567 28.858 82.6678 29.3433 83.3727 30.314ZM78.6753 35.41C79.1953 35.93 79.8482 36.19 80.634 36.19C81.4198 36.19 82.0727 35.93 82.5927 35.41C83.1127 34.8784 83.3727 34.214 83.3727 33.4167C83.3727 32.6193 83.1127 31.9607 82.5927 31.4407C82.0727 30.9091 81.4198 30.6433 80.634 30.6433C79.8482 30.6433 79.1953 30.9091 78.6753 31.4407C78.1553 31.9607 77.8953 32.6193 77.8953 33.4167C77.8953 34.2024 78.1553 34.8669 78.6753 35.41ZM89.2986 37.75H87.4266V25.0967H89.2986V37.75ZM98.3362 30.314V29.0833H100.208V37.75H98.3362V36.502C97.6313 37.4842 96.6202 37.9753 95.3029 37.9753C94.1127 37.9753 93.0958 37.5362 92.2522 36.658C91.4087 35.7798 90.9869 34.6993 90.9869 33.4167C90.9869 32.134 91.4087 31.0536 92.2522 30.1753C93.0958 29.2971 94.1127 28.858 95.3029 28.858C96.6202 28.858 97.6313 29.3433 98.3362 30.314ZM93.6389 35.41C94.1589 35.93 94.8118 36.19 95.5975 36.19C96.3833 36.19 97.0362 35.93 97.5562 35.41C98.0762 34.8784 98.3362 34.214 98.3362 33.4167C98.3362 32.6193 98.0762 31.9607 97.5562 31.4407C97.0362 30.9091 96.3833 30.6433 95.5975 30.6433C94.8118 30.6433 94.1589 30.9091 93.6389 31.4407C93.1189 31.9607 92.8589 32.6193 92.8589 33.4167C92.8589 34.2024 93.1189 34.8669 93.6389 35.41ZM106.949 28.858C107.954 28.858 108.757 29.1816 109.358 29.8287C109.971 30.4642 110.277 31.3309 110.277 32.4287V37.75H108.405V32.6193C108.405 31.9722 108.232 31.4753 107.885 31.1287C107.538 30.782 107.064 30.6087 106.464 30.6087C105.782 30.6087 105.244 30.8224 104.852 31.25C104.459 31.666 104.262 32.2842 104.262 33.1047V37.75H102.39V29.0833H104.262V30.1927C104.84 29.3029 105.736 28.858 106.949 28.858ZM116.383 37.9753C115.077 37.9753 113.985 37.5362 113.107 36.658C112.241 35.7682 111.807 34.6878 111.807 33.4167C111.807 32.1224 112.241 31.042 113.107 30.1753C113.985 29.2971 115.077 28.858 116.383 28.858C117.227 28.858 117.995 29.0602 118.689 29.4647C119.382 29.8691 119.902 30.4122 120.249 31.094L118.637 32.03C118.44 31.614 118.14 31.2904 117.735 31.0593C117.342 30.8167 116.886 30.6953 116.366 30.6953C115.603 30.6953 114.962 30.9553 114.442 31.4753C113.933 32.0069 113.679 32.654 113.679 33.4167C113.679 34.1793 113.933 34.8264 114.442 35.358C114.962 35.878 115.603 36.138 116.366 36.138C116.874 36.138 117.331 36.0224 117.735 35.7913C118.151 35.5487 118.463 35.2193 118.671 34.8033L120.283 35.722C119.913 36.4153 119.376 36.9642 118.671 37.3687C117.978 37.7731 117.215 37.9753 116.383 37.9753ZM129.873 34.214H122.974C123.113 34.8611 123.425 35.3638 123.91 35.722C124.407 36.0802 125.02 36.2593 125.748 36.2593C126.73 36.2593 127.475 35.9011 127.984 35.1847L129.526 36.086C128.683 37.3456 127.417 37.9753 125.73 37.9753C124.332 37.9753 123.194 37.5478 122.316 36.6927C121.449 35.826 121.016 34.734 121.016 33.4167C121.016 32.134 121.443 31.0536 122.298 30.1753C123.142 29.2971 124.24 28.858 125.592 28.858C126.851 28.858 127.891 29.3029 128.712 30.1927C129.532 31.0824 129.942 32.1629 129.942 33.434C129.942 33.6651 129.919 33.9251 129.873 34.214ZM122.957 32.6887H128.053C127.926 32.0069 127.637 31.4811 127.186 31.1113C126.747 30.7416 126.21 30.5567 125.574 30.5567C124.881 30.5567 124.303 30.7473 123.841 31.1287C123.379 31.51 123.084 32.03 122.957 32.6887Z" fill="white"/>
</g>
<defs>
<clipPath id="clip0_674_768">
<rect width="195" height="65" fill="white"/>
</clipPath>
</defs>
</svg>
