<svg width="130" height="130" viewBox="0 0 130 130" fill="none" xmlns="http://www.w3.org/2000/svg">
<g clip-path="url(#clip0_674_780)">
<circle cx="65" cy="65" r="65" fill="#FC4722"/>
<path d="M48.3796 47.0669H50.5116V59.2002H48.5182V50.5509L44.8262 56.6522H44.5836L40.8916 50.5335V59.2002H38.8982V47.0669H41.0476L44.7049 53.1335L48.3796 47.0669ZM61.1814 55.6642H54.2828C54.4214 56.3113 54.7334 56.814 55.2188 57.1722C55.7157 57.5304 56.3281 57.7095 57.0561 57.7095C58.0383 57.7095 58.7837 57.3513 59.2921 56.6349L60.8348 57.5362C59.9912 58.7958 58.7259 59.4255 57.0388 59.4255C55.6406 59.4255 54.5023 58.998 53.6241 58.1429C52.7574 57.2762 52.3241 56.1842 52.3241 54.8669C52.3241 53.5842 52.7517 52.5038 53.6068 51.6255C54.4503 50.7473 55.5481 50.3082 56.9001 50.3082C58.1597 50.3082 59.1997 50.7531 60.0201 51.6429C60.8406 52.5326 61.2508 53.6131 61.2508 54.8842C61.2508 55.1153 61.2277 55.3753 61.1814 55.6642ZM54.2654 54.1389H59.3614C59.2343 53.4571 58.9454 52.9313 58.4948 52.5615C58.0557 52.1918 57.5183 52.0069 56.8828 52.0069C56.1894 52.0069 55.6117 52.1975 55.1494 52.5789C54.6872 52.9602 54.3926 53.4802 54.2654 54.1389ZM67.4567 50.3082C68.462 50.3082 69.2651 50.6318 69.866 51.2789C70.4784 51.9144 70.7847 52.7811 70.7847 53.8789V59.2002H68.9127V54.0695C68.9127 53.4224 68.7393 52.9255 68.3927 52.5789C68.046 52.2322 67.5722 52.0589 66.9713 52.0589C66.2895 52.0589 65.7522 52.2726 65.3593 52.7002C64.9664 53.1162 64.77 53.7344 64.77 54.5549V59.2002H62.898V50.5335H64.77V51.6429C65.3478 50.7531 66.2433 50.3082 67.4567 50.3082ZM77.6363 50.5335V52.3362H75.487V56.4962C75.487 56.8544 75.5679 57.1144 75.7297 57.2762C75.8914 57.4264 76.1283 57.5131 76.4403 57.5362C76.7639 57.5478 77.1626 57.542 77.6363 57.5189V59.2002C76.2034 59.3735 75.175 59.2522 74.551 58.8362C73.927 58.4086 73.615 57.6286 73.615 56.4962V52.3362H72.0203V50.5335H73.615V48.6615L75.487 48.1069V50.5335H77.6363ZM85.8427 51.7642V50.5335H87.7147V59.2002H85.8427V57.9522C85.1378 58.9344 84.1267 59.4255 82.8094 59.4255C81.6192 59.4255 80.6023 58.9864 79.7587 58.1082C78.9152 57.23 78.4934 56.1495 78.4934 54.8669C78.4934 53.5842 78.9152 52.5038 79.7587 51.6255C80.6023 50.7473 81.6192 50.3082 82.8094 50.3082C84.1267 50.3082 85.1378 50.7935 85.8427 51.7642ZM81.1454 56.8602C81.6654 57.3802 82.3183 57.6402 83.1041 57.6402C83.8898 57.6402 84.5427 57.3802 85.0627 56.8602C85.5827 56.3286 85.8427 55.6642 85.8427 54.8669C85.8427 54.0695 85.5827 53.4109 85.0627 52.8909C84.5427 52.3593 83.8898 52.0935 83.1041 52.0935C82.3183 52.0935 81.6654 52.3593 81.1454 52.8909C80.6254 53.4109 80.3654 54.0695 80.3654 54.8669C80.3654 55.6526 80.6254 56.3171 81.1454 56.8602ZM91.7687 59.2002H89.8967V46.5469H91.7687V59.2002ZM45.5496 80.4255C43.7238 80.4255 42.2101 79.8246 41.0083 78.6229C39.8065 77.398 39.2056 75.9015 39.2056 74.1335C39.2056 72.354 39.8065 70.8633 41.0083 69.6615C42.1985 68.4482 43.7123 67.8415 45.5496 67.8415C46.6474 67.8415 47.6585 68.1015 48.583 68.6215C49.519 69.1415 50.247 69.8464 50.767 70.7362L49.0336 71.7415C48.7101 71.1406 48.2363 70.6669 47.6123 70.3202C46.9998 69.962 46.3123 69.7829 45.5496 69.7829C44.267 69.7829 43.2154 70.1931 42.395 71.0135C41.5976 71.8224 41.199 72.8624 41.199 74.1335C41.199 75.4046 41.5976 76.4446 42.395 77.2535C43.2154 78.074 44.267 78.4842 45.5496 78.4842C46.3123 78.4842 47.0056 78.3109 47.6296 77.9642C48.2536 77.606 48.7216 77.1264 49.0336 76.5255L50.767 77.5135C50.2701 78.3918 49.5478 79.1024 48.6003 79.6455C47.6874 80.1655 46.6705 80.4255 45.5496 80.4255ZM54.2583 80.2002H52.3863V67.5469H54.2583V80.2002ZM63.2958 72.7642V71.5335H65.1678V80.2002H63.2958V78.9522C62.591 79.9344 61.5798 80.4255 60.2625 80.4255C59.0723 80.4255 58.0554 79.9864 57.2118 79.1082C56.3683 78.23 55.9465 77.1495 55.9465 75.8669C55.9465 74.5842 56.3683 73.5038 57.2118 72.6255C58.0554 71.7473 59.0723 71.3082 60.2625 71.3082C61.5798 71.3082 62.591 71.7935 63.2958 72.7642ZM58.5985 77.8602C59.1185 78.3802 59.7714 78.6402 60.5572 78.6402C61.343 78.6402 61.9958 78.3802 62.5158 77.8602C63.0358 77.3286 63.2958 76.6642 63.2958 75.8669C63.2958 75.0695 63.0358 74.4109 62.5158 73.8909C61.9958 73.3593 61.343 73.0935 60.5572 73.0935C59.7714 73.0935 59.1185 73.3593 58.5985 73.8909C58.0785 74.4109 57.8185 75.0695 57.8185 75.8669C57.8185 76.6526 58.0785 77.3171 58.5985 77.8602ZM69.2218 71.5335V72.9895C69.6956 71.9149 70.5854 71.3775 71.8911 71.3775V73.4055C71.1863 73.3593 70.5623 73.5326 70.0191 73.9255C69.4876 74.3069 69.2218 74.9424 69.2218 75.8322V80.2002H67.3498V71.5335H69.2218ZM75.0423 69.8869C74.8112 70.118 74.5338 70.2335 74.2103 70.2335C73.8867 70.2335 73.6036 70.118 73.361 69.8869C73.1298 69.6442 73.0143 69.3611 73.0143 69.0375C73.0143 68.714 73.1298 68.4366 73.361 68.2055C73.5921 67.9629 73.8752 67.8415 74.2103 67.8415C74.5454 67.8415 74.8285 67.9629 75.0596 68.2055C75.2907 68.4366 75.4063 68.714 75.4063 69.0375C75.4063 69.3611 75.285 69.6442 75.0423 69.8869ZM75.1463 80.2002H73.2743V71.5335H75.1463V80.2002ZM82.1559 71.5335V73.3362H80.0065V77.4962C80.0065 77.8544 80.0874 78.1144 80.2492 78.2762C80.411 78.4264 80.6479 78.5131 80.9599 78.5362C81.2834 78.5478 81.6821 78.542 82.1559 78.5189V80.2002C80.723 80.3735 79.6945 80.2522 79.0705 79.8362C78.4465 79.4086 78.1345 78.6286 78.1345 77.4962V73.3362H76.5399V71.5335H78.1345V69.6615L80.0065 69.1069V71.5335H82.1559ZM87.6457 77.8255L89.8643 71.5335H91.8577L88.5297 80.4775C87.6977 82.7193 86.2879 83.7824 84.3003 83.6669V81.9162C84.8781 81.9509 85.3461 81.8295 85.7043 81.5522C86.0625 81.2749 86.363 80.83 86.6057 80.2175L86.6923 80.0442L83.0177 71.5335H85.063L87.6457 77.8255Z" fill="white"/>
</g>
<defs>
<clipPath id="clip0_674_780">
<rect width="130" height="130" fill="white"/>
</clipPath>
</defs>
</svg>
