<svg width="130" height="130" viewBox="0 0 130 130" fill="none" xmlns="http://www.w3.org/2000/svg">
<g clip-path="url(#clip0_674_782)">
<circle cx="65" cy="65" r="65" fill="#FC4722"/>
<path d="M39.215 69.5996H37.031L34.4657 65.1796H32.1084V69.5996H30.115V57.4663H34.9684C36.0546 57.4663 36.9732 57.8476 37.7244 58.6103C38.487 59.3498 38.8684 60.2685 38.8684 61.3663C38.8684 62.1405 38.643 62.8512 38.1924 63.4983C37.7532 64.1338 37.1755 64.5961 36.459 64.8849L39.215 69.5996ZM34.9684 59.3383H32.1084V63.3943H34.9684C35.4999 63.3943 35.9506 63.1978 36.3204 62.8049C36.6901 62.4121 36.875 61.9325 36.875 61.3663C36.875 60.8001 36.6901 60.3205 36.3204 59.9276C35.9506 59.5347 35.4999 59.3383 34.9684 59.3383ZM48.5389 66.0636H41.6402C41.7789 66.7107 42.0909 67.2134 42.5762 67.5716C43.0731 67.9298 43.6855 68.1089 44.4135 68.1089C45.3958 68.1089 46.1411 67.7507 46.6495 67.0343L48.1922 67.9356C47.3486 69.1952 46.0833 69.8249 44.3962 69.8249C42.998 69.8249 41.8598 69.3974 40.9815 68.5423C40.1149 67.6756 39.6815 66.5836 39.6815 65.2663C39.6815 63.9836 40.1091 62.9032 40.9642 62.0249C41.8078 61.1467 42.9055 60.7076 44.2575 60.7076C45.5171 60.7076 46.5571 61.1525 47.3775 62.0423C48.198 62.9321 48.6082 64.0125 48.6082 65.2836C48.6082 65.5147 48.5851 65.7747 48.5389 66.0636ZM41.6229 64.5383H46.7189C46.5918 63.8565 46.3029 63.3307 45.8522 62.9609C45.4131 62.5912 44.8758 62.4063 44.2402 62.4063C43.5469 62.4063 42.9691 62.5969 42.5069 62.9783C42.0446 63.3596 41.75 63.8796 41.6229 64.5383ZM54.2953 69.8249C52.9895 69.8249 51.8975 69.3858 51.0193 68.5076C50.1526 67.6178 49.7193 66.5374 49.7193 65.2663C49.7193 63.9721 50.1526 62.8916 51.0193 62.0249C51.8975 61.1467 52.9895 60.7076 54.2953 60.7076C55.1389 60.7076 55.9073 60.9098 56.6006 61.3143C57.294 61.7187 57.814 62.2618 58.1606 62.9436L56.5486 63.8796C56.3522 63.4636 56.0517 63.1401 55.6473 62.9089C55.2544 62.6663 54.798 62.5449 54.278 62.5449C53.5153 62.5449 52.874 62.8049 52.354 63.3249C51.8455 63.8565 51.5913 64.5036 51.5913 65.2663C51.5913 66.0289 51.8455 66.6761 52.354 67.2076C52.874 67.7276 53.5153 67.9876 54.278 67.9876C54.7864 67.9876 55.2429 67.8721 55.6473 67.6409C56.0633 67.3983 56.3753 67.0689 56.5833 66.6529L58.1953 67.5716C57.8255 68.2649 57.2882 68.8138 56.5833 69.2183C55.89 69.6227 55.1273 69.8249 54.2953 69.8249ZM66.745 68.5076C65.8667 69.3858 64.7863 69.8249 63.5036 69.8249C62.221 69.8249 61.1405 69.3858 60.2623 68.5076C59.3725 67.6178 58.9276 66.5374 58.9276 65.2663C58.9276 63.9952 59.3725 62.9147 60.2623 62.0249C61.1405 61.1467 62.221 60.7076 63.5036 60.7076C64.7863 60.7076 65.8667 61.1467 66.745 62.0249C67.6347 62.9147 68.0796 63.9952 68.0796 65.2663C68.0796 66.5374 67.6347 67.6178 66.745 68.5076ZM60.7996 65.2663C60.7996 66.0521 61.0596 66.7049 61.5796 67.2249C62.0996 67.7449 62.741 68.0049 63.5036 68.0049C64.2663 68.0049 64.9076 67.7449 65.4276 67.2249C65.9476 66.7049 66.2076 66.0521 66.2076 65.2663C66.2076 64.4805 65.9476 63.8276 65.4276 63.3076C64.9076 62.7876 64.2663 62.5276 63.5036 62.5276C62.741 62.5276 62.0996 62.7876 61.5796 63.3076C61.0596 63.8276 60.7996 64.4805 60.7996 65.2663ZM72.9005 67.5196L75.3098 60.9329H77.3551L73.9751 69.5996H71.8085L68.4285 60.9329H70.4738L72.9005 67.5196ZM86.574 66.0636H79.6754C79.814 66.7107 80.126 67.2134 80.6114 67.5716C81.1082 67.9298 81.7207 68.1089 82.4487 68.1089C83.4309 68.1089 84.1762 67.7507 84.6847 67.0343L86.2274 67.9356C85.3838 69.1952 84.1185 69.8249 82.4314 69.8249C81.0331 69.8249 79.8949 69.3974 79.0167 68.5423C78.15 67.6756 77.7167 66.5836 77.7167 65.2663C77.7167 63.9836 78.1442 62.9032 78.9994 62.0249C79.8429 61.1467 80.9407 60.7076 82.2927 60.7076C83.5523 60.7076 84.5923 61.1525 85.4127 62.0423C86.2331 62.9321 86.6434 64.0125 86.6434 65.2836C86.6434 65.5147 86.6203 65.7747 86.574 66.0636ZM79.658 64.5383H84.754C84.6269 63.8565 84.338 63.3307 83.8874 62.9609C83.4483 62.5912 82.9109 62.4063 82.2754 62.4063C81.582 62.4063 81.0042 62.5969 80.542 62.9783C80.0798 63.3596 79.7851 63.8796 79.658 64.5383ZM90.1626 60.9329V62.3889C90.6363 61.3143 91.5261 60.7769 92.8319 60.7769V62.8049C92.127 62.7587 91.503 62.9321 90.9599 63.3249C90.4283 63.7063 90.1626 64.3418 90.1626 65.2316V69.5996H88.2906V60.9329H90.1626ZM98.007 67.2249L100.226 60.9329H102.219L98.891 69.8769C98.059 72.1187 96.6492 73.1818 94.6616 73.0663V71.3156C95.2394 71.3503 95.7074 71.2289 96.0656 70.9516C96.4239 70.6743 96.7243 70.2294 96.967 69.6169L97.0536 69.4436L93.379 60.9329H95.4243L98.007 67.2249Z" fill="white"/>
</g>
<defs>
<clipPath id="clip0_674_782">
<rect width="130" height="130" fill="white"/>
</clipPath>
</defs>
</svg>
