<svg width="195" height="65" viewBox="0 0 195 65" fill="none" xmlns="http://www.w3.org/2000/svg">
<g clip-path="url(#clip0_1075_508)">
<mask id="mask0_1075_508" style="mask-type:luminance" maskUnits="userSpaceOnUse" x="0" y="0" width="195" height="65">
<path d="M195 0H0V65H195V0Z" fill="white"/>
</mask>
<g mask="url(#mask0_1075_508)">
<path d="M195 0H0V65H195V0Z" fill="#EB3949"/>
<path d="M74.957 25.6172H79.8103C81.4743 25.6172 82.8725 26.2007 84.005 27.3678C85.1374 28.5349 85.7036 29.9736 85.7036 31.6838C85.7036 33.4056 85.1374 34.8501 84.005 36.0172C82.8841 37.1727 81.4859 37.7505 79.8103 37.7505H74.957V25.6172ZM77.7303 35.0812H79.8103C80.7694 35.0812 81.5436 34.7749 82.133 34.1625C82.7339 33.5501 83.0343 32.7238 83.0343 31.6838C83.0343 30.6438 82.7339 29.8234 82.133 29.2225C81.5436 28.5985 80.7694 28.2865 79.8103 28.2865H77.7303V35.0812ZM95.6523 34.4572H89.499C89.7878 35.2661 90.4812 35.6705 91.579 35.6705C92.2838 35.6705 92.8385 35.4509 93.243 35.0118L95.323 36.2078C94.4794 37.3981 93.2198 37.9932 91.5443 37.9932C90.0998 37.9932 88.9327 37.5598 88.043 36.6932C87.1763 35.8265 86.743 34.7345 86.743 33.4172C86.743 32.1229 87.1705 31.0367 88.0256 30.1585C88.8923 29.2803 90.0016 28.8412 91.3536 28.8412C92.6132 28.8412 93.659 29.2803 94.491 30.1585C95.3345 31.0136 95.7563 32.0998 95.7563 33.4172C95.7563 33.7869 95.7216 34.1336 95.6523 34.4572ZM89.447 32.5158H93.1736C92.9194 31.6029 92.307 31.1465 91.3363 31.1465C90.331 31.1465 89.7012 31.6029 89.447 32.5158ZM102.056 29.0838V31.5798H100.271V34.6478C100.271 34.9829 100.404 35.2025 100.669 35.3065C100.935 35.3989 101.397 35.4278 102.056 35.3932V37.7505C100.415 37.9238 99.2708 37.7678 98.6237 37.2825C97.9882 36.7856 97.6704 35.9074 97.6704 34.6478V31.5798H96.2837V29.0838H97.6704V27.4372L100.271 26.6572V29.0838H102.056ZM110.778 36.6758C109.899 37.5541 108.813 37.9932 107.519 37.9932C106.225 37.9932 105.139 37.5541 104.26 36.6758C103.371 35.7861 102.926 34.6998 102.926 33.4172C102.926 32.1461 103.371 31.0656 104.26 30.1758C105.15 29.2861 106.236 28.8412 107.519 28.8412C108.802 28.8412 109.888 29.2861 110.778 30.1758C111.667 31.0656 112.112 32.1461 112.112 33.4172C112.112 34.6998 111.667 35.7861 110.778 36.6758ZM105.526 33.4172C105.526 34.0181 105.716 34.5092 106.098 34.8905C106.479 35.2718 106.953 35.4625 107.519 35.4625C108.085 35.4625 108.559 35.2718 108.94 34.8905C109.322 34.5092 109.512 34.0181 109.512 33.4172C109.512 32.8163 109.322 32.3252 108.94 31.9438C108.559 31.5625 108.085 31.3718 107.519 31.3718C106.953 31.3718 106.479 31.5625 106.098 31.9438C105.716 32.3252 105.526 32.8163 105.526 33.4172ZM118.104 33.3478L121.207 37.7505H118.226L116.614 35.4625L115.002 37.7505H112.02L115.123 33.3478L112.124 29.0838H115.106L116.614 31.2332L118.122 29.0838H121.103L118.104 33.3478Z" fill="white"/>
</g>
</g>
<defs>
<clipPath id="clip0_1075_508">
<rect width="195" height="65" fill="white"/>
</clipPath>
</defs>
</svg>
