<svg width="130" height="130" viewBox="0 0 130 130" fill="none" xmlns="http://www.w3.org/2000/svg">
<g clip-path="url(#clip0_674_788)">
<circle cx="65" cy="65" r="65" fill="#FF8DA1"/>
<path d="M25.5253 60.6903C26.6578 60.6903 27.6342 61.1352 28.4547 62.0249C29.2635 62.9032 29.668 63.9836 29.668 65.2663C29.668 66.5605 29.2635 67.6467 28.4547 68.5249C27.6458 69.4032 26.6693 69.8423 25.5253 69.8423C24.4044 69.8423 23.5435 69.4898 22.9427 68.7849V73.0663H20.3427V60.9329H22.9427V61.7476C23.5435 61.0427 24.4044 60.6903 25.5253 60.6903ZM23.5147 66.8089C23.9075 67.1903 24.4044 67.3809 25.0053 67.3809C25.6062 67.3809 26.0973 67.1903 26.4787 66.8089C26.8715 66.4276 27.068 65.9134 27.068 65.2663C27.068 64.6192 26.8715 64.1049 26.4787 63.7236C26.0973 63.3423 25.6062 63.1516 25.0053 63.1516C24.4044 63.1516 23.9075 63.3423 23.5147 63.7236C23.1333 64.1049 22.9427 64.6192 22.9427 65.2663C22.9427 65.9134 23.1333 66.4276 23.5147 66.8089ZM37.8155 62.1116V57.4663H40.5888V69.5996H37.8155V64.7809H34.0021V69.5996H31.2288V57.4663H34.0021V62.1116H37.8155ZM54.5275 63.3076C55.5213 63.9547 56.0182 64.8676 56.0182 66.0463C56.0182 67.0978 55.6426 67.9529 54.8915 68.6116C54.1404 69.2703 53.2102 69.5996 52.1008 69.5996H47.0048V57.4663H51.7542C52.8288 57.4663 53.736 57.7898 54.4755 58.4369C55.2151 59.0725 55.5848 59.9045 55.5848 60.9329C55.5848 61.9152 55.2324 62.7067 54.5275 63.3076ZM51.7542 60.0663H49.7782V62.2156H51.7542C52.0662 62.2156 52.3204 62.1174 52.5168 61.9209C52.7133 61.7129 52.8115 61.4529 52.8115 61.1409C52.8115 60.8289 52.7133 60.5747 52.5168 60.3783C52.3204 60.1703 52.0662 60.0663 51.7542 60.0663ZM49.7782 66.9996H52.1008C52.4475 66.9996 52.7248 66.8956 52.9328 66.6876C53.1408 66.4681 53.2448 66.1849 53.2448 65.8383C53.2448 65.4916 53.1408 65.2143 52.9328 65.0063C52.7248 64.7867 52.4475 64.6769 52.1008 64.6769H49.7782V66.9996ZM63.7727 61.7476V60.9329H66.3727V69.5996H63.7727V68.7849C63.1718 69.4898 62.3109 69.8423 61.19 69.8423C60.046 69.8423 59.0696 69.4032 58.2607 68.5249C57.4518 67.6467 57.0473 66.5605 57.0473 65.2663C57.0473 63.9836 57.4518 62.9032 58.2607 62.0249C59.0811 61.1352 60.0576 60.6903 61.19 60.6903C62.3109 60.6903 63.1718 61.0427 63.7727 61.7476ZM59.6473 65.2663C59.6473 65.9134 59.838 66.4276 60.2193 66.8089C60.6007 67.1903 61.0976 67.3809 61.71 67.3809C62.3225 67.3809 62.8193 67.1903 63.2007 66.8089C63.582 66.4276 63.7727 65.9134 63.7727 65.2663C63.7727 64.6192 63.582 64.1049 63.2007 63.7236C62.8193 63.3423 62.3225 63.1516 61.71 63.1516C61.0976 63.1516 60.6007 63.3423 60.2193 63.7236C59.838 64.1049 59.6473 64.6192 59.6473 65.2663ZM70.8802 69.5996H68.2802V56.9463H70.8802V69.5996ZM79.0748 61.7476V60.9329H81.6748V69.5996H79.0748V68.7849C78.4739 69.4898 77.613 69.8423 76.4921 69.8423C75.3481 69.8423 74.3716 69.4032 73.5628 68.5249C72.7539 67.6467 72.3494 66.5605 72.3494 65.2663C72.3494 63.9836 72.7539 62.9032 73.5628 62.0249C74.3832 61.1352 75.3596 60.6903 76.4921 60.6903C77.613 60.6903 78.4739 61.0427 79.0748 61.7476ZM74.9494 65.2663C74.9494 65.9134 75.1401 66.4276 75.5214 66.8089C75.9028 67.1903 76.3996 67.3809 77.0121 67.3809C77.6245 67.3809 78.1214 67.1903 78.5028 66.8089C78.8841 66.4276 79.0748 65.9134 79.0748 65.2663C79.0748 64.6192 78.8841 64.1049 78.5028 63.7236C78.1214 63.3423 77.6245 63.1516 77.0121 63.1516C76.3996 63.1516 75.9028 63.3423 75.5214 63.7236C75.1401 64.1049 74.9494 64.6192 74.9494 65.2663ZM88.6609 60.6903C89.5969 60.6903 90.3654 61.0081 90.9662 61.6436C91.5902 62.2907 91.9022 63.1689 91.9022 64.2783V69.5996H89.3022V64.6596C89.3022 64.1627 89.1636 63.7756 88.8862 63.4983C88.6089 63.2209 88.2449 63.0823 87.7942 63.0823C87.2858 63.0823 86.8871 63.2383 86.5982 63.5503C86.3209 63.8507 86.1822 64.2898 86.1822 64.8676V69.5996H83.5822V60.9329H86.1822V61.7476C86.7022 61.0427 87.5285 60.6903 88.6609 60.6903ZM97.8477 69.8423C96.5304 69.8423 95.4326 69.4032 94.5544 68.5249C93.6877 67.6467 93.2544 66.5605 93.2544 65.2663C93.2544 63.9721 93.6877 62.8858 94.5544 62.0076C95.4326 61.1294 96.5304 60.6903 97.8477 60.6903C98.6682 60.6903 99.4308 60.8925 100.136 61.2969C100.841 61.7014 101.384 62.2387 101.765 62.9089L99.4944 64.2263C99.1824 63.5792 98.6219 63.2556 97.813 63.2556C97.2468 63.2556 96.7788 63.4463 96.409 63.8276C96.0393 64.1974 95.8544 64.6769 95.8544 65.2663C95.8544 65.8556 96.0393 66.3409 96.409 66.7223C96.7788 67.0921 97.2468 67.2769 97.813 67.2769C98.6335 67.2769 99.1939 66.9534 99.4944 66.3063L101.765 67.6063C101.384 68.2996 100.841 68.8485 100.136 69.2529C99.4424 69.6458 98.6797 69.8423 97.8477 69.8423ZM111.118 66.3063H104.965C105.254 67.1152 105.947 67.5196 107.045 67.5196C107.75 67.5196 108.304 67.3001 108.709 66.8609L110.789 68.0569C109.945 69.2472 108.686 69.8423 107.01 69.8423C105.566 69.8423 104.399 69.4089 103.509 68.5423C102.642 67.6756 102.209 66.5836 102.209 65.2663C102.209 63.9721 102.636 62.8858 103.491 62.0076C104.358 61.1294 105.467 60.6903 106.819 60.6903C108.079 60.6903 109.125 61.1294 109.957 62.0076C110.8 62.8627 111.222 63.9489 111.222 65.2663C111.222 65.6361 111.187 65.9827 111.118 66.3063ZM104.913 64.3649H108.639C108.385 63.4521 107.773 62.9956 106.802 62.9956C105.797 62.9956 105.167 63.4521 104.913 64.3649Z" fill="white"/>
</g>
<defs>
<clipPath id="clip0_674_788">
<rect width="130" height="130" fill="white"/>
</clipPath>
</defs>
</svg>
