<svg width="195" height="65" viewBox="0 0 195 65" fill="none" xmlns="http://www.w3.org/2000/svg">
<g clip-path="url(#clip0_674_786)">
<rect width="195" height="65" fill="#FF8DA1"/>
<path d="M60.1438 37.9927C58.3296 37.9927 56.8216 37.3918 55.6198 36.19C54.4296 34.9882 53.8345 33.486 53.8345 31.6833C53.8345 29.8807 54.4296 28.3842 55.6198 27.194C56.81 25.9807 58.318 25.374 60.1438 25.374C61.23 25.374 62.2353 25.6282 63.1598 26.1367C64.0842 26.6336 64.8122 27.3153 65.3438 28.182L62.9518 29.5687C62.686 29.0949 62.3047 28.7309 61.8078 28.4767C61.3225 28.2109 60.7678 28.078 60.1438 28.078C59.0576 28.078 58.1967 28.4073 57.5611 29.066C56.9256 29.7131 56.6078 30.5856 56.6078 31.6833C56.6078 32.7811 56.9256 33.6536 57.5611 34.3007C58.1967 34.9593 59.0576 35.2887 60.1438 35.2887C60.7562 35.2887 61.3109 35.1558 61.8078 34.89C62.3162 34.6242 62.6976 34.2602 62.9518 33.798L65.3438 35.1847C64.8238 36.0513 64.1016 36.7389 63.1771 37.2473C62.2527 37.7442 61.2416 37.9927 60.1438 37.9927ZM69.1181 27.87C68.8177 28.1704 68.4537 28.3207 68.0261 28.3207C67.5986 28.3207 67.2288 28.1704 66.9168 27.87C66.6163 27.558 66.4661 27.1882 66.4661 26.7607C66.4661 26.3331 66.6163 25.9691 66.9168 25.6687C67.2288 25.3567 67.5986 25.2007 68.0261 25.2007C68.4537 25.2007 68.8177 25.3567 69.1181 25.6687C69.4301 25.9691 69.5861 26.3331 69.5861 26.7607C69.5861 27.1882 69.4301 27.558 69.1181 27.87ZM69.3261 37.75H66.7261V29.0833H69.3261V37.75ZM73.8287 29.0833V30.626C73.9905 30.0829 74.3083 29.6611 74.7821 29.3607C75.2674 29.0602 75.8163 28.91 76.4287 28.91V31.8567C75.7816 31.7527 75.1865 31.8624 74.6434 32.186C74.1003 32.498 73.8287 33.0469 73.8287 33.8327V37.75H71.2287V29.0833H73.8287ZM81.5502 37.9927C80.2328 37.9927 79.1351 37.5536 78.2568 36.6753C77.3902 35.7971 76.9568 34.7109 76.9568 33.4167C76.9568 32.1224 77.3902 31.0362 78.2568 30.158C79.1351 29.2798 80.2328 28.8407 81.5502 28.8407C82.3706 28.8407 83.1333 29.0429 83.8382 29.4473C84.5431 29.8518 85.0862 30.3891 85.4675 31.0593L83.1969 32.3767C82.8848 31.7296 82.3244 31.406 81.5155 31.406C80.9493 31.406 80.4813 31.5967 80.1115 31.978C79.7417 32.3478 79.5568 32.8273 79.5568 33.4167C79.5568 34.006 79.7417 34.4913 80.1115 34.8727C80.4813 35.2424 80.9493 35.4273 81.5155 35.4273C82.336 35.4273 82.8964 35.1038 83.1969 34.4567L85.4675 35.7567C85.0862 36.45 84.5431 36.9989 83.8382 37.4033C83.1449 37.7962 82.3822 37.9927 81.5502 37.9927ZM92.1972 33.8153V29.0833L94.7972 29.0833V37.75H92.1972V36.9353C91.6772 37.6402 90.851 37.9927 89.7185 37.9927C88.7941 37.9927 88.0199 37.6749 87.3959 37.0393C86.7834 36.3922 86.4772 35.514 86.4772 34.4047V29.0833H89.0772V34.0233C89.0772 34.5202 89.2159 34.9073 89.4932 35.1847C89.7705 35.462 90.1345 35.6007 90.5852 35.6007C91.0936 35.6007 91.4865 35.4504 91.7639 35.15C92.0527 34.838 92.1972 34.3931 92.1972 33.8153ZM99.304 37.75H96.704V25.0967H99.304V37.75ZM107.499 29.898V29.0833H110.099V37.75H107.499V36.9353C106.898 37.6402 106.037 37.9927 104.916 37.9927C103.772 37.9927 102.795 37.5536 101.987 36.6753C101.178 35.7971 100.773 34.7109 100.773 33.4167C100.773 32.134 101.178 31.0536 101.987 30.1753C102.807 29.2856 103.783 28.8407 104.916 28.8407C106.037 28.8407 106.898 29.1931 107.499 29.898ZM103.373 33.4167C103.373 34.0638 103.564 34.578 103.945 34.9593C104.327 35.3407 104.823 35.5313 105.436 35.5313C106.048 35.5313 106.545 35.3407 106.927 34.9593C107.308 34.578 107.499 34.0638 107.499 33.4167C107.499 32.7696 107.308 32.2553 106.927 31.874C106.545 31.4927 106.048 31.302 105.436 31.302C104.823 31.302 104.327 31.4927 103.945 31.874C103.564 32.2553 103.373 32.7696 103.373 33.4167ZM117.085 29.0833V31.5793H115.299V34.6473C115.299 34.9824 115.432 35.202 115.698 35.306C115.964 35.3984 116.426 35.4273 117.085 35.3927V37.75C115.444 37.9233 114.3 37.7673 113.653 37.282C113.017 36.7851 112.699 35.9069 112.699 34.6473V31.5793H111.313V29.0833H112.699V27.4367L115.299 26.6567V29.0833H117.085ZM120.949 27.87C120.648 28.1704 120.284 28.3207 119.857 28.3207C119.429 28.3207 119.06 28.1704 118.748 27.87C118.447 27.558 118.297 27.1882 118.297 26.7607C118.297 26.3331 118.447 25.9691 118.748 25.6687C119.06 25.3567 119.429 25.2007 119.857 25.2007C120.284 25.2007 120.648 25.3567 120.949 25.6687C121.261 25.9691 121.417 26.3331 121.417 26.7607C121.417 27.1882 121.261 27.558 120.949 27.87ZM121.157 37.75H118.557V29.0833H121.157V37.75ZM130.478 36.6753C129.6 37.5536 128.514 37.9927 127.219 37.9927C125.925 37.9927 124.839 37.5536 123.961 36.6753C123.071 35.7856 122.626 34.6993 122.626 33.4167C122.626 32.1456 123.071 31.0651 123.961 30.1753C124.851 29.2856 125.937 28.8407 127.219 28.8407C128.502 28.8407 129.588 29.2856 130.478 30.1753C131.368 31.0651 131.813 32.1456 131.813 33.4167C131.813 34.6993 131.368 35.7856 130.478 36.6753ZM125.226 33.4167C125.226 34.0176 125.417 34.5087 125.798 34.89C126.179 35.2713 126.653 35.462 127.219 35.462C127.786 35.462 128.259 35.2713 128.641 34.89C129.022 34.5087 129.213 34.0176 129.213 33.4167C129.213 32.8158 129.022 32.3247 128.641 31.9433C128.259 31.562 127.786 31.3713 127.219 31.3713C126.653 31.3713 126.179 31.562 125.798 31.9433C125.417 32.3247 125.226 32.8158 125.226 33.4167ZM138.362 28.8407C139.298 28.8407 140.067 29.1584 140.667 29.794C141.291 30.4411 141.603 31.3193 141.603 32.4287V37.75H139.003V32.81C139.003 32.3131 138.865 31.926 138.587 31.6487C138.31 31.3713 137.946 31.2327 137.495 31.2327C136.987 31.2327 136.588 31.3887 136.299 31.7007C136.022 32.0011 135.883 32.4402 135.883 33.018V37.75H133.283V29.0833H135.883V29.898C136.403 29.1931 137.23 28.8407 138.362 28.8407Z" fill="white"/>
</g>
<defs>
<clipPath id="clip0_674_786">
<rect width="195" height="65" fill="white"/>
</clipPath>
</defs>
</svg>
