<svg width="195" height="65" viewBox="0 0 195 65" fill="none" xmlns="http://www.w3.org/2000/svg">
<g clip-path="url(#clip0_1075_492)">
<mask id="mask0_1075_492" style="mask-type:luminance" maskUnits="userSpaceOnUse" x="0" y="0" width="195" height="65">
<path d="M195 0H0V65H195V0Z" fill="white"/>
</mask>
<g mask="url(#mask0_1075_492)">
<path d="M195 0H0V65H195V0Z" fill="#FF8DA1"/>
<path d="M61.5084 25.6177H64.2818V37.751H61.5084V30.6963L58.3711 35.8443H58.0591L54.9218 30.6963V37.751H52.1484V25.6177H54.9218L58.2151 31.0083L61.5084 25.6177ZM74.7565 34.4577H68.6032C68.8921 35.2666 69.5854 35.671 70.6832 35.671C71.3881 35.671 71.9427 35.4514 72.3472 35.0123L74.4272 36.2083C73.5836 37.3986 72.3241 37.9937 70.6485 37.9937C69.2041 37.9937 68.037 37.5603 67.1472 36.6937C66.2805 35.827 65.8472 34.735 65.8472 33.4177C65.8472 32.1234 66.2747 31.0372 67.1298 30.159C67.9965 29.2808 69.1058 28.8417 70.4578 28.8417C71.7174 28.8417 72.7632 29.2808 73.5952 30.159C74.4387 31.0141 74.8605 32.1003 74.8605 33.4177C74.8605 33.7874 74.8258 34.1341 74.7565 34.4577ZM68.5512 32.5163H72.2778C72.0236 31.6034 71.4112 31.147 70.4405 31.147C69.4352 31.147 68.8054 31.6034 68.5512 32.5163ZM81.16 29.0843V31.5803H79.3746V34.6483C79.3746 34.9834 79.5075 35.203 79.7733 35.307C80.0391 35.3994 80.5013 35.4283 81.16 35.3937V37.751C79.5191 37.9243 78.3751 37.7683 77.728 37.283C77.0924 36.7861 76.7746 35.9079 76.7746 34.6483V31.5803H75.388V29.0843H76.7746V27.4377L79.3746 26.6577V29.0843H81.16ZM88.7548 29.899V29.0843H91.3548V37.751H88.7548V36.9363C88.1539 37.6412 87.293 37.9937 86.1721 37.9937C85.0281 37.9937 84.0517 37.5546 83.2428 36.6763C82.4339 35.7981 82.0295 34.7119 82.0295 33.4177C82.0295 32.135 82.4339 31.0546 83.2428 30.1763C84.0632 29.2866 85.0397 28.8417 86.1721 28.8417C87.293 28.8417 88.1539 29.1941 88.7548 29.899ZM84.6295 33.4177C84.6295 34.0648 84.8201 34.579 85.2015 34.9603C85.5828 35.3417 86.0797 35.5323 86.6921 35.5323C87.3046 35.5323 87.8015 35.3417 88.1828 34.9603C88.5641 34.579 88.7548 34.0648 88.7548 33.4177C88.7548 32.7706 88.5641 32.2563 88.1828 31.875C87.8015 31.4937 87.3046 31.303 86.6921 31.303C86.0797 31.303 85.5828 31.4937 85.2015 31.875C84.8201 32.2563 84.6295 32.7706 84.6295 33.4177ZM98.4449 28.8417C99.5774 28.8417 100.553 29.2866 101.374 30.1763C102.183 31.0546 102.587 32.135 102.587 33.4177C102.587 34.7119 102.183 35.7981 101.374 36.6763C100.565 37.5546 99.5889 37.9937 98.4449 37.9937C97.3241 37.9937 96.4632 37.6412 95.8623 36.9363V37.751H93.2623V25.6177H95.8623V29.899C96.4632 29.1941 97.3241 28.8417 98.4449 28.8417ZM96.4343 34.9603C96.8272 35.3417 97.3241 35.5323 97.9249 35.5323C98.5258 35.5323 99.0169 35.3417 99.3983 34.9603C99.7912 34.579 99.9876 34.0648 99.9876 33.4177C99.9876 32.7706 99.7912 32.2563 99.3983 31.875C99.0169 31.4937 98.5258 31.303 97.9249 31.303C97.3241 31.303 96.8272 31.4937 96.4343 31.875C96.0529 32.2563 95.8623 32.7706 95.8623 33.4177C95.8623 34.0648 96.0529 34.579 96.4343 34.9603ZM111.48 36.6763C110.602 37.5546 109.516 37.9937 108.221 37.9937C106.927 37.9937 105.841 37.5546 104.963 36.6763C104.073 35.7866 103.628 34.7003 103.628 33.4177C103.628 32.1466 104.073 31.0661 104.963 30.1763C105.852 29.2866 106.939 28.8417 108.221 28.8417C109.504 28.8417 110.59 29.2866 111.48 30.1763C112.37 31.0661 112.815 32.1466 112.815 33.4177C112.815 34.7003 112.37 35.7866 111.48 36.6763ZM106.228 33.4177C106.228 34.0186 106.419 34.5097 106.8 34.891C107.181 35.2723 107.655 35.463 108.221 35.463C108.788 35.463 109.261 35.2723 109.643 34.891C110.024 34.5097 110.215 34.0186 110.215 33.4177C110.215 32.8168 110.024 32.3257 109.643 31.9443C109.261 31.563 108.788 31.3723 108.221 31.3723C107.655 31.3723 107.181 31.563 106.8 31.9443C106.419 32.3257 106.228 32.8168 106.228 33.4177ZM116.885 37.751H114.285V25.0977H116.885V37.751ZM121.18 27.871C120.879 28.1714 120.515 28.3217 120.088 28.3217C119.66 28.3217 119.291 28.1714 118.979 27.871C118.678 27.559 118.528 27.1892 118.528 26.7617C118.528 26.3341 118.678 25.9701 118.979 25.6697C119.291 25.3577 119.66 25.2017 120.088 25.2017C120.515 25.2017 120.879 25.3577 121.18 25.6697C121.492 25.9701 121.648 26.3341 121.648 26.7617C121.648 27.1892 121.492 27.559 121.18 27.871ZM121.388 37.751H118.788V29.0843H121.388V37.751ZM125.667 31.615C125.667 31.7652 125.789 31.8981 126.031 32.0137C126.274 32.1177 126.655 32.239 127.175 32.3777C129.024 32.7821 129.943 33.7066 129.931 35.151C129.931 36.087 129.585 36.7977 128.891 37.283C128.186 37.7568 127.331 37.9937 126.326 37.9937C124.5 37.9937 123.258 37.3061 122.599 35.931L124.853 34.6483C125.084 35.3301 125.575 35.671 126.326 35.671C126.95 35.671 127.262 35.4919 127.262 35.1337C127.262 34.8794 126.759 34.6252 125.754 34.371C125.384 34.267 125.066 34.163 124.801 34.059C124.535 33.9434 124.246 33.7874 123.934 33.591C123.633 33.383 123.402 33.1172 123.241 32.7937C123.079 32.4701 122.998 32.1003 122.998 31.6843C122.998 30.7946 123.321 30.0954 123.969 29.587C124.616 29.0901 125.425 28.8417 126.395 28.8417C127.909 28.8417 129.036 29.4599 129.775 30.6963L127.557 31.8923C127.279 31.3839 126.892 31.1297 126.395 31.1297C125.91 31.1297 125.667 31.2914 125.667 31.615ZM141.021 28.8417C142.003 28.8417 142.8 29.171 143.413 29.8297C144.014 30.4652 144.314 31.3319 144.314 32.4297V37.751H141.714V32.655C141.714 32.2043 141.604 31.8577 141.385 31.615C141.177 31.3608 140.87 31.2337 140.466 31.2337C140.038 31.2337 139.703 31.3781 139.461 31.667C139.23 31.9559 139.114 32.3546 139.114 32.863V37.751H136.514V32.655C136.514 32.2043 136.404 31.8577 136.185 31.615C135.977 31.3608 135.67 31.2337 135.266 31.2337C134.838 31.2337 134.503 31.3781 134.261 31.667C134.03 31.9559 133.914 32.3546 133.914 32.863V37.751H131.314V29.0843H133.914V29.8817C134.388 29.1883 135.162 28.8417 136.237 28.8417C137.242 28.8417 137.999 29.223 138.507 29.9857C139.039 29.223 139.877 28.8417 141.021 28.8417Z" fill="white"/>
</g>
</g>
<defs>
<clipPath id="clip0_1075_492">
<rect width="195" height="65" fill="white"/>
</clipPath>
</defs>
</svg>
