<svg width="130" height="130" viewBox="0 0 130 130" fill="none" xmlns="http://www.w3.org/2000/svg">
<g clip-path="url(#clip0_674_787)">
<circle cx="65" cy="65" r="65" fill="#FF8DA1"/>
<path d="M42.2854 59.2002H39.252L38.6454 57.2935H34.1387L33.532 59.2002H30.4987L34.624 47.0669H38.16L42.2854 59.2002ZM36.392 50.2389L34.9707 54.6935H37.8134L36.392 50.2389ZM48.4159 50.2909C49.5484 50.2909 50.5248 50.7358 51.3453 51.6255C52.1542 52.5038 52.5586 53.5842 52.5586 54.8669C52.5586 56.1611 52.1542 57.2473 51.3453 58.1255C50.5364 59.0038 49.5599 59.4429 48.4159 59.4429C47.2951 59.4429 46.4342 59.0904 45.8333 58.3855V62.6669H43.2333V50.5335H45.8333V51.3482C46.4342 50.6433 47.2951 50.2909 48.4159 50.2909ZM46.4053 56.4095C46.7982 56.7909 47.2951 56.9815 47.8959 56.9815C48.4968 56.9815 48.9879 56.7909 49.3693 56.4095C49.7622 56.0282 49.9586 55.514 49.9586 54.8669C49.9586 54.2198 49.7622 53.7055 49.3693 53.3242C48.9879 52.9429 48.4968 52.7522 47.8959 52.7522C47.2951 52.7522 46.7982 52.9429 46.4053 53.3242C46.0239 53.7055 45.8333 54.2198 45.8333 54.8669C45.8333 55.514 46.0239 56.0282 46.4053 56.4095ZM59.2154 50.2909C60.3479 50.2909 61.3243 50.7358 62.1448 51.6255C62.9536 52.5038 63.3581 53.5842 63.3581 54.8669C63.3581 56.1611 62.9536 57.2473 62.1448 58.1255C61.3359 59.0038 60.3594 59.4429 59.2154 59.4429C58.0945 59.4429 57.2336 59.0904 56.6328 58.3855V62.6669H54.0328V50.5335H56.6328V51.3482C57.2336 50.6433 58.0945 50.2909 59.2154 50.2909ZM57.2048 56.4095C57.5976 56.7909 58.0945 56.9815 58.6954 56.9815C59.2963 56.9815 59.7874 56.7909 60.1688 56.4095C60.5616 56.0282 60.7581 55.514 60.7581 54.8669C60.7581 54.2198 60.5616 53.7055 60.1688 53.3242C59.7874 52.9429 59.2963 52.7522 58.6954 52.7522C58.0945 52.7522 57.5976 52.9429 57.2048 53.3242C56.8234 53.7055 56.6328 54.2198 56.6328 54.8669C56.6328 55.514 56.8234 56.0282 57.2048 56.4095ZM73.3082 55.9069H67.1549C67.4438 56.7158 68.1371 57.1202 69.2349 57.1202C69.9398 57.1202 70.4945 56.9006 70.8989 56.4615L72.9789 57.6575C72.1354 58.8478 70.8758 59.4429 69.2002 59.4429C67.7558 59.4429 66.5887 59.0095 65.6989 58.1429C64.8322 57.2762 64.3989 56.1842 64.3989 54.8669C64.3989 53.5726 64.8265 52.4864 65.6816 51.6082C66.5482 50.73 67.6576 50.2909 69.0096 50.2909C70.2691 50.2909 71.3149 50.73 72.1469 51.6082C72.9905 52.4633 73.4122 53.5495 73.4122 54.8669C73.4122 55.2366 73.3776 55.5833 73.3082 55.9069ZM67.1029 53.9655H70.8296C70.5754 53.0526 69.9629 52.5962 68.9922 52.5962C67.9869 52.5962 67.3571 53.0526 67.1029 53.9655ZM79.7117 50.5335V53.0295H77.9264V56.0975C77.9264 56.4326 78.0592 56.6522 78.325 56.7562C78.5908 56.8486 79.053 56.8775 79.7117 56.8429V59.2002C78.0708 59.3735 76.9268 59.2175 76.2797 58.7322C75.6441 58.2353 75.3264 57.3571 75.3264 56.0975V53.0295H73.9397V50.5335H75.3264V48.8869L77.9264 48.1069V50.5335H79.7117ZM83.5758 49.3202C83.2754 49.6206 82.9114 49.7709 82.4838 49.7709C82.0562 49.7709 81.6865 49.6206 81.3745 49.3202C81.074 49.0082 80.9238 48.6384 80.9238 48.2109C80.9238 47.7833 81.074 47.4193 81.3745 47.1189C81.6865 46.8069 82.0562 46.6509 82.4838 46.6509C82.9114 46.6509 83.2754 46.8069 83.5758 47.1189C83.8878 47.4193 84.0438 47.7833 84.0438 48.2109C84.0438 48.6384 83.8878 49.0082 83.5758 49.3202ZM83.7838 59.2002H81.1838V50.5335H83.7838V59.2002ZM90.7651 50.5335V53.0295H88.9797V56.0975C88.9797 56.4326 89.1126 56.6522 89.3784 56.7562C89.6442 56.8486 90.1064 56.8775 90.7651 56.8429V59.2002C89.1242 59.3735 87.9802 59.2175 87.3331 58.7322C86.6975 58.2353 86.3797 57.3571 86.3797 56.0975V53.0295H84.9931V50.5335H86.3797V48.8869L88.9797 48.1069V50.5335H90.7651ZM100.544 55.9069H94.3906C94.6795 56.7158 95.3728 57.1202 96.4706 57.1202C97.1755 57.1202 97.7301 56.9006 98.1346 56.4615L100.215 57.6575C99.371 58.8478 98.1115 59.4429 96.4359 59.4429C94.9915 59.4429 93.8244 59.0095 92.9346 58.1429C92.0679 57.2762 91.6346 56.1842 91.6346 54.8669C91.6346 53.5726 92.0621 52.4864 92.9172 51.6082C93.7839 50.73 94.8932 50.2909 96.2452 50.2909C97.5048 50.2909 98.5506 50.73 99.3826 51.6082C100.226 52.4633 100.648 53.5495 100.648 54.8669C100.648 55.2366 100.613 55.5833 100.544 55.9069ZM94.3386 53.9655H98.0652C97.811 53.0526 97.1986 52.5962 96.2279 52.5962C95.2226 52.5962 94.5928 53.0526 94.3386 53.9655ZM42.5077 80.4429C40.6935 80.4429 39.1855 79.842 37.9837 78.6402C36.7935 77.4384 36.1984 75.9362 36.1984 74.1335C36.1984 72.3309 36.7935 70.8344 37.9837 69.6442C39.1739 68.4309 40.6819 67.8242 42.5077 67.8242C43.5939 67.8242 44.5993 68.0784 45.5237 68.5869C46.4482 69.0837 47.1762 69.7655 47.7077 70.6322L45.3157 72.0189C45.0499 71.5451 44.6686 71.1811 44.1717 70.9269C43.6864 70.6611 43.1317 70.5282 42.5077 70.5282C41.4215 70.5282 40.5606 70.8575 39.9251 71.5162C39.2895 72.1633 38.9717 73.0358 38.9717 74.1335C38.9717 75.2313 39.2895 76.1038 39.9251 76.7509C40.5606 77.4095 41.4215 77.7389 42.5077 77.7389C43.1202 77.7389 43.6748 77.606 44.1717 77.3402C44.6802 77.0744 45.0615 76.7104 45.3157 76.2482L47.7077 77.6349C47.1877 78.5015 46.4655 79.1891 45.5411 79.6975C44.6166 80.1944 43.6055 80.4429 42.5077 80.4429ZM56.4241 79.1255C55.5459 80.0038 54.4596 80.4429 53.1654 80.4429C51.8712 80.4429 50.785 80.0038 49.9067 79.1255C49.017 78.2358 48.5721 77.1495 48.5721 75.8669C48.5721 74.5958 49.017 73.5153 49.9067 72.6255C50.7965 71.7358 51.8827 71.2909 53.1654 71.2909C54.4481 71.2909 55.5343 71.7358 56.4241 72.6255C57.3139 73.5153 57.7587 74.5958 57.7587 75.8669C57.7587 77.1495 57.3139 78.2358 56.4241 79.1255ZM51.1721 75.8669C51.1721 76.4678 51.3627 76.9589 51.7441 77.3402C52.1254 77.7215 52.5992 77.9122 53.1654 77.9122C53.7316 77.9122 54.2054 77.7215 54.5867 77.3402C54.9681 76.9589 55.1587 76.4678 55.1587 75.8669C55.1587 75.266 54.9681 74.7749 54.5867 74.3935C54.2054 74.0122 53.7316 73.8215 53.1654 73.8215C52.5992 73.8215 52.1254 74.0122 51.7441 74.3935C51.3627 74.7749 51.1721 75.266 51.1721 75.8669ZM64.308 71.2909C65.244 71.2909 66.0125 71.6086 66.6134 72.2442C67.2374 72.8913 67.5494 73.7695 67.5494 74.8789V80.2002H64.9494V75.2602C64.9494 74.7633 64.8107 74.3762 64.5334 74.0989C64.256 73.8215 63.892 73.6829 63.4414 73.6829C62.9329 73.6829 62.5343 73.8389 62.2454 74.1509C61.968 74.4513 61.8294 74.8904 61.8294 75.4682V80.2002H59.2294V71.5335H61.8294V72.3482C62.3494 71.6433 63.1756 71.2909 64.308 71.2909ZM74.4135 71.5335V74.0295H72.6282V77.0975C72.6282 77.4326 72.7611 77.6522 73.0268 77.7562C73.2926 77.8486 73.7548 77.8775 74.4135 77.8429V80.2002C72.7726 80.3735 71.6286 80.2175 70.9815 79.7322C70.346 79.2353 70.0282 78.3571 70.0282 77.0975V74.0295H68.6415V71.5335H70.0282V69.8869L72.6282 69.1069V71.5335H74.4135ZM78.6549 71.5335V73.0762C78.8167 72.5331 79.1345 72.1113 79.6082 71.8109C80.0936 71.5104 80.6425 71.3602 81.2549 71.3602V74.3069C80.6078 74.2029 80.0127 74.3126 79.4696 74.6362C78.9265 74.9482 78.6549 75.4971 78.6549 76.2829V80.2002H76.0549V71.5335H78.6549ZM89.635 79.1255C88.7568 80.0038 87.6706 80.4429 86.3764 80.4429C85.0821 80.4429 83.9959 80.0038 83.1177 79.1255C82.2279 78.2358 81.783 77.1495 81.783 75.8669C81.783 74.5958 82.2279 73.5153 83.1177 72.6255C84.0075 71.7358 85.0937 71.2909 86.3764 71.2909C87.659 71.2909 88.7452 71.7358 89.635 72.6255C90.5248 73.5153 90.9697 74.5958 90.9697 75.8669C90.9697 77.1495 90.5248 78.2358 89.635 79.1255ZM84.383 75.8669C84.383 76.4678 84.5737 76.9589 84.955 77.3402C85.3364 77.7215 85.8101 77.9122 86.3764 77.9122C86.9426 77.9122 87.4164 77.7215 87.7977 77.3402C88.179 76.9589 88.3697 76.4678 88.3697 75.8669C88.3697 75.266 88.179 74.7749 87.7977 74.3935C87.4164 74.0122 86.9426 73.8215 86.3764 73.8215C85.8101 73.8215 85.3364 74.0122 84.955 74.3935C84.5737 74.7749 84.383 75.266 84.383 75.8669ZM95.0403 80.2002H92.4403V67.5469H95.0403V80.2002Z" fill="white"/>
</g>
<defs>
<clipPath id="clip0_674_787">
<rect width="130" height="130" fill="white"/>
</clipPath>
</defs>
</svg>
