<svg width="130" height="130" viewBox="0 0 130 130" fill="none" xmlns="http://www.w3.org/2000/svg">
<g clip-path="url(#clip0_1075_484)">
<mask id="mask0_1075_484" style="mask-type:luminance" maskUnits="userSpaceOnUse" x="0" y="0" width="130" height="130">
<path d="M130 0H0V130H130V0Z" fill="white"/>
</mask>
<g mask="url(#mask0_1075_484)">
<path d="M65 130C100.899 130 130 100.899 130 65C130 29.1015 100.899 0 65 0C29.1015 0 0 29.1015 0 65C0 100.899 29.1015 130 65 130Z" fill="#EB3949"/>
<path d="M42.2867 59.2016H39.2533L38.6467 57.2949H34.14L33.5333 59.2016H30.5L34.6253 47.0683H38.1613L42.2867 59.2016ZM36.3933 50.2403L34.972 54.6949H37.8147L36.3933 50.2403ZM48.4172 50.2923C49.5497 50.2923 50.5261 50.7372 51.3466 51.6269C52.1555 52.5052 52.5599 53.5856 52.5599 54.8683C52.5599 56.1625 52.1555 57.2487 51.3466 58.1269C50.5377 59.0052 49.5612 59.4443 48.4172 59.4443C47.2964 59.4443 46.4355 59.0918 45.8346 58.3869V62.6683H43.2346V50.5349H45.8346V51.3496C46.4355 50.6447 47.2964 50.2923 48.4172 50.2923ZM46.4066 56.4109C46.7995 56.7923 47.2964 56.9829 47.8972 56.9829C48.4981 56.9829 48.9892 56.7923 49.3706 56.4109C49.7635 56.0296 49.9599 55.5154 49.9599 54.8683C49.9599 54.2212 49.7635 53.7069 49.3706 53.3256C48.9892 52.9443 48.4981 52.7536 47.8972 52.7536C47.2964 52.7536 46.7995 52.9443 46.4066 53.3256C46.0252 53.7069 45.8346 54.2212 45.8346 54.8683C45.8346 55.5154 46.0252 56.0296 46.4066 56.4109ZM59.2167 50.2923C60.3492 50.2923 61.3256 50.7372 62.1461 51.6269C62.9549 52.5052 63.3594 53.5856 63.3594 54.8683C63.3594 56.1625 62.9549 57.2487 62.1461 58.1269C61.3372 59.0052 60.3607 59.4443 59.2167 59.4443C58.0958 59.4443 57.2349 59.0918 56.6341 58.3869V62.6683H54.0341V50.5349H56.6341V51.3496C57.2349 50.6447 58.0958 50.2923 59.2167 50.2923ZM57.2061 56.4109C57.5989 56.7923 58.0958 56.9829 58.6967 56.9829C59.2976 56.9829 59.7887 56.7923 60.1701 56.4109C60.5629 56.0296 60.7594 55.5154 60.7594 54.8683C60.7594 54.2212 60.5629 53.7069 60.1701 53.3256C59.7887 52.9443 59.2976 52.7536 58.6967 52.7536C58.0958 52.7536 57.5989 52.9443 57.2061 53.3256C56.8247 53.7069 56.6341 54.2212 56.6341 54.8683C56.6341 55.5154 56.8247 56.0296 57.2061 56.4109ZM73.3095 55.9083H67.1562C67.4451 56.7172 68.1384 57.1216 69.2362 57.1216C69.9411 57.1216 70.4958 56.902 70.9002 56.4629L72.9802 57.6589C72.1367 58.8492 70.8771 59.4443 69.2015 59.4443C67.7571 59.4443 66.59 59.0109 65.7002 58.1443C64.8335 57.2776 64.4002 56.1856 64.4002 54.8683C64.4002 53.574 64.8278 52.4878 65.6829 51.6096C66.5495 50.7314 67.6589 50.2923 69.0109 50.2923C70.2704 50.2923 71.3162 50.7314 72.1482 51.6096C72.9918 52.4647 73.4135 53.5509 73.4135 54.8683C73.4135 55.238 73.3789 55.5847 73.3095 55.9083ZM67.1042 53.9669H70.8309C70.5767 53.054 69.9642 52.5976 68.9935 52.5976C67.9882 52.5976 67.3584 53.054 67.1042 53.9669ZM79.713 50.5349V53.0309H77.9277V56.0989C77.9277 56.434 78.0605 56.6536 78.3263 56.7576C78.5921 56.85 79.0543 56.8789 79.713 56.8443V59.2016C78.0721 59.3749 76.9281 59.2189 76.281 58.7336C75.6454 58.2367 75.3277 57.3585 75.3277 56.0989V53.0309H73.941V50.5349H75.3277V48.8883L77.9277 48.1083V50.5349H79.713ZM83.5771 49.3216C83.2767 49.622 82.9127 49.7723 82.4851 49.7723C82.0575 49.7723 81.6878 49.622 81.3758 49.3216C81.0753 49.0096 80.9251 48.6398 80.9251 48.2123C80.9251 47.7847 81.0753 47.4207 81.3758 47.1203C81.6878 46.8083 82.0575 46.6523 82.4851 46.6523C82.9127 46.6523 83.2767 46.8083 83.5771 47.1203C83.8891 47.4207 84.0451 47.7847 84.0451 48.2123C84.0451 48.6398 83.8891 49.0096 83.5771 49.3216ZM83.7851 59.2016H81.1851V50.5349H83.7851V59.2016ZM90.7664 50.5349V53.0309H88.981V56.0989C88.981 56.434 89.1139 56.6536 89.3797 56.7576C89.6455 56.85 90.1077 56.8789 90.7664 56.8443V59.2016C89.1255 59.3749 87.9815 59.2189 87.3344 58.7336C86.6988 58.2367 86.381 57.3585 86.381 56.0989V53.0309H84.9944V50.5349H86.381V48.8883L88.981 48.1083V50.5349H90.7664ZM100.545 55.9083H94.3919C94.6808 56.7172 95.3741 57.1216 96.4719 57.1216C97.1768 57.1216 97.7314 56.902 98.1359 56.4629L100.216 57.6589C99.3723 58.8492 98.1128 59.4443 96.4372 59.4443C94.9928 59.4443 93.8257 59.0109 92.9359 58.1443C92.0692 57.2776 91.6359 56.1856 91.6359 54.8683C91.6359 53.574 92.0634 52.4878 92.9185 51.6096C93.7852 50.7314 94.8945 50.2923 96.2465 50.2923C97.5061 50.2923 98.5519 50.7314 99.3839 51.6096C100.227 52.4647 100.649 53.5509 100.649 54.8683C100.649 55.238 100.614 55.5847 100.545 55.9083ZM94.3399 53.9669H98.0665C97.8123 53.054 97.1999 52.5976 96.2292 52.5976C95.2239 52.5976 94.5941 53.054 94.3399 53.9669ZM42.509 80.4443C40.6948 80.4443 39.1868 79.8434 37.985 78.6416C36.7948 77.4398 36.1997 75.9376 36.1997 74.1349C36.1997 72.3323 36.7948 70.8358 37.985 69.6456C39.1752 68.4323 40.6832 67.8256 42.509 67.8256C43.5952 67.8256 44.6006 68.0798 45.525 68.5883C46.4495 69.0851 47.1775 69.7669 47.709 70.6336L45.317 72.0203C45.0512 71.5465 44.6699 71.1825 44.173 70.9283C43.6877 70.6625 43.133 70.5296 42.509 70.5296C41.4228 70.5296 40.5619 70.8589 39.9264 71.5176C39.2908 72.1647 38.973 73.0372 38.973 74.1349C38.973 75.2327 39.2908 76.1052 39.9264 76.7523C40.5619 77.4109 41.4228 77.7403 42.509 77.7403C43.1215 77.7403 43.6761 77.6074 44.173 77.3416C44.6815 77.0758 45.0628 76.7118 45.317 76.2496L47.709 77.6363C47.189 78.5029 46.4668 79.1905 45.5424 79.6989C44.6179 80.1958 43.6068 80.4443 42.509 80.4443ZM56.4254 79.1269C55.5472 80.0052 54.4609 80.4443 53.1667 80.4443C51.8725 80.4443 50.7863 80.0052 49.908 79.1269C49.0183 78.2372 48.5734 77.1509 48.5734 75.8683C48.5734 74.5972 49.0183 73.5167 49.908 72.6269C50.7978 71.7372 51.884 71.2923 53.1667 71.2923C54.4494 71.2923 55.5356 71.7372 56.4254 72.6269C57.3152 73.5167 57.76 74.5972 57.76 75.8683C57.76 77.1509 57.3152 78.2372 56.4254 79.1269ZM51.1734 75.8683C51.1734 76.4692 51.364 76.9603 51.7454 77.3416C52.1267 77.7229 52.6005 77.9136 53.1667 77.9136C53.7329 77.9136 54.2067 77.7229 54.588 77.3416C54.9694 76.9603 55.16 76.4692 55.16 75.8683C55.16 75.2674 54.9694 74.7763 54.588 74.3949C54.2067 74.0136 53.7329 73.8229 53.1667 73.8229C52.6005 73.8229 52.1267 74.0136 51.7454 74.3949C51.364 74.7763 51.1734 75.2674 51.1734 75.8683ZM64.3093 71.2923C65.2453 71.2923 66.0138 71.61 66.6147 72.2456C67.2387 72.8927 67.5507 73.7709 67.5507 74.8803V80.2016H64.9507V75.2616C64.9507 74.7647 64.812 74.3776 64.5347 74.1003C64.2573 73.8229 63.8933 73.6843 63.4427 73.6843C62.9342 73.6843 62.5356 73.8403 62.2467 74.1523C61.9693 74.4527 61.8307 74.8918 61.8307 75.4696V80.2016H59.2307V71.5349H61.8307V72.3496C62.3507 71.6447 63.1769 71.2923 64.3093 71.2923ZM74.4148 71.5349V74.0309H72.6295V77.0989C72.6295 77.434 72.7624 77.6536 73.0281 77.7576C73.2939 77.85 73.7561 77.8789 74.4148 77.8443V80.2016C72.7739 80.3749 71.6299 80.2189 70.9828 79.7336C70.3473 79.2367 70.0295 78.3585 70.0295 77.0989V74.0309H68.6428V71.5349H70.0295V69.8883L72.6295 69.1083V71.5349H74.4148ZM78.6562 71.5349V73.0776C78.818 72.5345 79.1358 72.1127 79.6095 71.8123C80.0949 71.5118 80.6438 71.3616 81.2562 71.3616V74.3083C80.6091 74.2043 80.014 74.314 79.4709 74.6376C78.9278 74.9496 78.6562 75.4985 78.6562 76.2843V80.2016H76.0562V71.5349H78.6562ZM89.6363 79.1269C88.7581 80.0052 87.6719 80.4443 86.3777 80.4443C85.0834 80.4443 83.9972 80.0052 83.119 79.1269C82.2292 78.2372 81.7843 77.1509 81.7843 75.8683C81.7843 74.5972 82.2292 73.5167 83.119 72.6269C84.0088 71.7372 85.095 71.2923 86.3777 71.2923C87.6603 71.2923 88.7465 71.7372 89.6363 72.6269C90.5261 73.5167 90.971 74.5972 90.971 75.8683C90.971 77.1509 90.5261 78.2372 89.6363 79.1269ZM84.3843 75.8683C84.3843 76.4692 84.575 76.9603 84.9563 77.3416C85.3377 77.7229 85.8114 77.9136 86.3777 77.9136C86.9439 77.9136 87.4177 77.7229 87.799 77.3416C88.1803 76.9603 88.371 76.4692 88.371 75.8683C88.371 75.2674 88.1803 74.7763 87.799 74.3949C87.4177 74.0136 86.9439 73.8229 86.3777 73.8229C85.8114 73.8229 85.3377 74.0136 84.9563 74.3949C84.575 74.7763 84.3843 75.2674 84.3843 75.8683ZM95.0416 80.2016H92.4416V67.5483H95.0416V80.2016Z" fill="white"/>
</g>
</g>
<defs>
<clipPath id="clip0_1075_484">
<rect width="130" height="130" fill="white"/>
</clipPath>
</defs>
</svg>
