<svg width="195" height="65" viewBox="0 0 195 65" fill="none" xmlns="http://www.w3.org/2000/svg">
<g clip-path="url(#clip0_674_784)">
<rect width="195" height="65" fill="#FF8DA1"/>
<path d="M74.9554 25.6167H79.8087C81.4727 25.6167 82.8709 26.2002 84.0034 27.3673C85.1358 28.5344 85.702 29.9731 85.702 31.6833C85.702 33.4051 85.1358 34.8496 84.0034 36.0167C82.8825 37.1722 81.4843 37.75 79.8087 37.75H74.9554V25.6167ZM77.7287 35.0807H79.8087C80.7678 35.0807 81.542 34.7744 82.1314 34.162C82.7323 33.5496 83.0327 32.7233 83.0327 31.6833C83.0327 30.6433 82.7323 29.8229 82.1314 29.222C81.542 28.598 80.7678 28.286 79.8087 28.286H77.7287V35.0807ZM95.6507 34.4567H89.4974C89.7862 35.2656 90.4796 35.67 91.5774 35.67C92.2822 35.67 92.8369 35.4504 93.2414 35.0113L95.3214 36.2073C94.4778 37.3976 93.2182 37.9927 91.5427 37.9927C90.0982 37.9927 88.9311 37.5593 88.0414 36.6927C87.1747 35.826 86.7414 34.734 86.7414 33.4167C86.7414 32.1224 87.1689 31.0362 88.024 30.158C88.8907 29.2798 90 28.8407 91.352 28.8407C92.6116 28.8407 93.6574 29.2798 94.4894 30.158C95.3329 31.0131 95.7547 32.0993 95.7547 33.4167C95.7547 33.7864 95.72 34.1331 95.6507 34.4567ZM89.4454 32.5153H93.172C92.9178 31.6024 92.3054 31.146 91.3347 31.146C90.3294 31.146 89.6996 31.6024 89.4454 32.5153ZM102.054 29.0833V31.5793H100.269V34.6473C100.269 34.9824 100.402 35.202 100.667 35.306C100.933 35.3984 101.395 35.4273 102.054 35.3927V37.75C100.413 37.9233 99.2692 37.7673 98.6221 37.282C97.9866 36.7851 97.6688 35.9069 97.6688 34.6473V31.5793H96.2821V29.0833H97.6688V27.4367L100.269 26.6567V29.0833H102.054ZM110.776 36.6753C109.897 37.5536 108.811 37.9927 107.517 37.9927C106.223 37.9927 105.137 37.5536 104.258 36.6753C103.369 35.7856 102.924 34.6993 102.924 33.4167C102.924 32.1456 103.369 31.0651 104.258 30.1753C105.148 29.2856 106.234 28.8407 107.517 28.8407C108.8 28.8407 109.886 29.2856 110.776 30.1753C111.665 31.0651 112.11 32.1456 112.11 33.4167C112.11 34.6993 111.665 35.7856 110.776 36.6753ZM105.524 33.4167C105.524 34.0176 105.714 34.5087 106.096 34.89C106.477 35.2713 106.951 35.462 107.517 35.462C108.083 35.462 108.557 35.2713 108.938 34.89C109.32 34.5087 109.51 34.0176 109.51 33.4167C109.51 32.8158 109.32 32.3247 108.938 31.9433C108.557 31.562 108.083 31.3713 107.517 31.3713C106.951 31.3713 106.477 31.562 106.096 31.9433C105.714 32.3247 105.524 32.8158 105.524 33.4167ZM118.102 33.3473L121.205 37.75H118.224L116.612 35.462L115 37.75H112.018L115.121 33.3473L112.122 29.0833H115.104L116.612 31.2327L118.12 29.0833H121.101L118.102 33.3473Z" fill="white"/>
</g>
<defs>
<clipPath id="clip0_674_784">
<rect width="195" height="65" fill="white"/>
</clipPath>
</defs>
</svg>
