<svg width="195" height="65" viewBox="0 0 195 65" fill="none" xmlns="http://www.w3.org/2000/svg">
<g clip-path="url(#clip0_1075_500)">
<mask id="mask0_1075_500" style="mask-type:luminance" maskUnits="userSpaceOnUse" x="0" y="0" width="195" height="65">
<path d="M195 0H0V65H195V0Z" fill="white"/>
</mask>
<g mask="url(#mask0_1075_500)">
<path d="M195 0H0V65H195V0Z" fill="#FF8DA1"/>
<path d="M60.1452 37.9937C58.331 37.9937 56.823 37.3928 55.6212 36.191C54.431 34.9892 53.8359 33.487 53.8359 31.6843C53.8359 29.8817 54.431 28.3852 55.6212 27.195C56.8114 25.9817 58.3194 25.375 60.1452 25.375C61.2314 25.375 62.2367 25.6292 63.1612 26.1377C64.0856 26.6346 64.8136 27.3163 65.3452 28.183L62.9532 29.5697C62.6874 29.0959 62.3061 28.7319 61.8092 28.4777C61.3239 28.2119 60.7692 28.079 60.1452 28.079C59.059 28.079 58.1981 28.4083 57.5625 29.067C56.927 29.7141 56.6092 30.5866 56.6092 31.6843C56.6092 32.7821 56.927 33.6546 57.5625 34.3017C58.1981 34.9603 59.059 35.2897 60.1452 35.2897C60.7576 35.2897 61.3123 35.1568 61.8092 34.891C62.3176 34.6252 62.699 34.2612 62.9532 33.799L65.3452 35.1857C64.8252 36.0523 64.103 36.7399 63.1785 37.2483C62.2541 37.7452 61.243 37.9937 60.1452 37.9937ZM69.1195 27.871C68.8191 28.1714 68.4551 28.3217 68.0275 28.3217C67.6 28.3217 67.2302 28.1714 66.9182 27.871C66.6177 27.559 66.4675 27.1892 66.4675 26.7617C66.4675 26.3341 66.6177 25.9701 66.9182 25.6697C67.2302 25.3577 67.6 25.2017 68.0275 25.2017C68.4551 25.2017 68.8191 25.3577 69.1195 25.6697C69.4315 25.9701 69.5875 26.3341 69.5875 26.7617C69.5875 27.1892 69.4315 27.559 69.1195 27.871ZM69.3275 37.751H66.7275V29.0843H69.3275V37.751ZM73.8301 29.0843V30.627C73.9919 30.0839 74.3097 29.6621 74.7835 29.3617C75.2688 29.0612 75.8177 28.911 76.4301 28.911V31.8577C75.783 31.7537 75.1879 31.8634 74.6448 32.187C74.1017 32.499 73.8301 33.0479 73.8301 33.8337V37.751H71.2301V29.0843H73.8301ZM81.5516 37.9937C80.2342 37.9937 79.1365 37.5546 78.2582 36.6763C77.3916 35.7981 76.9582 34.7119 76.9582 33.4177C76.9582 32.1234 77.3916 31.0372 78.2582 30.159C79.1365 29.2808 80.2342 28.8417 81.5516 28.8417C82.372 28.8417 83.1347 29.0439 83.8396 29.4483C84.5445 29.8528 85.0876 30.3901 85.4689 31.0603L83.1983 32.3777C82.8862 31.7306 82.3258 31.407 81.5169 31.407C80.9507 31.407 80.4827 31.5977 80.1129 31.979C79.7431 32.3488 79.5582 32.8283 79.5582 33.4177C79.5582 34.007 79.7431 34.4923 80.1129 34.8737C80.4827 35.2434 80.9507 35.4283 81.5169 35.4283C82.3374 35.4283 82.8978 35.1048 83.1983 34.4577L85.4689 35.7577C85.0876 36.451 84.5445 36.9999 83.8396 37.4043C83.1463 37.7972 82.3836 37.9937 81.5516 37.9937ZM92.1986 33.8163V29.0843H94.7986V37.751H92.1986V36.9363C91.6786 37.6412 90.8524 37.9937 89.7199 37.9937C88.7955 37.9937 88.0213 37.6759 87.3973 37.0403C86.7848 36.3932 86.4786 35.515 86.4786 34.4057V29.0843H89.0786V34.0243C89.0786 34.5212 89.2173 34.9083 89.4946 35.1857C89.7719 35.463 90.1359 35.6017 90.5866 35.6017C91.095 35.6017 91.4879 35.4514 91.7653 35.151C92.0541 34.839 92.1986 34.3941 92.1986 33.8163ZM99.3054 37.751H96.7054V25.0977H99.3054V37.751ZM107.5 29.899V29.0843H110.1V37.751H107.5V36.9363C106.899 37.6412 106.038 37.9937 104.917 37.9937C103.773 37.9937 102.796 37.5546 101.988 36.6763C101.179 35.7981 100.774 34.7119 100.774 33.4177C100.774 32.135 101.179 31.0546 101.988 30.1763C102.808 29.2866 103.784 28.8417 104.917 28.8417C106.038 28.8417 106.899 29.1941 107.5 29.899ZM103.374 33.4177C103.374 34.0648 103.565 34.579 103.946 34.9603C104.328 35.3417 104.824 35.5323 105.437 35.5323C106.049 35.5323 106.546 35.3417 106.928 34.9603C107.309 34.579 107.5 34.0648 107.5 33.4177C107.5 32.7706 107.309 32.2563 106.928 31.875C106.546 31.4937 106.049 31.303 105.437 31.303C104.824 31.303 104.328 31.4937 103.946 31.875C103.565 32.2563 103.374 32.7706 103.374 33.4177ZM117.086 29.0843V31.5803H115.3V34.6483C115.3 34.9834 115.433 35.203 115.699 35.307C115.965 35.3994 116.427 35.4283 117.086 35.3937V37.751C115.445 37.9243 114.301 37.7683 113.654 37.283C113.018 36.7861 112.7 35.9079 112.7 34.6483V31.5803H111.314V29.0843H112.7V27.4377L115.3 26.6577V29.0843H117.086ZM120.95 27.871C120.649 28.1714 120.285 28.3217 119.858 28.3217C119.43 28.3217 119.061 28.1714 118.749 27.871C118.448 27.559 118.298 27.1892 118.298 26.7617C118.298 26.3341 118.448 25.9701 118.749 25.6697C119.061 25.3577 119.43 25.2017 119.858 25.2017C120.285 25.2017 120.649 25.3577 120.95 25.6697C121.262 25.9701 121.418 26.3341 121.418 26.7617C121.418 27.1892 121.262 27.559 120.95 27.871ZM121.158 37.751H118.558V29.0843H121.158V37.751ZM130.479 36.6763C129.601 37.5546 128.515 37.9937 127.22 37.9937C125.926 37.9937 124.84 37.5546 123.962 36.6763C123.072 35.7866 122.627 34.7003 122.627 33.4177C122.627 32.1466 123.072 31.0661 123.962 30.1763C124.852 29.2866 125.938 28.8417 127.22 28.8417C128.503 28.8417 129.589 29.2866 130.479 30.1763C131.369 31.0661 131.814 32.1466 131.814 33.4177C131.814 34.7003 131.369 35.7866 130.479 36.6763ZM125.227 33.4177C125.227 34.0186 125.418 34.5097 125.799 34.891C126.18 35.2723 126.654 35.463 127.22 35.463C127.787 35.463 128.26 35.2723 128.642 34.891C129.023 34.5097 129.214 34.0186 129.214 33.4177C129.214 32.8168 129.023 32.3257 128.642 31.9443C128.26 31.563 127.787 31.3723 127.22 31.3723C126.654 31.3723 126.18 31.563 125.799 31.9443C125.418 32.3257 125.227 32.8168 125.227 33.4177ZM138.363 28.8417C139.299 28.8417 140.068 29.1594 140.668 29.795C141.292 30.4421 141.604 31.3203 141.604 32.4297V37.751H139.004V32.811C139.004 32.3141 138.866 31.927 138.588 31.6497C138.311 31.3723 137.947 31.2337 137.496 31.2337C136.988 31.2337 136.589 31.3897 136.3 31.7017C136.023 32.0021 135.884 32.4412 135.884 33.019V37.751H133.284V29.0843H135.884V29.899C136.404 29.1941 137.231 28.8417 138.363 28.8417Z" fill="white"/>
</g>
</g>
<defs>
<clipPath id="clip0_1075_500">
<rect width="195" height="65" fill="white"/>
</clipPath>
</defs>
</svg>
