<svg width="195" height="65" viewBox="0 0 195 65" fill="none" xmlns="http://www.w3.org/2000/svg">
<g clip-path="url(#clip0_674_769)">
<rect width="195" height="65" fill="#FF8DA1"/>
<path d="M61.51 25.6167H64.2834V37.75H61.51V30.6953L58.3727 35.8433H58.0607L54.9234 30.6953V37.75H52.15V25.6167H54.9234L58.2167 31.0073L61.51 25.6167ZM74.7581 34.4567H68.6048C68.8937 35.2656 69.587 35.67 70.6848 35.67C71.3897 35.67 71.9443 35.4504 72.3488 35.0113L74.4288 36.2073C73.5852 37.3976 72.3257 37.9927 70.6501 37.9927C69.2057 37.9927 68.0386 37.5593 67.1488 36.6927C66.2821 35.826 65.8488 34.734 65.8488 33.4167C65.8488 32.1224 66.2763 31.0362 67.1314 30.158C67.9981 29.2798 69.1074 28.8407 70.4594 28.8407C71.719 28.8407 72.7648 29.2798 73.5968 30.158C74.4403 31.0131 74.8621 32.0993 74.8621 33.4167C74.8621 33.7864 74.8274 34.1331 74.7581 34.4567ZM68.5528 32.5153H72.2794C72.0252 31.6024 71.4128 31.146 70.4421 31.146C69.4368 31.146 68.807 31.6024 68.5528 32.5153ZM81.1616 29.0833V31.5793H79.3762V34.6473C79.3762 34.9824 79.5091 35.202 79.7749 35.306C80.0407 35.3984 80.5029 35.4273 81.1616 35.3927V37.75C79.5207 37.9233 78.3767 37.7673 77.7296 37.282C77.094 36.7851 76.7762 35.9069 76.7762 34.6473V31.5793H75.3896V29.0833H76.7762V27.4367L79.3762 26.6567V29.0833H81.1616ZM88.7564 29.898V29.0833L91.3564 29.0833V37.75H88.7564V36.9353C88.1555 37.6402 87.2946 37.9927 86.1737 37.9927C85.0297 37.9927 84.0533 37.5536 83.2444 36.6753C82.4355 35.7971 82.0311 34.7109 82.0311 33.4167C82.0311 32.134 82.4355 31.0536 83.2444 30.1753C84.0648 29.2856 85.0413 28.8407 86.1737 28.8407C87.2946 28.8407 88.1555 29.1931 88.7564 29.898ZM84.6311 33.4167C84.6311 34.0638 84.8217 34.578 85.2031 34.9593C85.5844 35.3407 86.0813 35.5313 86.6937 35.5313C87.3062 35.5313 87.8031 35.3407 88.1844 34.9593C88.5657 34.578 88.7564 34.0638 88.7564 33.4167C88.7564 32.7696 88.5657 32.2553 88.1844 31.874C87.8031 31.4927 87.3062 31.302 86.6937 31.302C86.0813 31.302 85.5844 31.4927 85.2031 31.874C84.8217 32.2553 84.6311 32.7696 84.6311 33.4167ZM98.4465 28.8407C99.579 28.8407 100.555 29.2856 101.376 30.1753C102.185 31.0536 102.589 32.134 102.589 33.4167C102.589 34.7109 102.185 35.7971 101.376 36.6753C100.567 37.5536 99.5905 37.9927 98.4465 37.9927C97.3257 37.9927 96.4648 37.6402 95.8639 36.9353V37.75H93.2639V25.6167H95.8639V29.898C96.4648 29.1931 97.3257 28.8407 98.4465 28.8407ZM96.4359 34.9593C96.8288 35.3407 97.3257 35.5313 97.9265 35.5313C98.5274 35.5313 99.0185 35.3407 99.3999 34.9593C99.7928 34.578 99.9892 34.0638 99.9892 33.4167C99.9892 32.7696 99.7928 32.2553 99.3999 31.874C99.0185 31.4927 98.5274 31.302 97.9265 31.302C97.3257 31.302 96.8288 31.4927 96.4359 31.874C96.0545 32.2553 95.8639 32.7696 95.8639 33.4167C95.8639 34.0638 96.0545 34.578 96.4359 34.9593ZM111.482 36.6753C110.604 37.5536 109.518 37.9927 108.223 37.9927C106.929 37.9927 105.843 37.5536 104.965 36.6753C104.075 35.7856 103.63 34.6993 103.63 33.4167C103.63 32.1456 104.075 31.0651 104.965 30.1753C105.854 29.2856 106.941 28.8407 108.223 28.8407C109.506 28.8407 110.592 29.2856 111.482 30.1753C112.372 31.0651 112.817 32.1456 112.817 33.4167C112.817 34.6993 112.372 35.7856 111.482 36.6753ZM106.23 33.4167C106.23 34.0176 106.421 34.5087 106.802 34.89C107.183 35.2713 107.657 35.462 108.223 35.462C108.79 35.462 109.263 35.2713 109.645 34.89C110.026 34.5087 110.217 34.0176 110.217 33.4167C110.217 32.8158 110.026 32.3247 109.645 31.9433C109.263 31.562 108.79 31.3713 108.223 31.3713C107.657 31.3713 107.183 31.562 106.802 31.9433C106.421 32.3247 106.23 32.8158 106.23 33.4167ZM116.887 37.75H114.287V25.0967H116.887V37.75ZM121.182 27.87C120.881 28.1704 120.517 28.3207 120.09 28.3207C119.662 28.3207 119.293 28.1704 118.981 27.87C118.68 27.558 118.53 27.1882 118.53 26.7607C118.53 26.3331 118.68 25.9691 118.981 25.6687C119.293 25.3567 119.662 25.2007 120.09 25.2007C120.517 25.2007 120.881 25.3567 121.182 25.6687C121.494 25.9691 121.65 26.3331 121.65 26.7607C121.65 27.1882 121.494 27.558 121.182 27.87ZM121.39 37.75H118.79V29.0833H121.39V37.75ZM125.669 31.614C125.669 31.7642 125.791 31.8971 126.033 32.0127C126.276 32.1167 126.657 32.238 127.177 32.3767C129.026 32.7811 129.945 33.7056 129.933 35.15C129.933 36.086 129.587 36.7967 128.893 37.282C128.188 37.7558 127.333 37.9927 126.328 37.9927C124.502 37.9927 123.26 37.3051 122.601 35.93L124.855 34.6473C125.086 35.3291 125.577 35.67 126.328 35.67C126.952 35.67 127.264 35.4909 127.264 35.1327C127.264 34.8784 126.761 34.6242 125.756 34.37C125.386 34.266 125.068 34.162 124.803 34.058C124.537 33.9424 124.248 33.7864 123.936 33.59C123.635 33.382 123.404 33.1162 123.243 32.7927C123.081 32.4691 123 32.0993 123 31.6833C123 30.7936 123.323 30.0944 123.971 29.586C124.618 29.0891 125.427 28.8407 126.397 28.8407C127.911 28.8407 129.038 29.4589 129.777 30.6953L127.559 31.8913C127.281 31.3829 126.894 31.1287 126.397 31.1287C125.912 31.1287 125.669 31.2904 125.669 31.614ZM141.023 28.8407C142.005 28.8407 142.802 29.17 143.415 29.8287C144.016 30.4642 144.316 31.3309 144.316 32.4287V37.75H141.716V32.654C141.716 32.2033 141.606 31.8567 141.387 31.614C141.179 31.3598 140.872 31.2327 140.468 31.2327C140.04 31.2327 139.705 31.3771 139.463 31.666C139.232 31.9549 139.116 32.3536 139.116 32.862V37.75H136.516V32.654C136.516 32.2033 136.406 31.8567 136.187 31.614C135.979 31.3598 135.672 31.2327 135.268 31.2327C134.84 31.2327 134.505 31.3771 134.263 31.666C134.032 31.9549 133.916 32.3536 133.916 32.862V37.75H131.316V29.0833H133.916V29.8807C134.39 29.1873 135.164 28.8407 136.239 28.8407C137.244 28.8407 138.001 29.222 138.509 29.9847C139.041 29.222 139.879 28.8407 141.023 28.8407Z" fill="white"/>
</g>
<defs>
<clipPath id="clip0_674_769">
<rect width="195" height="65" fill="white"/>
</clipPath>
</defs>
</svg>
