<svg width="130" height="130" viewBox="0 0 130 130" fill="none" xmlns="http://www.w3.org/2000/svg">
<g clip-path="url(#clip0_1075_474)">
<mask id="mask0_1075_474" style="mask-type:luminance" maskUnits="userSpaceOnUse" x="0" y="0" width="130" height="130">
<path d="M130 0H0V130H130V0Z" fill="white"/>
</mask>
<g mask="url(#mask0_1075_474)">
<path d="M65 130C100.899 130 130 100.899 130 65C130 29.1015 100.899 0 65 0C29.1015 0 0 29.1015 0 65C0 100.899 29.1015 130 65 130Z" fill="#FF8DA1"/>
<path d="M25.5264 60.6893C26.6589 60.6893 27.6353 61.1342 28.4558 62.0239C29.2646 62.9022 29.6691 63.9826 29.6691 65.2653C29.6691 66.5595 29.2646 67.6457 28.4558 68.5239C27.6469 69.4022 26.6704 69.8413 25.5264 69.8413C24.4054 69.8413 23.5446 69.4888 22.9438 68.7839V73.0653H20.3438V60.9319H22.9438V61.7466C23.5446 61.0417 24.4054 60.6893 25.5264 60.6893ZM23.5158 66.8079C23.9086 67.1893 24.4055 67.3799 25.0064 67.3799C25.6073 67.3799 26.0984 67.1893 26.4798 66.8079C26.8726 66.4266 27.0691 65.9124 27.0691 65.2653C27.0691 64.6182 26.8726 64.1039 26.4798 63.7226C26.0984 63.3413 25.6073 63.1506 25.0064 63.1506C24.4055 63.1506 23.9086 63.3413 23.5158 63.7226C23.1344 64.1039 22.9438 64.6182 22.9438 65.2653C22.9438 65.9124 23.1344 66.4266 23.5158 66.8079ZM37.8165 62.1106V57.4653H40.5898V69.5986H37.8165V64.7799H34.0032V69.5986H31.2299V57.4653H34.0032V62.1106H37.8165ZM54.5285 63.3066C55.5223 63.9537 56.0192 64.8666 56.0192 66.0453C56.0192 67.0968 55.6436 67.9519 54.8925 68.6106C54.1414 69.2693 53.2113 69.5986 52.1019 69.5986H47.0058V57.4653H51.7553C52.8299 57.4653 53.737 57.7888 54.4765 58.4359C55.2161 59.0715 55.5859 59.9035 55.5859 60.9319C55.5859 61.9142 55.2334 62.7057 54.5285 63.3066ZM51.7553 60.0653H49.7792V62.2146H51.7553C52.0673 62.2146 52.3215 62.1164 52.5179 61.9199C52.7144 61.7119 52.8126 61.4519 52.8126 61.1399C52.8126 60.8279 52.7144 60.5737 52.5179 60.3773C52.3215 60.1693 52.0673 60.0653 51.7553 60.0653ZM49.7792 66.9986H52.1019C52.4486 66.9986 52.7259 66.8946 52.9339 66.6866C53.1419 66.4671 53.2458 66.1839 53.2458 65.8373C53.2458 65.4906 53.1419 65.2133 52.9339 65.0053C52.7259 64.7857 52.4486 64.6759 52.1019 64.6759H49.7792V66.9986ZM63.7738 61.7466V60.9319H66.3738V69.5986H63.7738V68.7839C63.1729 69.4888 62.3119 69.8413 61.191 69.8413C60.047 69.8413 59.0706 69.4022 58.2617 68.5239C57.4528 67.6457 57.0483 66.5595 57.0483 65.2653C57.0483 63.9826 57.4528 62.9022 58.2617 62.0239C59.0821 61.1342 60.0586 60.6893 61.191 60.6893C62.3119 60.6893 63.1729 61.0417 63.7738 61.7466ZM59.6484 65.2653C59.6484 65.9124 59.8391 66.4266 60.2204 66.8079C60.6018 67.1893 61.0987 67.3799 61.7111 67.3799C62.3236 67.3799 62.8204 67.1893 63.2018 66.8079C63.5831 66.4266 63.7738 65.9124 63.7738 65.2653C63.7738 64.6182 63.5831 64.1039 63.2018 63.7226C62.8204 63.3413 62.3236 63.1506 61.7111 63.1506C61.0987 63.1506 60.6018 63.3413 60.2204 63.7226C59.8391 64.1039 59.6484 64.6182 59.6484 65.2653ZM70.8813 69.5986H68.2812V56.9453H70.8813V69.5986ZM79.0759 61.7466V60.9319H81.6758V69.5986H79.0759V68.7839C78.475 69.4888 77.6141 69.8413 76.4932 69.8413C75.3492 69.8413 74.3727 69.4022 73.5639 68.5239C72.755 67.6457 72.3505 66.5595 72.3505 65.2653C72.3505 63.9826 72.755 62.9022 73.5639 62.0239C74.3843 61.1342 75.3607 60.6893 76.4932 60.6893C77.6141 60.6893 78.475 61.0417 79.0759 61.7466ZM74.9505 65.2653C74.9505 65.9124 75.1412 66.4266 75.5225 66.8079C75.9039 67.1893 76.4007 67.3799 77.0132 67.3799C77.6256 67.3799 78.1225 67.1893 78.5039 66.8079C78.8852 66.4266 79.0759 65.9124 79.0759 65.2653C79.0759 64.6182 78.8852 64.1039 78.5039 63.7226C78.1225 63.3413 77.6256 63.1506 77.0132 63.1506C76.4007 63.1506 75.9039 63.3413 75.5225 63.7226C75.1412 64.1039 74.9505 64.6182 74.9505 65.2653ZM88.6619 60.6893C89.5979 60.6893 90.3665 61.0071 90.9673 61.6426C91.5913 62.2897 91.9033 63.1679 91.9033 64.2773V69.5986H89.3033V64.6586C89.3033 64.1617 89.1647 63.7746 88.8873 63.4973C88.61 63.2199 88.2459 63.0813 87.7952 63.0813C87.2868 63.0813 86.8882 63.2373 86.5993 63.5493C86.322 63.8497 86.1833 64.2888 86.1833 64.8666V69.5986H83.5833V60.9319H86.1833V61.7466C86.7033 61.0417 87.5295 60.6893 88.6619 60.6893ZM97.8488 69.8413C96.5315 69.8413 95.4337 69.4022 94.5555 68.5239C93.6888 67.6457 93.2555 66.5595 93.2555 65.2653C93.2555 63.9711 93.6888 62.8848 94.5555 62.0066C95.4337 61.1284 96.5315 60.6893 97.8488 60.6893C98.6693 60.6893 99.4319 60.8915 100.137 61.2959C100.842 61.7004 101.385 62.2377 101.766 62.9079L99.4955 64.2253C99.1835 63.5782 98.623 63.2546 97.8141 63.2546C97.2479 63.2546 96.7798 63.4453 96.41 63.8266C96.0403 64.1964 95.8555 64.6759 95.8555 65.2653C95.8555 65.8546 96.0403 66.3399 96.41 66.7213C96.7798 67.0911 97.2479 67.2759 97.8141 67.2759C98.6346 67.2759 99.195 66.9524 99.4955 66.3053L101.766 67.6053C101.385 68.2986 100.842 68.8475 100.137 69.2519C99.4435 69.6448 98.6808 69.8413 97.8488 69.8413ZM111.119 66.3053H104.966C105.255 67.1142 105.948 67.5186 107.046 67.5186C107.751 67.5186 108.305 67.2991 108.71 66.8599L110.79 68.0559C109.946 69.2462 108.687 69.8413 107.011 69.8413C105.567 69.8413 104.4 69.4079 103.51 68.5413C102.643 67.6746 102.21 66.5826 102.21 65.2653C102.21 63.9711 102.637 62.8848 103.492 62.0066C104.359 61.1284 105.468 60.6893 106.82 60.6893C108.08 60.6893 109.126 61.1284 109.958 62.0066C110.801 62.8617 111.223 63.9479 111.223 65.2653C111.223 65.6351 111.188 65.9817 111.119 66.3053ZM104.914 64.3639H108.64C108.386 63.4511 107.774 62.9946 106.803 62.9946C105.798 62.9946 105.168 63.4511 104.914 64.3639Z" fill="white"/>
</g>
</g>
<defs>
<clipPath id="clip0_1075_474">
<rect width="130" height="130" fill="white"/>
</clipPath>
</defs>
</svg>
